<?xml version="1.0" encoding="UTF-8"?>
<!DOCTYPE svg PUBLIC "-//W3C//DTD SVG 1.0//EN" "http://www.w3.org/TR/2001/REC-SVG-20010904/DTD/svg10.dtd">
<!-- Creator: CorelDRAW X7 -->
<svg xmlns="http://www.w3.org/2000/svg" xml:space="preserve" width="100%" height="100%" version="1.0" shape-rendering="geometricPrecision" text-rendering="geometricPrecision" image-rendering="optimizeQuality" fill-rule="evenodd" clip-rule="evenodd"
viewBox="0 0 23831 8812"
 xmlns:xlink="http://www.w3.org/1999/xlink">
 <g id="Слой_x0020_1">
  <metadata id="CorelCorpID_0Corel-Layer"/>
  <line fill="none" stroke="black" stroke-width="21.93" stroke-linecap="round" stroke-linejoin="round" x1="3454" y1="8756" x2="3454" y2= "2248" />
  <line fill="none" stroke="black" stroke-width="21.93" stroke-linecap="round" stroke-linejoin="round" x1="1008" y1="2232" x2="1008" y2= "8736" />
  <line fill="none" stroke="black" stroke-width="21.93" stroke-linecap="round" stroke-linejoin="round" x1="23791" y1="2222" x2="1007" y2= "2222" />
  <line fill="none" stroke="black" stroke-width="21.93" stroke-linecap="round" stroke-linejoin="round" x1="1008" y1="8738" x2="23791" y2= "8738" />
  <path fill="black" stroke="black" stroke-width="7.62" stroke-linecap="round" stroke-linejoin="round" d="M3517 2222c0,-34 -28,-62 -63,-62 -33,0 -61,28 -61,62 0,33 28,61 61,61 35,0 63,-28 63,-61z"/>
  <path fill="none" stroke="black" stroke-width="21.93" stroke-linecap="round" stroke-linejoin="round" d="M3517 2222c0,-34 -28,-62 -63,-62 -33,0 -61,28 -61,62 0,33 28,61 61,61 35,0 63,-28 63,-61"/>
  <path fill="black" stroke="black" stroke-width="7.62" stroke-linecap="round" stroke-linejoin="round" d="M3517 8738c0,-33 -28,-61 -63,-61 -33,0 -61,28 -61,61 0,36 28,63 61,63 35,0 63,-27 63,-63z"/>
  <path fill="none" stroke="black" stroke-width="21.93" stroke-linecap="round" stroke-linejoin="round" d="M3517 8738c0,-33 -28,-61 -63,-61 -33,0 -61,28 -61,61 0,36 28,63 61,63 35,0 63,-27 63,-63"/>
  <line fill="none" stroke="black" stroke-width="21.93" stroke-linecap="round" stroke-linejoin="round" x1="23791" y1="2222" x2="23791" y2= "8741" />
  <line fill="none" stroke="black" stroke-width="21.93" stroke-linecap="round" stroke-linejoin="round" x1="7873" y1="2222" x2="7873" y2= "11" />
  <line fill="none" stroke="black" stroke-width="21.93" stroke-linecap="round" stroke-linejoin="round" x1="10970" y1="2222" x2="10970" y2= "11" />
  <line fill="none" stroke="black" stroke-width="21.93" stroke-linecap="round" stroke-linejoin="round" x1="7873" y1="11" x2="10973" y2= "11" />
  <path fill="black" stroke="black" stroke-width="7.62" stroke-linecap="round" stroke-linejoin="round" d="M7934 2222c0,-34 -26,-62 -61,-62 -34,0 -62,28 -62,62 0,33 28,61 62,61 35,0 61,-28 61,-61z"/>
  <path fill="none" stroke="black" stroke-width="21.93" stroke-linecap="round" stroke-linejoin="round" d="M7934 2222c0,-34 -26,-62 -61,-62 -34,0 -62,28 -62,62 0,33 28,61 62,61 35,0 61,-28 61,-61"/>
  <path fill="black" stroke="black" stroke-width="7.62" stroke-linecap="round" stroke-linejoin="round" d="M11033 2222c0,-34 -28,-62 -63,-62 -34,0 -62,28 -62,62 0,33 28,61 62,61 35,0 63,-28 63,-61z"/>
  <path fill="none" stroke="black" stroke-width="21.93" stroke-linecap="round" stroke-linejoin="round" d="M11033 2222c0,-34 -28,-62 -63,-62 -34,0 -62,28 -62,62 0,33 28,61 62,61 35,0 63,-28 63,-61"/>
  <line fill="none" stroke="#00B0F0" stroke-width="21.93" stroke-linecap="round" stroke-linejoin="round" x1="1907" y1="2682" x2="1907" y2= "8126" />
  <path fill="#00B0F0" d="M1907 8278l-101 -202c63,32 139,32 202,0l-101 202 0 0z"/>
  <polygon fill="#D9D9D9" points="8689,1929 8689,2514 10154,2514 10154,1929 "/>
  <polygon fill="none" stroke="black" stroke-width="21.93" stroke-linecap="round" stroke-linejoin="round" points="8689,2514 10154,2514 10154,1929 8689,1929 "/>
  <line fill="none" stroke="#00B050" stroke-width="21.93" stroke-linecap="round" stroke-linejoin="round" x1="9421" y1="3802" x2="9421" y2= "2668" />
  <path fill="#00B050" d="M9421 2514l101 203c-63,-32 -137,-32 -202,0l101 -203 0 0z"/>
  <line fill="none" stroke="#00B0F0" stroke-width="21.93" stroke-linecap="round" stroke-linejoin="round" x1="8759" y1="1666" x2="9932" y2= "1666" />
  <path fill="#00B0F0" d="M10085 1666l-202 101c31,-64 31,-139 0,-202l202 101 0 0z"/>
  <line fill="none" stroke="#00B050" stroke-width="21.93" stroke-linecap="round" stroke-linejoin="round" x1="11" y1="42" x2="11" y2= "5487" />
  <line fill="none" stroke="#00B050" stroke-width="21.93" stroke-linecap="round" stroke-linejoin="round" x1="884" y1="42" x2="11" y2= "42" />
  <line fill="none" stroke="red" stroke-width="21.93" stroke-linecap="round" stroke-linejoin="round" x1="6108" y1="915" x2="6398" y2= "915" />
  <path fill="red" d="M6550 915l-202 100c32,-64 32,-138 0,-201l202 101 0 0z"/>
  <line fill="none" stroke="black" stroke-width="21.93" stroke-linecap="round" stroke-linejoin="round" x1="14059" y1="2222" x2="14059" y2= "11" />
  <line fill="none" stroke="black" stroke-width="21.93" stroke-linecap="round" stroke-linejoin="round" x1="17156" y1="2222" x2="17156" y2= "11" />
  <line fill="none" stroke="black" stroke-width="21.93" stroke-linecap="round" stroke-linejoin="round" x1="14059" y1="11" x2="17157" y2= "11" />
  <path fill="black" stroke="black" stroke-width="7.62" stroke-linecap="round" stroke-linejoin="round" d="M14121 2222c0,-34 -28,-62 -62,-62 -35,0 -63,28 -63,62 0,33 28,61 63,61 34,0 62,-28 62,-61z"/>
  <path fill="none" stroke="black" stroke-width="21.93" stroke-linecap="round" stroke-linejoin="round" d="M14121 2222c0,-34 -28,-62 -62,-62 -35,0 -63,28 -63,62 0,33 28,61 63,61 34,0 62,-28 62,-61"/>
  <path fill="black" stroke="black" stroke-width="7.62" stroke-linecap="round" stroke-linejoin="round" d="M17217 2222c0,-34 -27,-62 -61,-62 -35,0 -61,28 -61,62 0,33 26,61 61,61 34,0 61,-28 61,-61z"/>
  <path fill="none" stroke="black" stroke-width="21.93" stroke-linecap="round" stroke-linejoin="round" d="M17217 2222c0,-34 -27,-62 -61,-62 -35,0 -61,28 -61,62 0,33 26,61 61,61 34,0 61,-28 61,-61"/>
  <polygon fill="#D9D9D9" points="14875,1929 14875,2514 16340,2514 16340,1929 "/>
  <polygon fill="none" stroke="black" stroke-width="21.93" stroke-linecap="round" stroke-linejoin="round" points="14875,2514 16340,2514 16340,1929 14875,1929 "/>
  <line fill="none" stroke="#00B050" stroke-width="21.93" stroke-linecap="round" stroke-linejoin="round" x1="15608" y1="3773" x2="15608" y2= "2668" />
  <path fill="#00B050" d="M15608 2514l100 203c-64,-32 -138,-32 -201,0l101 -203 0 0z"/>
  <line fill="none" stroke="#00B0F0" stroke-width="21.93" stroke-linecap="round" stroke-linejoin="round" x1="14944" y1="1666" x2="16118" y2= "1666" />
  <path fill="#00B0F0" d="M16270 1666l-202 101c32,-64 32,-139 0,-202l202 101 0 0z"/>
  <line fill="none" stroke="red" stroke-width="21.93" stroke-linecap="round" stroke-linejoin="round" x1="12293" y1="915" x2="12582" y2= "915" />
  <path fill="red" d="M12736 915l-202 100c31,-64 31,-138 0,-201l202 101 0 0z"/>
  <line fill="none" stroke="black" stroke-width="21.93" stroke-linecap="round" stroke-linejoin="round" x1="20247" y1="2222" x2="20247" y2= "11" />
  <line fill="none" stroke="black" stroke-width="21.93" stroke-linecap="round" stroke-linejoin="round" x1="23345" y1="2222" x2="23345" y2= "11" />
  <line fill="none" stroke="black" stroke-width="21.93" stroke-linecap="round" stroke-linejoin="round" x1="20247" y1="11" x2="23347" y2= "11" />
  <path fill="black" stroke="black" stroke-width="7.62" stroke-linecap="round" stroke-linejoin="round" d="M20310 2222c0,-34 -28,-62 -63,-62 -34,0 -61,28 -61,62 0,33 27,61 61,61 35,0 63,-28 63,-61z"/>
  <path fill="none" stroke="black" stroke-width="21.93" stroke-linecap="round" stroke-linejoin="round" d="M20310 2222c0,-34 -28,-62 -63,-62 -34,0 -61,28 -61,62 0,33 27,61 61,61 35,0 63,-28 63,-61"/>
  <path fill="black" stroke="black" stroke-width="7.62" stroke-linecap="round" stroke-linejoin="round" d="M23407 2222c0,-34 -28,-62 -62,-62 -35,0 -63,28 -63,62 0,33 28,61 63,61 34,0 62,-28 62,-61z"/>
  <path fill="none" stroke="black" stroke-width="21.93" stroke-linecap="round" stroke-linejoin="round" d="M23407 2222c0,-34 -28,-62 -62,-62 -35,0 -63,28 -63,62 0,33 28,61 63,61 34,0 62,-28 62,-61"/>
  <polygon fill="#D9D9D9" points="21064,1929 21064,2514 22528,2514 22528,1929 "/>
  <polygon fill="none" stroke="black" stroke-width="21.93" stroke-linecap="round" stroke-linejoin="round" points="21064,2514 22528,2514 22528,1929 21064,1929 "/>
  <line fill="none" stroke="#00B050" stroke-width="21.93" stroke-linecap="round" stroke-linejoin="round" x1="21795" y1="3802" x2="21795" y2= "2668" />
  <path fill="#00B050" d="M21795 2514l101 203c-63,-32 -137,-32 -202,0l101 -203 0 0z"/>
  <line fill="none" stroke="#00B0F0" stroke-width="21.93" stroke-linecap="round" stroke-linejoin="round" x1="21133" y1="1666" x2="22306" y2= "1666" />
  <path fill="#00B0F0" d="M22459 1666l-202 101c31,-64 31,-139 0,-202l202 101 0 0z"/>
  <line fill="none" stroke="red" stroke-width="21.93" stroke-linecap="round" stroke-linejoin="round" x1="18482" y1="915" x2="18772" y2= "915" />
  <path fill="red" d="M18925 915l-203 100c32,-64 32,-138 0,-201l203 101 0 0z"/>
  <line fill="none" stroke="#00B050" stroke-width="21.93" stroke-linecap="round" stroke-linejoin="round" x1="11" y1="5481" x2="428" y2= "5481" />
  <path fill="#00B050" d="M581 5481l-202 101c31,-65 31,-139 0,-202l202 101 0 0z"/>
  <polygon fill="#D9D9D9" points="581,5038 581,5922 1466,5922 1466,5038 "/>
  <polygon fill="none" stroke="black" stroke-width="21.93" stroke-linecap="round" stroke-linejoin="round" points="1466,5038 581,5038 581,5922 1466,5922 "/>
  <polygon fill="black" fill-rule="nonzero" points="1139,5647 1107,5647 1107,5435 964,5647 929,5647 929,5379 961,5379 961,5591 1104,5379 1139,5379 "/>
  <line fill="none" stroke="#00B0F0" stroke-width="21.93" stroke-linecap="round" stroke-linejoin="round" x1="7873" y1="2682" x2="7873" y2= "8126" />
  <path fill="#00B0F0" d="M7873 8278l-101 -202c64,32 139,32 202,0l-101 202 0 0z"/>
  <line fill="none" stroke="#00B0F0" stroke-width="21.93" stroke-linecap="round" stroke-linejoin="round" x1="14059" y1="2682" x2="14059" y2= "8126" />
  <path fill="#00B0F0" d="M14059 8278l-102 -202c64,32 139,32 203,0l-101 202 0 0z"/>
  <line fill="none" stroke="#00B0F0" stroke-width="21.93" stroke-linecap="round" stroke-linejoin="round" x1="20247" y1="2682" x2="20247" y2= "8126" />
  <path fill="#00B0F0" d="M20247 8278l-101 -202c64,32 139,32 202,0l-101 202 0 0z"/>
  <line fill="none" stroke="#00B0F0" stroke-width="21.93" stroke-linecap="round" stroke-linejoin="round" x1="23345" y1="2682" x2="23345" y2= "8126" />
  <path fill="#00B0F0" d="M23345 8278l-102 -202c64,32 139,32 203,0l-101 202 0 0z"/>
  <line fill="none" stroke="#F5EFE5" stroke-width="21.93" stroke-linecap="round" stroke-linejoin="round" x1="23820" y1="2222" x2="23820" y2= "8741" />
 </g>
</svg>
