<?xml version="1.0" encoding="UTF-8"?>
<!DOCTYPE svg PUBLIC "-//W3C//DTD SVG 1.0//EN" "http://www.w3.org/TR/2001/REC-SVG-20010904/DTD/svg10.dtd">
<!-- Creator: CorelDRAW X7 -->
<svg xmlns="http://www.w3.org/2000/svg" xml:space="preserve" width="100%" height="100%" version="1.0" shape-rendering="geometricPrecision" text-rendering="geometricPrecision" image-rendering="optimizeQuality" fill-rule="evenodd" clip-rule="evenodd"
viewBox="0 0 24750 11918"
 xmlns:xlink="http://www.w3.org/1999/xlink">
 <g id="Слой_x0020_1">
  <metadata id="CorelCorpID_0Corel-Layer"/>
  <line fill="none" stroke="#5D723D" stroke-width="21.91" stroke-linecap="round" stroke-linejoin="round" x1="23765" y1="3771" x2="21704" y2= "3771" />
  <polygon fill="#D9D9D9" points="19970,2004 19970,5539 20854,5539 20854,2004 "/>
  <polygon fill="none" stroke="black" stroke-width="21.91" stroke-linecap="round" stroke-linejoin="round" points="19970,2004 19970,5539 20854,5539 20854,2004 "/>
  <polygon fill="none" stroke="black" stroke-width="21.91" stroke-linecap="round" stroke-linejoin="round" points="20236,2225 20236,3109 20589,3109 20589,2225 "/>
  <path fill="none" stroke="black" stroke-width="21.91" stroke-linecap="round" stroke-linejoin="round" d="M20413 3550c121,0 220,99 220,221"/>
  <path fill="none" stroke="black" stroke-width="21.91" stroke-linecap="round" stroke-linejoin="round" d="M20633 3771c0,122 -99,222 -220,222"/>
  <path fill="none" stroke="black" stroke-width="21.91" stroke-linecap="round" stroke-linejoin="round" d="M20413 3993c121,0 220,98 220,220"/>
  <path fill="none" stroke="black" stroke-width="21.91" stroke-linecap="round" stroke-linejoin="round" d="M20633 4213c0,122 -99,221 -220,221"/>
  <path fill="none" stroke="black" stroke-width="21.91" stroke-linecap="round" stroke-linejoin="round" d="M20413 4434c121,0 220,99 220,221"/>
  <path fill="none" stroke="black" stroke-width="21.91" stroke-linecap="round" stroke-linejoin="round" d="M20633 4655c0,122 -99,220 -220,220"/>
  <path fill="none" stroke="black" stroke-width="21.91" stroke-linecap="round" stroke-linejoin="round" d="M20413 4875c121,0 220,100 220,221"/>
  <path fill="none" stroke="black" stroke-width="21.91" stroke-linecap="round" stroke-linejoin="round" d="M20633 5096c0,123 -99,222 -220,222"/>
  <line fill="none" stroke="black" stroke-width="21.91" stroke-linecap="round" stroke-linejoin="round" x1="20413" y1="3550" x2="20413" y2= "3109" />
  <line fill="none" stroke="#5D723D" stroke-width="21.91" stroke-linecap="round" stroke-linejoin="round" x1="1725" y1="3288" x2="1725" y2= "6896" />
  <path fill="#5D723D" d="M1725 7050l-101 -203c63,32 139,32 202,0l-101 203 0 0z"/>
  <line fill="none" stroke="#5D723D" stroke-width="21.91" stroke-linecap="round" stroke-linejoin="round" x1="21029" y1="4434" x2="21704" y2= "4434" />
  <path fill="#5D723D" d="M20876 4434l201 -101c-32,63 -32,138 0,202l-201 -101 0 0z"/>
  <line fill="none" stroke="black" stroke-width="21.91" stroke-linecap="round" stroke-linejoin="round" x1="7478" y1="1009" x2="7478" y2= "6531" />
  <line fill="none" stroke="black" stroke-width="21.91" stroke-linecap="round" stroke-linejoin="round" x1="20420" y1="1006" x2="7478" y2= "1006" />
  <line fill="none" stroke="black" stroke-width="21.91" stroke-linecap="round" stroke-linejoin="round" x1="7478" y1="6537" x2="20407" y2= "6537" />
  <polygon fill="#D9D9D9" points="7037,3329 7037,4213 7919,4213 7919,3329 "/>
  <polygon fill="none" stroke="black" stroke-width="21.91" stroke-linecap="round" stroke-linejoin="round" points="7037,3329 7037,4213 7919,4213 7919,3329 "/>
  <line fill="none" stroke="#5D723D" stroke-width="21.91" stroke-linecap="round" stroke-linejoin="round" x1="19118" y1="3771" x2="17170" y2= "3771" />
  <line fill="none" stroke="red" stroke-width="21.91" stroke-linecap="round" stroke-linejoin="round" x1="14566" y1="784" x2="14856" y2= "784" />
  <path fill="red" d="M15009 784l-203 101c32,-63 32,-138 0,-202l203 101 0 0z"/>
  <line fill="none" stroke="#5D723D" stroke-width="21.91" stroke-linecap="round" stroke-linejoin="round" x1="6344" y1="3771" x2="6883" y2= "3771" />
  <path fill="#5D723D" d="M7037 3771l-204 101c33,-63 33,-138 0,-202l204 101 0 0z"/>
  <line fill="none" stroke="#9E4A4C" stroke-width="21.91" stroke-linecap="round" stroke-linejoin="round" x1="13462" y1="1447" x2="13462" y2= "6890" />
  <path fill="#9E4A4C" d="M13462 7044l-101 -203c64,32 139,32 201,0l-100 203 0 0z"/>
  <polygon fill="#D9D9D9" points="13020,563 13020,1447 13904,1447 13904,563 "/>
  <polygon fill="none" stroke="black" stroke-width="21.91" stroke-linecap="round" stroke-linejoin="round" points="13020,563 13020,1447 13904,1447 13904,563 "/>
  <line fill="none" stroke="black" stroke-width="21.91" stroke-linecap="round" stroke-linejoin="round" x1="10129" y1="1006" x2="10129" y2= "6540" />
  <path fill="black" stroke="black" stroke-width="7.62" stroke-linecap="round" stroke-linejoin="round" d="M10191 1006c0,-35 -27,-63 -62,-63 -34,0 -62,28 -62,63 0,34 28,61 62,61 35,0 62,-27 62,-61z"/>
  <path fill="none" stroke="black" stroke-width="21.91" stroke-linecap="round" stroke-linejoin="round" d="M10191 1006c0,-35 -27,-63 -62,-63 -34,0 -62,28 -62,63 0,34 28,61 62,61 35,0 62,-27 62,-61"/>
  <path fill="black" stroke="black" stroke-width="7.62" stroke-linecap="round" stroke-linejoin="round" d="M10191 6537c0,-34 -27,-62 -62,-62 -34,0 -62,28 -62,62 0,35 28,61 62,61 35,0 62,-26 62,-61z"/>
  <path fill="none" stroke="black" stroke-width="21.91" stroke-linecap="round" stroke-linejoin="round" d="M10191 6537c0,-34 -27,-62 -62,-62 -34,0 -62,28 -62,62 0,35 28,61 62,61 35,0 62,-26 62,-61"/>
  <line fill="none" stroke="#F5EFE5" stroke-width="21.91" stroke-linecap="round" stroke-linejoin="round" x1="24739" y1="300" x2="24739" y2= "3793" />
  <line fill="none" stroke="#F5EFE5" stroke-width="21.91" stroke-linecap="round" stroke-linejoin="round" x1="18617" y1="11" x2="12103" y2= "11" />
  <line fill="none" stroke="#F5EFE5" stroke-width="21.91" stroke-linecap="round" stroke-linejoin="round" x1="11" y1="325" x2="11" y2= "3817" />
  <line fill="none" stroke="#F5EFE5" stroke-width="21.91" stroke-linecap="round" stroke-linejoin="round" x1="16758" y1="11907" x2="10242" y2= "11907" />
  <line fill="none" stroke="#5D723D" stroke-width="21.91" stroke-linecap="round" stroke-linejoin="round" x1="21786" y1="7754" x2="23509" y2= "7754" />
  <path fill="#5D723D" d="M21633 7754l201 -101c-32,63 -32,139 0,202l-201 -101 0 0z"/>
  <line fill="none" stroke="#5D723D" stroke-width="21.91" stroke-linecap="round" stroke-linejoin="round" x1="23509" y1="7754" x2="23510" y2= "9874" />
  <line fill="none" stroke="#9E4A4C" stroke-width="21.91" stroke-linecap="round" stroke-linejoin="round" x1="2220" y1="6160" x2="2220" y2= "6895" />
  <path fill="#9E4A4C" d="M2220 7047l-100 -202c62,32 138,32 201,0l-101 202 0 0z"/>
  <line fill="none" stroke="#9E4A4C" stroke-width="21.91" stroke-linecap="round" stroke-linejoin="round" x1="2220" y1="6160" x2="5312" y2= "6160" />
  <line fill="none" stroke="#9E4A4C" stroke-width="21.91" stroke-linecap="round" stroke-linejoin="round" x1="5312" y1="6160" x2="5312" y2= "7497" />
  <line fill="none" stroke="black" stroke-width="21.91" stroke-linecap="round" stroke-linejoin="round" x1="20413" y1="2225" x2="20413" y2= "1006" />
  <line fill="none" stroke="black" stroke-width="21.91" stroke-linecap="round" stroke-linejoin="round" x1="20413" y1="6531" x2="20413" y2= "5306" />
  <line fill="none" stroke="#5D723D" stroke-width="21.91" stroke-linecap="round" stroke-linejoin="round" x1="19818" y1="2666" x2="19118" y2= "2666" />
  <path fill="#5D723D" d="M19970 2666l-202 102c32,-64 32,-139 0,-203l202 101 0 0z"/>
  <line fill="none" stroke="#5D723D" stroke-width="21.91" stroke-linecap="round" stroke-linejoin="round" x1="19119" y1="2665" x2="19119" y2= "3771" />
  <line fill="none" stroke="#5D723D" stroke-width="21.91" stroke-linecap="round" stroke-linejoin="round" x1="21699" y1="3778" x2="21699" y2= "4438" />
 </g>
</svg>
