<?xml version="1.0" encoding="UTF-8"?>
<!DOCTYPE svg PUBLIC "-//W3C//DTD SVG 1.0//EN" "http://www.w3.org/TR/2001/REC-SVG-20010904/DTD/svg10.dtd">
<!-- Creator: CorelDRAW X7 -->
<svg xmlns="http://www.w3.org/2000/svg" xml:space="preserve" width="100%" height="100%" version="1.0" shape-rendering="geometricPrecision" text-rendering="geometricPrecision" image-rendering="optimizeQuality" fill-rule="evenodd" clip-rule="evenodd"
viewBox="0 0 24750 11918"
 xmlns:xlink="http://www.w3.org/1999/xlink">
 <g id="Слой_x0020_1">
  <metadata id="CorelCorpID_0Corel-Layer"/>
  <line fill="none" stroke="#5D723D" stroke-width="21.91" stroke-linecap="round" stroke-linejoin="round" x1="1725" y1="3288" x2="1725" y2= "6896" />
  <path fill="#5D723D" d="M1725 7050l-101 -203c63,32 139,32 202,0l-101 203 0 0z"/>
  <line fill="none" stroke="#5D723D" stroke-width="21.91" stroke-linecap="round" stroke-linejoin="round" x1="22241" y1="3771" x2="23101" y2= "3771" />
  <path fill="#5D723D" d="M22087 3771l202 -101c-31,64 -31,139 0,202l-202 -101 0 0z"/>
  <line fill="none" stroke="black" stroke-width="21.91" stroke-linecap="round" stroke-linejoin="round" x1="7478" y1="1009" x2="7478" y2= "6531" />
  <line fill="none" stroke="black" stroke-width="21.91" stroke-linecap="round" stroke-linejoin="round" x1="21593" y1="1006" x2="7478" y2= "1006" />
  <line fill="none" stroke="black" stroke-width="21.91" stroke-linecap="round" stroke-linejoin="round" x1="7478" y1="6537" x2="21599" y2= "6537" />
  <polygon fill="#D9D9D9" points="7037,3329 7037,4213 7919,4213 7919,3329 "/>
  <polygon fill="none" stroke="black" stroke-width="21.91" stroke-linecap="round" stroke-linejoin="round" points="7037,3329 7037,4213 7919,4213 7919,3329 "/>
  <line fill="none" stroke="black" stroke-width="21.91" stroke-linecap="round" stroke-linejoin="round" x1="21595" y1="3657" x2="21595" y2= "1006" />
  <line fill="none" stroke="black" stroke-width="21.91" stroke-linecap="round" stroke-linejoin="round" x1="21595" y1="3892" x2="21595" y2= "6528" />
  <line fill="none" stroke="#5D723D" stroke-width="21.91" stroke-linecap="round" stroke-linejoin="round" x1="20933" y1="3771" x2="19540" y2= "3771" />
  <path fill="#5D723D" d="M21086 3771l-201 101c30,-63 30,-138 0,-202l201 101 0 0z"/>
  <line fill="none" stroke="red" stroke-width="21.91" stroke-linecap="round" stroke-linejoin="round" x1="12779" y1="784" x2="13068" y2= "784" />
  <path fill="red" d="M13222 784l-202 101c31,-63 31,-138 0,-202l202 101 0 0z"/>
  <polygon fill="#D9D9D9" points="14083,721 14083,1290 15453,1290 15453,721 "/>
  <polygon fill="none" stroke="black" stroke-width="21.91" stroke-linecap="round" stroke-linejoin="round" points="14083,1290 15453,1290 15453,721 14083,721 "/>
  <line fill="none" stroke="#00B050" stroke-width="21.91" stroke-linecap="round" stroke-linejoin="round" x1="14768" y1="2893" x2="14768" y2= "1488" />
  <path fill="#00B050" d="M14768 1335l101 201c-63,-30 -139,-30 -202,0l101 -201 0 0z"/>
  <line fill="none" stroke="black" stroke-width="21.91" stroke-linecap="round" stroke-linejoin="round" x1="17110" y1="1006" x2="17110" y2= "6522" />
  <path fill="black" stroke="black" stroke-width="7.62" stroke-linecap="round" stroke-linejoin="round" d="M17172 6537c0,-34 -28,-62 -62,-62 -35,0 -63,28 -63,62 0,35 28,61 63,61 34,0 62,-26 62,-61z"/>
  <path fill="none" stroke="black" stroke-width="21.91" stroke-linecap="round" stroke-linejoin="round" d="M17172 6537c0,-34 -28,-62 -62,-62 -35,0 -63,28 -63,62 0,35 28,61 63,61 34,0 62,-26 62,-61"/>
  <path fill="black" stroke="black" stroke-width="7.62" stroke-linecap="round" stroke-linejoin="round" d="M17172 1006c0,-35 -28,-63 -62,-63 -35,0 -63,28 -63,63 0,34 28,61 63,61 34,0 62,-27 62,-61z"/>
  <path fill="none" stroke="black" stroke-width="21.91" stroke-linecap="round" stroke-linejoin="round" d="M17172 1006c0,-35 -28,-63 -62,-63 -35,0 -63,28 -63,63 0,34 28,61 63,61 34,0 62,-27 62,-61"/>
  <line fill="none" stroke="#5D723D" stroke-width="21.91" stroke-linecap="round" stroke-linejoin="round" x1="6344" y1="3771" x2="6883" y2= "3771" />
  <path fill="#5D723D" d="M7037 3771l-204 101c33,-63 33,-138 0,-202l204 101 0 0z"/>
  <line fill="none" stroke="#9E4A4C" stroke-width="21.91" stroke-linecap="round" stroke-linejoin="round" x1="17993" y1="3778" x2="17993" y2= "6898" />
  <path fill="#9E4A4C" d="M17993 7050l-101 -202c64,32 139,32 202,0l-101 202 0 0z"/>
  <line fill="none" stroke="#9E4A4C" stroke-width="21.91" stroke-linecap="round" stroke-linejoin="round" x1="11676" y1="1447" x2="11676" y2= "6890" />
  <path fill="#9E4A4C" d="M11676 7044l-102 -203c64,32 138,32 203,0l-101 203 0 0z"/>
  <polygon fill="#D9D9D9" points="11233,563 11233,1447 12117,1447 12117,563 "/>
  <polygon fill="none" stroke="black" stroke-width="21.91" stroke-linecap="round" stroke-linejoin="round" points="11233,563 11233,1447 12117,1447 12117,563 "/>
  <polygon fill="#D9D9D9" points="16668,3329 16668,4213 17552,4213 17552,3329 "/>
  <polygon fill="none" stroke="black" stroke-width="21.91" stroke-linecap="round" stroke-linejoin="round" points="16668,3329 16668,4213 17552,4213 17552,3329 "/>
  <line fill="none" stroke="#9E4A4C" stroke-width="21.91" stroke-linecap="round" stroke-linejoin="round" x1="17993" y1="3771" x2="17552" y2= "3771" />
  <line fill="none" stroke="#433AB7" stroke-width="21.91" stroke-linecap="round" stroke-linejoin="round" x1="14327" y1="502" x2="15057" y2= "502" />
  <path fill="#433AB7" d="M15209 502l-201 101c32,-65 32,-139 0,-202l201 101 0 0z"/>
  <line fill="none" stroke="black" stroke-width="21.91" stroke-linecap="round" stroke-linejoin="round" x1="10129" y1="1006" x2="10129" y2= "6540" />
  <path fill="black" stroke="black" stroke-width="7.62" stroke-linecap="round" stroke-linejoin="round" d="M10191 1006c0,-35 -27,-63 -62,-63 -34,0 -62,28 -62,63 0,34 28,61 62,61 35,0 62,-27 62,-61z"/>
  <path fill="none" stroke="black" stroke-width="21.91" stroke-linecap="round" stroke-linejoin="round" d="M10191 1006c0,-35 -27,-63 -62,-63 -34,0 -62,28 -62,63 0,34 28,61 62,61 35,0 62,-27 62,-61"/>
  <path fill="black" stroke="black" stroke-width="7.62" stroke-linecap="round" stroke-linejoin="round" d="M10191 6537c0,-34 -27,-62 -62,-62 -34,0 -62,28 -62,62 0,35 28,61 62,61 35,0 62,-26 62,-61z"/>
  <path fill="none" stroke="black" stroke-width="21.91" stroke-linecap="round" stroke-linejoin="round" d="M10191 6537c0,-34 -27,-62 -62,-62 -34,0 -62,28 -62,62 0,35 28,61 62,61 35,0 62,-26 62,-61"/>
  <line fill="none" stroke="#F5EFE5" stroke-width="21.91" stroke-linecap="round" stroke-linejoin="round" x1="24739" y1="300" x2="24739" y2= "3793" />
  <line fill="none" stroke="#F5EFE5" stroke-width="21.91" stroke-linecap="round" stroke-linejoin="round" x1="18617" y1="11" x2="12103" y2= "11" />
  <line fill="none" stroke="#F5EFE5" stroke-width="21.91" stroke-linecap="round" stroke-linejoin="round" x1="11" y1="325" x2="11" y2= "3817" />
  <line fill="none" stroke="#F5EFE5" stroke-width="21.91" stroke-linecap="round" stroke-linejoin="round" x1="16758" y1="11907" x2="10242" y2= "11907" />
  <line fill="none" stroke="black" stroke-width="21.91" stroke-linecap="round" stroke-linejoin="round" x1="22058" y1="3667" x2="21130" y2= "3667" />
  <line fill="none" stroke="black" stroke-width="21.91" stroke-linecap="round" stroke-linejoin="round" x1="22058" y1="3882" x2="21130" y2= "3882" />
  <line fill="none" stroke="#5D723D" stroke-width="21.91" stroke-linecap="round" stroke-linejoin="round" x1="21786" y1="7754" x2="23509" y2= "7754" />
  <path fill="#5D723D" d="M21633 7754l201 -101c-32,63 -32,139 0,202l-201 -101 0 0z"/>
  <line fill="none" stroke="#5D723D" stroke-width="21.91" stroke-linecap="round" stroke-linejoin="round" x1="23509" y1="7754" x2="23510" y2= "9874" />
  <line fill="none" stroke="#9E4A4C" stroke-width="21.91" stroke-linecap="round" stroke-linejoin="round" x1="2220" y1="6160" x2="2220" y2= "6895" />
  <path fill="#9E4A4C" d="M2220 7047l-100 -202c62,32 138,32 201,0l-101 202 0 0z"/>
  <line fill="none" stroke="#9E4A4C" stroke-width="21.91" stroke-linecap="round" stroke-linejoin="round" x1="2220" y1="6160" x2="5312" y2= "6160" />
  <line fill="none" stroke="#9E4A4C" stroke-width="21.91" stroke-linecap="round" stroke-linejoin="round" x1="5312" y1="6160" x2="5312" y2= "7497" />
  <line fill="none" stroke="#00B0F0" stroke-width="21.91" stroke-linecap="round" stroke-linejoin="round" x1="16226" y1="1833" x2="16226" y2= "5657" />
  <path fill="#00B0F0" d="M16226 5811l-101 -204c63,33 138,33 202,0l-101 204 0 0z"/>
 </g>
</svg>
