<?xml version="1.0" encoding="UTF-8"?>
<!DOCTYPE svg PUBLIC "-//W3C//DTD SVG 1.0//EN" "http://www.w3.org/TR/2001/REC-SVG-20010904/DTD/svg10.dtd">
<!-- Creator: CorelDRAW X7 -->
<svg xmlns="http://www.w3.org/2000/svg" xml:space="preserve" width="100%" height="100%" version="1.0" shape-rendering="geometricPrecision" text-rendering="geometricPrecision" image-rendering="optimizeQuality" fill-rule="evenodd" clip-rule="evenodd"
viewBox="0 0 21000 5252"
 xmlns:xlink="http://www.w3.org/1999/xlink">
 <g id="Слой_x0020_1">
  <metadata id="CorelCorpID_0Corel-Layer"/>
  <line fill="none" stroke="#F44336" stroke-width="19.32" stroke-linecap="round" stroke-linejoin="round" x1="6270" y1="2639" x2="6524" y2= "2639" />
  <path fill="#F44336" d="M6659 2639l-178 89c27,-56 27,-122 0,-179l178 90 0 0z"/>
  <line fill="none" stroke="black" stroke-width="19.32" stroke-linecap="round" stroke-linejoin="round" x1="2695" y1="2444" x2="16800" y2= "2444" />
  <polygon fill="#D9D9D9" points="15035,2186 15035,2702 16325,2702 16325,2186 "/>
  <polygon fill="none" stroke="black" stroke-width="19.32" stroke-linecap="round" stroke-linejoin="round" points="16325,2186 15035,2186 15035,2702 16325,2702 "/>
  <path fill="black" stroke="black" stroke-width="6.71" stroke-linecap="round" stroke-linejoin="round" d="M10998 2444c0,-30 -24,-55 -54,-55 -30,0 -54,25 -54,55 0,31 24,55 54,55 30,0 54,-24 54,-55z"/>
  <path fill="none" stroke="black" stroke-width="19.32" stroke-linecap="round" stroke-linejoin="round" d="M10998 2444c0,-30 -24,-55 -54,-55 -30,0 -54,25 -54,55 0,31 24,55 54,55 30,0 54,-24 54,-55"/>
  <path fill="black" stroke="black" stroke-width="6.71" stroke-linecap="round" stroke-linejoin="round" d="M16843 2444c0,-30 -25,-55 -56,-55 -29,0 -54,25 -54,55 0,31 25,55 54,55 31,0 56,-24 56,-55z"/>
  <path fill="none" stroke="black" stroke-width="19.32" stroke-linecap="round" stroke-linejoin="round" d="M16843 2444c0,-30 -25,-55 -56,-55 -29,0 -54,25 -54,55 0,31 25,55 54,55 31,0 56,-24 56,-55"/>
  <line fill="none" stroke="black" stroke-width="19.32" stroke-linecap="round" stroke-linejoin="round" x1="2695" y1="4782" x2="16785" y2= "4782" />
  <line fill="none" stroke="black" stroke-width="19.32" stroke-linecap="round" stroke-linejoin="round" x1="8607" y1="3612" x2="10944" y2= "3612" />
  <line fill="none" stroke="black" stroke-width="19.32" stroke-linecap="round" stroke-linejoin="round" x1="9777" y1="4782" x2="9777" y2= "1470" />
  <line fill="none" stroke="black" stroke-width="19.32" stroke-linecap="round" stroke-linejoin="round" x1="2906" y1="496" x2="16790" y2= "496" />
  <line fill="none" stroke="black" stroke-width="19.32" stroke-linecap="round" stroke-linejoin="round" x1="2695" y1="1470" x2="16800" y2= "1470" />
  <line fill="none" stroke="black" stroke-width="19.32" stroke-linecap="round" stroke-linejoin="round" x1="8607" y1="3612" x2="8607" y2= "496" />
  <line fill="none" stroke="black" stroke-width="19.32" stroke-linecap="round" stroke-linejoin="round" x1="10944" y1="3612" x2="10944" y2= "2444" />
  <polygon fill="#D9D9D9" points="15035,238 15035,754 16325,754 16325,238 "/>
  <polygon fill="none" stroke="black" stroke-width="19.32" stroke-linecap="round" stroke-linejoin="round" points="16325,238 15035,238 15035,754 16325,754 "/>
  <polygon fill="#D9D9D9" points="15035,1212 15035,1728 16325,1728 16325,1212 "/>
  <polygon fill="none" stroke="black" stroke-width="19.32" stroke-linecap="round" stroke-linejoin="round" points="16325,1212 15035,1212 15035,1728 16325,1728 "/>
  <line fill="none" stroke="black" stroke-width="19.32" stroke-linecap="round" stroke-linejoin="round" x1="16787" y1="4782" x2="16787" y2= "496" />
  <path fill="black" stroke="black" stroke-width="6.71" stroke-linecap="round" stroke-linejoin="round" d="M8661 496c0,-31 -24,-55 -54,-55 -31,0 -55,24 -55,55 0,30 24,55 55,55 30,0 54,-25 54,-55z"/>
  <path fill="none" stroke="black" stroke-width="19.32" stroke-linecap="round" stroke-linejoin="round" d="M8661 496c0,-31 -24,-55 -54,-55 -31,0 -55,24 -55,55 0,30 24,55 55,55 30,0 54,-25 54,-55"/>
  <path fill="black" stroke="black" stroke-width="6.71" stroke-linecap="round" stroke-linejoin="round" d="M9829 1470c0,-30 -23,-55 -53,-55 -31,0 -55,25 -55,55 0,30 24,55 55,55 30,0 53,-25 53,-55z"/>
  <path fill="none" stroke="black" stroke-width="19.32" stroke-linecap="round" stroke-linejoin="round" d="M9829 1470c0,-30 -23,-55 -53,-55 -31,0 -55,25 -55,55 0,30 24,55 55,55 30,0 53,-25 53,-55"/>
  <path fill="black" stroke="black" stroke-width="6.71" stroke-linecap="round" stroke-linejoin="round" d="M9832 3617c0,-31 -24,-55 -55,-55 -29,0 -54,24 -54,55 0,30 25,54 54,54 31,0 55,-24 55,-54z"/>
  <path fill="none" stroke="black" stroke-width="19.32" stroke-linecap="round" stroke-linejoin="round" d="M9832 3617c0,-31 -24,-55 -55,-55 -29,0 -54,24 -54,55 0,30 25,54 54,54 31,0 55,-24 55,-54"/>
  <path fill="black" stroke="black" stroke-width="6.71" stroke-linecap="round" stroke-linejoin="round" d="M9829 4782c0,-31 -25,-56 -55,-56 -31,0 -54,25 -54,56 0,30 23,54 54,54 30,0 55,-24 55,-54z"/>
  <path fill="none" stroke="black" stroke-width="19.32" stroke-linecap="round" stroke-linejoin="round" d="M9829 4782c0,-31 -25,-56 -55,-56 -31,0 -54,25 -54,56 0,30 23,54 54,54 30,0 55,-24 55,-54"/>
  <path fill="black" stroke="black" stroke-width="6.71" stroke-linecap="round" stroke-linejoin="round" d="M16843 1470c0,-30 -25,-55 -56,-55 -29,0 -54,25 -54,55 0,30 25,55 54,55 31,0 56,-25 56,-55z"/>
  <path fill="none" stroke="black" stroke-width="19.32" stroke-linecap="round" stroke-linejoin="round" d="M16843 1470c0,-30 -25,-55 -56,-55 -29,0 -54,25 -54,55 0,30 25,55 54,55 31,0 56,-25 56,-55"/>
  <line fill="none" stroke="#FFC107" stroke-width="19.32" stroke-linecap="round" stroke-linejoin="round" x1="6270" y1="691" x2="6524" y2= "691" />
  <path fill="#FFC107" d="M6659 691l-178 90c27,-58 27,-124 0,-179l178 89 0 0z"/>
  <line fill="none" stroke="#4CAF60" stroke-width="19.32" stroke-linecap="round" stroke-linejoin="round" x1="6270" y1="1665" x2="6524" y2= "1665" />
  <path fill="#4CAF60" d="M6659 1665l-178 89c27,-57 27,-123 0,-178l178 89 0 0z"/>
  <line fill="none" stroke="#2196F3" stroke-width="19.32" stroke-linecap="round" stroke-linejoin="round" x1="6659" y1="4586" x2="6404" y2= "4586" />
  <path fill="#2196F3" d="M6270 4586l178 -89c-29,57 -29,123 0,179l-178 -90 0 0z"/>
  <line fill="none" stroke="#FFC107" stroke-width="19.32" stroke-linecap="round" stroke-linejoin="round" x1="14450" y1="691" x2="14705" y2= "691" />
  <path fill="#FFC107" d="M14840 691l-179 90c29,-58 29,-124 0,-179l179 89 0 0z"/>
  <line fill="none" stroke="#4CAF60" stroke-width="19.32" stroke-linecap="round" stroke-linejoin="round" x1="14450" y1="1665" x2="14705" y2= "1665" />
  <path fill="#4CAF60" d="M14840 1665l-179 89c29,-57 29,-123 0,-178l179 89 0 0z"/>
  <line fill="none" stroke="#F44336" stroke-width="19.32" stroke-linecap="round" stroke-linejoin="round" x1="14450" y1="2639" x2="14705" y2= "2639" />
  <path fill="#F44336" d="M14840 2639l-179 89c29,-56 29,-122 0,-179l179 90 0 0z"/>
  <line fill="none" stroke="#00B050" stroke-width="19.32" stroke-linecap="round" stroke-linejoin="round" x1="15680" y1="1095" x2="15680" y2= "890" />
  <path fill="#00B050" d="M15680 754l89 178c-56,-28 -122,-28 -179,0l90 -178 0 0z"/>
  <line fill="none" stroke="#00B050" stroke-width="19.32" stroke-linecap="round" stroke-linejoin="round" x1="15680" y1="2072" x2="15680" y2= "1867" />
  <path fill="#00B050" d="M15680 1733l89 177c-56,-27 -122,-27 -179,0l90 -177 0 0z"/>
  <line fill="none" stroke="#00B050" stroke-width="19.32" stroke-linecap="round" stroke-linejoin="round" x1="15680" y1="3819" x2="15680" y2= "2847" />
  <path fill="#00B050" d="M15680 2711l89 178c-56,-26 -122,-26 -179,0l90 -178 0 0z"/>
  <line fill="none" stroke="#00B050" stroke-width="19.32" stroke-linecap="round" stroke-linejoin="round" x1="15680" y1="2072" x2="16951" y2= "2072" />
  <line fill="none" stroke="#00B050" stroke-width="19.32" stroke-linecap="round" stroke-linejoin="round" x1="16951" y1="2072" x2="16951" y2= "2638" />
  <line fill="none" stroke="#F5EFE5" stroke-width="19.32" stroke-linecap="round" stroke-linejoin="round" x1="20990" y1="2001" x2="20990" y2= "5081" />
  <line fill="none" stroke="#F5EFE5" stroke-width="19.32" stroke-linecap="round" stroke-linejoin="round" x1="15648" y1="10" x2="9903" y2= "10" />
  <line fill="none" stroke="#00B050" stroke-width="19.32" stroke-linecap="round" stroke-linejoin="round" x1="1285" y1="2639" x2="2026" y2= "2639" />
  <path fill="#00B050" d="M2160 2639l-177 89c28,-56 28,-122 0,-179l177 90 0 0z"/>
  <line fill="none" stroke="#F5EFE5" stroke-width="19.32" stroke-linecap="round" stroke-linejoin="round" x1="10" y1="2022" x2="10" y2= "5103" />
  <polygon fill="#D9D9D9" points="2180,35 2180,5242 2958,5242 2958,35 "/>
  <polygon fill="none" stroke="black" stroke-width="19.32" stroke-linecap="round" stroke-linejoin="round" points="2958,35 2180,35 2180,5242 2958,5242 "/>
  <polygon fill="black" fill-rule="nonzero" points="2671,2786 2643,2786 2643,2599 2517,2786 2486,2786 2486,2549 2514,2549 2514,2736 2640,2549 2671,2549 "/>
  <path fill="none" fill-rule="nonzero" stroke="black" stroke-width="19.32" stroke-linecap="round" stroke-linejoin="round" d="M2413 427c0,-42 34,-77 78,-77"/>
  <path fill="none" fill-rule="nonzero" stroke="black" stroke-width="19.32" stroke-linecap="round" stroke-linejoin="round" d="M2491 350c42,0 78,35 78,77"/>
  <path fill="none" fill-rule="nonzero" stroke="black" stroke-width="19.32" stroke-linecap="round" stroke-linejoin="round" d="M2569 427c0,43 34,77 78,77"/>
  <path fill="none" fill-rule="nonzero" stroke="black" stroke-width="19.32" stroke-linecap="round" stroke-linejoin="round" d="M2647 504c36,8 71,-19 76,-58 1,-6 1,-12 1,-19"/>
  <path fill="none" fill-rule="nonzero" stroke="black" stroke-width="19.32" stroke-linecap="round" stroke-linejoin="round" d="M2413 583c0,-44 34,-79 78,-79"/>
  <path fill="none" fill-rule="nonzero" stroke="black" stroke-width="19.32" stroke-linecap="round" stroke-linejoin="round" d="M2491 504c42,0 78,35 78,79"/>
  <path fill="none" fill-rule="nonzero" stroke="black" stroke-width="19.32" stroke-linecap="round" stroke-linejoin="round" d="M2569 583c0,43 34,77 78,77"/>
  <path fill="none" fill-rule="nonzero" stroke="black" stroke-width="19.32" stroke-linecap="round" stroke-linejoin="round" d="M2647 660c36,8 71,-19 76,-58 1,-6 1,-12 1,-19"/>
  <path fill="none" fill-rule="nonzero" stroke="black" stroke-width="19.32" stroke-linecap="round" stroke-linejoin="round" d="M2413 737c0,-42 34,-77 78,-77"/>
  <path fill="none" fill-rule="nonzero" stroke="black" stroke-width="19.32" stroke-linecap="round" stroke-linejoin="round" d="M2491 660c42,0 78,35 78,77"/>
  <path fill="none" fill-rule="nonzero" stroke="black" stroke-width="19.32" stroke-linecap="round" stroke-linejoin="round" d="M2569 737c0,44 34,80 78,80"/>
  <path fill="none" fill-rule="nonzero" stroke="black" stroke-width="19.32" stroke-linecap="round" stroke-linejoin="round" d="M2647 817c36,6 71,-20 76,-60 1,-6 1,-13 1,-20"/>
  <line fill="none" fill-rule="nonzero" stroke="#00B050" stroke-width="19.32" stroke-linecap="round" stroke-linejoin="round" x1="15680" y1="1093" x2="17340" y2= "1093" />
  <line fill="none" fill-rule="nonzero" stroke="#00B050" stroke-width="19.32" stroke-linecap="round" stroke-linejoin="round" x1="15680" y1="3816" x2="17340" y2= "3816" />
  <line fill="none" fill-rule="nonzero" stroke="#00B050" stroke-width="19.32" stroke-linecap="round" stroke-linejoin="round" x1="16952" y1="2639" x2="19287" y2= "2639" />
  <line fill="none" fill-rule="nonzero" stroke="black" stroke-width="19.32" stroke-linecap="round" stroke-linejoin="round" x1="7031" y1="4782" x2="6853" y2= "4782" />
  <line fill="none" fill-rule="nonzero" stroke="black" stroke-width="19.32" stroke-linecap="round" stroke-linejoin="round" x1="7439" y1="4782" x2="7633" y2= "4782" />
  <line fill="none" fill-rule="nonzero" stroke="#2196F3" stroke-width="19.32" stroke-linecap="round" stroke-linejoin="round" x1="14840" y1="4586" x2="14585" y2= "4586" />
  <path fill="#2196F3" d="M14450 4586l178 -89c-27,57 -27,123 0,179l-178 -90 0 0z"/>
 </g>
</svg>
