<?xml version="1.0" encoding="UTF-8"?>
<!DOCTYPE svg PUBLIC "-//W3C//DTD SVG 1.0//EN" "http://www.w3.org/TR/2001/REC-SVG-20010904/DTD/svg10.dtd">
<!-- Creator: CorelDRAW X7 -->
<svg xmlns="http://www.w3.org/2000/svg" xml:space="preserve" width="100%" height="100%" version="1.0" shape-rendering="geometricPrecision" text-rendering="geometricPrecision" image-rendering="optimizeQuality" fill-rule="evenodd" clip-rule="evenodd"
viewBox="0 0 1809 1809"
 xmlns:xlink="http://www.w3.org/1999/xlink">
 <g id="Слой_x0020_1">
  <metadata id="CorelCorpID_0Corel-Layer"/>
  <path fill="#D9D9D9" stroke="black" stroke-width="7.62" stroke-linecap="round" stroke-linejoin="round" d="M905 1798c493,0 893,-400 893,-893 0,-494 -400,-894 -893,-894 -494,0 -894,400 -894,894 0,493 400,893 894,893z"/>
  <path fill="none" stroke="black" stroke-width="22.15" stroke-linecap="round" stroke-linejoin="round" d="M905 1798c493,0 893,-400 893,-893 0,-494 -400,-894 -893,-894 -494,0 -894,400 -894,894 0,493 400,893 894,893"/>
  <path fill="none" stroke="black" stroke-width="22.15" stroke-linecap="round" stroke-linejoin="round" d="M1057 481c177,63 294,232 294,419"/>
  <path fill="black" stroke="black" stroke-width="7.62" stroke-linecap="round" stroke-linejoin="round" d="M905 454l218 -65c-43,58 -56,132 -35,201l-183 -136 0 0z"/>
 </g>
</svg>
