<?xml version="1.0" encoding="UTF-8"?>
<!DOCTYPE svg PUBLIC "-//W3C//DTD SVG 1.0//EN" "http://www.w3.org/TR/2001/REC-SVG-20010904/DTD/svg10.dtd">
<!-- Creator: CorelDRAW X7 -->
<svg xmlns="http://www.w3.org/2000/svg" xml:space="preserve" width="100%" height="100%" version="1.0" shape-rendering="geometricPrecision" text-rendering="geometricPrecision" image-rendering="optimizeQuality" fill-rule="evenodd" clip-rule="evenodd"
viewBox="0 0 1367 1367"
 xmlns:xlink="http://www.w3.org/1999/xlink">
 <g id="Слой_x0020_1">
  <metadata id="CorelCorpID_0Corel-Layer"/>
  <path fill="#D9D9D9" stroke="black" stroke-width="7.62" stroke-linecap="round" stroke-linejoin="round" d="M1356 683c0,-372 -302,-672 -673,-672 -372,2 -672,303 -672,673 2,373 303,674 673,672 373,0 674,-302 672,-673z"/>
  <path fill="none" stroke="black" stroke-width="22.24" stroke-linecap="round" stroke-linejoin="round" d="M1356 683c0,-372 -302,-672 -673,-672 -372,2 -672,303 -672,673 2,373 303,674 673,672 373,0 674,-302 672,-673"/>
  <line fill="none" stroke="black" stroke-width="22.24" stroke-linecap="round" stroke-linejoin="round" x1="11" y1="679" x2="1352" y2= "679" />
  <line fill="none" stroke="black" stroke-width="22.24" stroke-linecap="round" stroke-linejoin="round" x1="11" y1="679" x2="1352" y2= "679" />
  <line fill="none" stroke="black" stroke-width="22.24" stroke-linecap="round" stroke-linejoin="round" x1="36" y1="858" x2="1331" y2= "511" />
  <line fill="none" stroke="black" stroke-width="22.24" stroke-linecap="round" stroke-linejoin="round" x1="36" y1="511" x2="1331" y2= "858" />
  <line fill="none" stroke="black" stroke-width="22.24" stroke-linecap="round" stroke-linejoin="round" x1="103" y1="349" x2="1264" y2= "1020" />
  <line fill="none" stroke="black" stroke-width="22.24" stroke-linecap="round" stroke-linejoin="round" x1="210" y1="210" x2="1158" y2= "1158" />
  <line fill="none" stroke="black" stroke-width="22.24" stroke-linecap="round" stroke-linejoin="round" x1="349" y1="103" x2="1020" y2= "1264" />
  <line fill="none" stroke="black" stroke-width="22.24" stroke-linecap="round" stroke-linejoin="round" x1="103" y1="1020" x2="1264" y2= "349" />
  <line fill="none" stroke="black" stroke-width="22.24" stroke-linecap="round" stroke-linejoin="round" x1="210" y1="1158" x2="1158" y2= "210" />
  <line fill="none" stroke="black" stroke-width="22.24" stroke-linecap="round" stroke-linejoin="round" x1="349" y1="1264" x2="1020" y2= "103" />
  <line fill="none" stroke="black" stroke-width="22.24" stroke-linecap="round" stroke-linejoin="round" x1="511" y1="1331" x2="858" y2= "36" />
  <line fill="none" stroke="black" stroke-width="22.24" stroke-linecap="round" stroke-linejoin="round" x1="511" y1="36" x2="858" y2= "1331" />
  <line fill="none" stroke="black" stroke-width="22.24" stroke-linecap="round" stroke-linejoin="round" x1="684" y1="11" x2="684" y2= "1356" />
  <path fill="#D9D9D9" stroke="black" stroke-width="7.62" stroke-linecap="round" stroke-linejoin="round" d="M1301 683c-1,-341 -277,-617 -618,-616 -341,0 -617,278 -616,617 0,342 278,617 617,617 342,-1 617,-277 617,-618z"/>
  <path fill="none" stroke="black" stroke-width="22.24" stroke-linecap="round" stroke-linejoin="round" d="M1301 683c-1,-341 -277,-617 -618,-616 -341,0 -617,278 -616,617 0,342 278,617 617,617 342,-1 617,-277 617,-618"/>
  <path fill="none" stroke="black" stroke-width="22.24" stroke-linecap="round" stroke-linejoin="round" d="M1089 779c0,-227 -148,-428 -365,-495"/>
  <path fill="black" stroke="black" stroke-width="7.62" stroke-linecap="round" stroke-linejoin="round" d="M570 260l218 -71c-41,59 -52,135 -29,203l-189 -132 0 0z"/>
 </g>
</svg>
