<?xml version="1.0" encoding="UTF-8"?>
<!DOCTYPE svg PUBLIC "-//W3C//DTD SVG 1.0//EN" "http://www.w3.org/TR/2001/REC-SVG-20010904/DTD/svg10.dtd">
<!-- Creator: CorelDRAW X7 -->
<svg xmlns="http://www.w3.org/2000/svg" xml:space="preserve" width="100%" height="100%" version="1.0" shape-rendering="geometricPrecision" text-rendering="geometricPrecision" image-rendering="optimizeQuality" fill-rule="evenodd" clip-rule="evenodd"
viewBox="0 0 23817 11918"
 xmlns:xlink="http://www.w3.org/1999/xlink">
 <g id="Слой_x0020_1">
  <metadata id="CorelCorpID_0Corel-Layer"/>
  <line fill="none" stroke="#F5EFE5" stroke-width="21.91" stroke-linecap="round" stroke-linejoin="round" x1="23806" y1="300" x2="23806" y2= "3793" />
  <line fill="none" stroke="#F5EFE5" stroke-width="21.91" stroke-linecap="round" stroke-linejoin="round" x1="17685" y1="11" x2="11169" y2= "11" />
  <line fill="none" stroke="#F5EFE5" stroke-width="21.91" stroke-linecap="round" stroke-linejoin="round" x1="11" y1="325" x2="11" y2= "3817" />
  <line fill="none" stroke="#F5EFE5" stroke-width="21.91" stroke-linecap="round" stroke-linejoin="round" x1="15826" y1="11907" x2="9310" y2= "11907" />
  <line fill="none" stroke="black" stroke-width="21.91" stroke-linecap="round" stroke-linejoin="round" x1="9521" y1="8065" x2="9521" y2= "4547" />
  <polygon fill="#D9D9D9" points="4438,5416 4438,7184 6207,7184 6207,5416 "/>
  <polygon fill="none" stroke="black" stroke-width="21.91" stroke-linecap="round" stroke-linejoin="round" points="4438,5416 4438,7184 6207,7184 6207,5416 "/>
  <polygon fill="#D9D9D9" points="14160,5859 14160,6741 15044,6741 15044,5859 "/>
  <polygon fill="none" stroke="black" stroke-width="21.91" stroke-linecap="round" stroke-linejoin="round" points="14160,5859 14160,6741 15044,6741 15044,5859 "/>
  <path fill="black" stroke="black" stroke-width="7.62" stroke-linejoin="round" d="M11062 6312l-158 0c-5,0 -10,-6 -10,-12 0,-6 5,-12 10,-12l158 0c6,0 12,6 12,12 0,6 -6,12 -12,12l0 0zm-269 0l-157 0c-6,0 -12,-6 -12,-12 0,-6 6,-12 12,-12l157 0c6,0 11,6 11,12 0,6 -5,12 -11,12l0 0zm-270 0l-156 0c-8,0 -12,-6 -12,-12 0,-6 4,-12 12,-12l156 0c6,0 12,6 12,12 0,6 -6,12 -12,12l0 0zm-269 0l-158 0c-5,0 -10,-6 -10,-12 0,-6 5,-12 10,-12l158 0c6,0 12,6 12,12 0,6 -6,12 -12,12l0 0zm-269 0l-158 0c-5,0 -11,-6 -11,-12 0,-6 6,-12 11,-12l158 0c6,0 11,6 11,12 0,6 -5,12 -11,12l0 0zm-270 0l-156 0c-8,0 -12,-6 -12,-12 0,-6 4,-12 12,-12l156 0c6,0 12,6 12,12 0,6 -6,12 -12,12l0 0zm-269 0l-158 0c-6,0 -10,-6 -10,-12 0,-6 4,-12 10,-12l158 0c6,0 12,6 12,12 0,6 -6,12 -12,12l0 0zm-269 0l-158 0c-5,0 -11,-6 -11,-12 0,-6 6,-12 11,-12l158 0c6,0 10,6 10,12 0,6 -4,12 -10,12l0 0zm-270 0l-156 0c-6,0 -12,-6 -12,-12 0,-6 6,-12 12,-12l156 0c7,0 12,6 12,12 0,6 -5,12 -12,12l0 0zm-269 0l-158 0c-6,0 -10,-6 -10,-12 0,-6 4,-12 10,-12l158 0c6,0 12,6 12,12 0,6 -6,12 -12,12l0 0zm-269 0l-158 0c-5,0 -11,-6 -11,-12 0,-6 6,-12 11,-12l158 0c6,0 10,6 10,12 0,6 -4,12 -10,12l0 0zm-270 0l-156 0c-6,0 -12,-6 -12,-12 0,-6 6,-12 12,-12l156 0c7,0 12,6 12,12 0,6 -5,12 -12,12l0 0zm-269 0l-158 0c-6,0 -10,-6 -10,-12 0,-6 4,-12 10,-12l158 0c6,0 12,6 12,12 0,6 -6,12 -12,12l0 0zm-269 0l-158 0c-6,0 -11,-6 -11,-12 0,-6 5,-12 11,-12l158 0c6,0 10,6 10,12 0,6 -4,12 -10,12l0 0zm-270 0l-157 0c-5,0 -11,-6 -11,-12 0,-6 6,-12 11,-12l157 0c7,0 11,6 11,12 0,6 -4,12 -11,12l0 0zm-269 0l-156 0c-8,0 -12,-6 -12,-12 0,-6 4,-12 12,-12l156 0c6,0 12,6 12,12 0,6 -6,12 -12,12l0 0zm-269 0l-158 0c-6,0 -10,-6 -10,-12 0,-6 4,-12 10,-12l158 0c6,0 10,6 10,12 0,6 -4,12 -10,12l0 0zm-270 0l-157 0c-5,0 -11,-6 -11,-12 0,-6 6,-12 11,-12l157 0c7,0 11,6 11,12 0,6 -4,12 -11,12l0 0zm-269 0l-7 0c-8,0 -12,-6 -12,-12 0,-6 4,-12 12,-12l7 0c6,0 12,6 12,12 0,6 -6,12 -12,12l0 0z"/>
  <path fill="#D9D9D9" stroke="black" stroke-width="7.62" stroke-linecap="round" stroke-linejoin="round" d="M11280 6300c0,-123 -99,-221 -221,-221 -122,0 -220,100 -220,221 0,123 99,221 220,221 123,0 221,-100 221,-221z"/>
  <path fill="none" stroke="black" stroke-width="21.91" stroke-linecap="round" stroke-linejoin="round" d="M11280 6300c0,-123 -99,-221 -221,-221 -122,0 -220,100 -220,221 0,123 99,221 220,221 123,0 221,-100 221,-221"/>
  <line fill="none" stroke="#9E4A4C" stroke-width="21.91" stroke-linecap="round" stroke-linejoin="round" x1="11065" y1="6525" x2="11065" y2= "9743" />
  <path fill="#9E4A4C" d="M11065 9895l-102 -202c64,32 139,32 203,0l-101 202 0 0z"/>
  <line fill="none" stroke="black" stroke-width="21.91" stroke-linecap="round" stroke-linejoin="round" x1="7973" y1="5645" x2="8916" y2= "5645" />
  <line fill="none" stroke="black" stroke-width="21.91" stroke-linecap="round" stroke-linejoin="round" x1="7991" y1="6959" x2="8941" y2= "6958" />
  <line fill="none" stroke="black" stroke-width="21.91" stroke-linecap="round" stroke-linejoin="round" x1="11729" y1="4526" x2="17633" y2= "4535" />
  <path fill="none" stroke="black" stroke-width="21.91" stroke-linecap="round" stroke-linejoin="round" d="M13497 3652c0,-121 98,-220 220,-220"/>
  <path fill="none" stroke="black" stroke-width="21.91" stroke-linecap="round" stroke-linejoin="round" d="M13938 3652c0,-122 -99,-220 -221,-220"/>
  <line fill="none" stroke="#433AB7" stroke-width="21.91" stroke-linecap="round" stroke-linejoin="round" x1="15705" y1="4757" x2="15710" y2= "7653" />
  <path fill="#433AB7" d="M15710 7805l-100 -201c62,32 138,32 201,0l-101 201 0 0z"/>
  <line fill="none" stroke="black" stroke-width="21.91" stroke-linecap="round" stroke-linejoin="round" x1="9521" y1="8065" x2="17696" y2= "8071" />
  <line fill="none" stroke="black" stroke-width="21.91" stroke-linecap="round" stroke-linejoin="round" x1="14601" y1="4538" x2="14601" y2= "5857" />
  <line fill="none" stroke="black" stroke-width="21.91" stroke-linecap="round" stroke-linejoin="round" x1="14601" y1="6741" x2="14601" y2= "8067" />
  <path fill="black" stroke="black" stroke-width="7.62" stroke-linecap="round" stroke-linejoin="round" d="M14601 4601c35,0 63,-28 63,-63 0,-34 -28,-62 -63,-62 -33,0 -61,28 -61,62 0,35 28,63 61,63z"/>
  <path fill="none" stroke="black" stroke-width="21.91" stroke-linecap="round" stroke-linejoin="round" d="M14601 4601c35,0 63,-28 63,-63 0,-34 -28,-62 -63,-62 -33,0 -61,28 -61,62 0,35 28,63 61,63"/>
  <path fill="black" stroke="black" stroke-width="7.62" stroke-linecap="round" stroke-linejoin="round" d="M14606 8131c33,0 61,-28 61,-63 0,-33 -28,-61 -61,-61 -35,0 -63,28 -63,61 0,35 28,63 63,63z"/>
  <path fill="none" stroke="black" stroke-width="21.91" stroke-linecap="round" stroke-linejoin="round" d="M14606 8131c33,0 61,-28 61,-63 0,-33 -28,-61 -61,-61 -35,0 -63,28 -63,61 0,35 28,63 63,63"/>
  <line fill="none" stroke="#9E4A4C" stroke-width="21.91" stroke-linecap="round" stroke-linejoin="round" x1="15044" y1="6303" x2="15263" y2= "6303" />
  <line fill="none" stroke="#5D723D" stroke-width="21.91" stroke-linecap="round" stroke-linejoin="round" x1="4287" y1="6300" x2="3549" y2= "6300" />
  <path fill="#5D723D" d="M4438 6300l-201 101c32,-63 32,-139 0,-202l201 101 0 0z"/>
  <line fill="none" stroke="#5D723D" stroke-width="21.91" stroke-linecap="round" stroke-linejoin="round" x1="20427" y1="7184" x2="19172" y2= "7184" />
  <path fill="#5D723D" d="M19020 7184l202 -101c-32,63 -32,138 0,202l-202 -101 0 0z"/>
  <line fill="none" stroke="#9E4A4C" stroke-width="21.91" stroke-linecap="round" stroke-linejoin="round" x1="15263" y1="8981" x2="15263" y2= "6303" />
  <path fill="#9E4A4C" d="M15263 9135l-101 -202c63,32 139,32 202,0l-101 202 0 0z"/>
  <polygon fill="white" points="12392,4360 12392,4713 13276,4713 13276,4360 "/>
  <polygon fill="none" stroke="black" stroke-width="21.91" stroke-linecap="round" stroke-linejoin="round" points="12392,4713 13276,4713 13276,4360 12392,4360 "/>
  <line fill="none" stroke="black" stroke-width="21.91" stroke-linecap="round" stroke-linejoin="round" x1="7973" y1="5645" x2="7973" y2= "3646" />
  <line fill="none" stroke="black" stroke-width="21.91" stroke-linecap="round" stroke-linejoin="round" x1="7973" y1="3646" x2="13497" y2= "3652" />
  <line fill="none" stroke="black" stroke-width="21.91" stroke-linecap="round" stroke-linejoin="round" x1="17696" y1="8071" x2="17696" y2= "3686" />
  <line fill="none" stroke="black" stroke-width="21.91" stroke-linecap="round" stroke-linejoin="round" x1="9521" y1="8065" x2="7991" y2= "8065" />
  <line fill="none" stroke="black" stroke-width="21.91" stroke-linecap="round" stroke-linejoin="round" x1="7991" y1="8065" x2="7991" y2= "6959" />
  <path fill="white" stroke="black" stroke-width="7.62" stroke-linecap="round" stroke-linejoin="round" d="M9521 8127c33,0 61,-28 61,-63 0,-34 -28,-62 -61,-62 -35,0 -63,28 -63,63 0,34 28,62 63,62z"/>
  <path fill="none" stroke="black" stroke-width="21.91" stroke-linecap="round" stroke-linejoin="round" d="M9521 8127c33,0 61,-28 61,-63 0,-34 -28,-62 -61,-62 -35,0 -63,28 -63,63 0,34 28,62 63,62"/>
  <path fill="black" stroke="black" stroke-width="7.62" stroke-linecap="round" stroke-linejoin="round" d="M17693 4612c35,0 62,-27 62,-61 0,-35 -28,-61 -62,-61 -33,0 -61,27 -61,61 0,34 28,61 61,61z"/>
  <path fill="none" stroke="black" stroke-width="21.91" stroke-linecap="round" stroke-linejoin="round" d="M17693 4612c35,0 62,-27 62,-61 0,-35 -28,-61 -62,-61 -33,0 -61,27 -61,61 0,34 28,61 61,61"/>
  <path fill="black" stroke="black" stroke-width="7.62" stroke-linecap="round" stroke-linejoin="round" d="M13717 3714c34,0 62,-28 62,-62 0,-33 -28,-61 -62,-61 -35,0 -63,28 -61,61 0,35 28,63 61,62z"/>
  <path fill="none" stroke="black" stroke-width="21.91" stroke-linecap="round" stroke-linejoin="round" d="M13717 3714c34,0 62,-28 62,-62 0,-33 -28,-61 -62,-61 -35,0 -63,28 -61,61 0,35 28,63 61,62"/>
  <polygon fill="white" points="15925,3476 15925,3829 16809,3829 16809,3476 "/>
  <polygon fill="none" stroke="black" stroke-width="21.91" stroke-linecap="round" stroke-linejoin="round" points="15925,3829 16809,3829 16809,3476 15925,3476 "/>
  <line fill="none" stroke="#5D723D" stroke-width="21.91" stroke-linecap="round" stroke-linejoin="round" x1="12833" y1="2767" x2="12833" y2= "4206" />
  <path fill="#5D723D" d="M12833 4360l-101 -202c65,31 139,31 202,0l-101 202 0 0z"/>
  <line fill="none" stroke="#5D723D" stroke-width="21.91" stroke-linecap="round" stroke-linejoin="round" x1="16368" y1="2767" x2="16368" y2= "3324" />
  <path fill="#5D723D" d="M16368 3476l-101 -202c63,32 139,32 202,0l-101 202 0 0z"/>
  <path fill="#D9D9D9" stroke="black" stroke-width="7.62" stroke-linecap="round" stroke-linejoin="round" d="M7311 6300c-1,-123 -99,-221 -222,-221 -121,0 -220,100 -220,221 0,123 99,221 222,221 121,0 220,-100 220,-221z"/>
  <path fill="none" stroke="black" stroke-width="21.91" stroke-linecap="round" stroke-linejoin="round" d="M7311 6300c-1,-123 -99,-221 -222,-221 -121,0 -220,100 -220,221 0,123 99,221 222,221 121,0 220,-100 220,-221"/>
  <line fill="none" stroke="#9E4A4C" stroke-width="21.91" stroke-linecap="round" stroke-linejoin="round" x1="7072" y1="6525" x2="7072" y2= "9724" />
  <path fill="#9E4A4C" d="M7072 9877l-101 -201c64,32 139,32 201,0l-100 201 0 0z"/>
  <line fill="none" stroke="#9E4A4C" stroke-width="21.91" stroke-linecap="round" stroke-linejoin="round" x1="7072" y1="8074" x2="5331" y2= "8071" />
  <line fill="none" stroke="#9E4A4C" stroke-width="21.91" stroke-linecap="round" stroke-linejoin="round" x1="5331" y1="8071" x2="5331" y2= "7333" />
  <path fill="#9E4A4C" d="M5331 7181l101 202c-64,-32 -139,-32 -202,0l101 -202 0 0z"/>
  <path fill="#9E4A4C" stroke="black" stroke-width="7.62" stroke-linecap="round" stroke-linejoin="round" d="M7077 8132c36,0 63,-27 63,-61 0,-35 -27,-63 -63,-63 -33,0 -61,28 -61,63 0,34 28,61 61,61z"/>
  <path fill="none" stroke="#9E4A4C" stroke-width="21.91" stroke-linecap="round" stroke-linejoin="round" d="M7077 8132c36,0 63,-27 63,-61 0,-35 -27,-63 -63,-63 -33,0 -61,28 -61,63 0,34 28,61 61,61"/>
  <path fill="none" stroke="black" stroke-width="21.91" stroke-linecap="round" stroke-linejoin="round" d="M11287 4528c0,-123 98,-221 221,-222"/>
  <path fill="none" stroke="black" stroke-width="21.91" stroke-linecap="round" stroke-linejoin="round" d="M11729 4526c0,-121 -100,-220 -221,-220"/>
  <path fill="black" stroke="black" stroke-width="7.62" stroke-linecap="round" stroke-linejoin="round" d="M11508 4589c34,0 61,-28 61,-61 0,-35 -27,-63 -61,-63 -34,0 -61,28 -61,63 0,33 27,61 61,61z"/>
  <path fill="none" stroke="black" stroke-width="21.91" stroke-linecap="round" stroke-linejoin="round" d="M11508 4589c34,0 61,-28 61,-61 0,-35 -27,-63 -61,-63 -34,0 -61,28 -61,63 0,33 27,61 61,61"/>
  <line fill="none" stroke="black" stroke-width="21.91" stroke-linecap="round" stroke-linejoin="round" x1="9512" y1="4535" x2="11287" y2= "4528" />
  <line fill="none" stroke="#9E4A4C" stroke-width="21.91" stroke-linecap="round" stroke-linejoin="round" x1="11509" y1="9619" x2="11509" y2= "4589" />
  <line fill="none" stroke="#9E4A4C" stroke-width="21.91" stroke-linecap="round" stroke-linejoin="round" x1="11508" y1="9621" x2="13143" y2= "9621" />
  <path fill="#9E4A4C" d="M13296 9621l-203 101c32,-64 32,-139 0,-201l203 100 0 0z"/>
  <path fill="white" stroke="black" stroke-width="7.62" stroke-linecap="round" stroke-linejoin="round" d="M7999 7010c36,0 63,-28 63,-61 0,-35 -27,-63 -63,-63 -33,0 -61,28 -61,63 0,33 28,61 61,61z"/>
  <path fill="none" stroke="black" stroke-width="21.91" stroke-linecap="round" stroke-linejoin="round" d="M7999 7010c36,0 63,-28 63,-61 0,-35 -27,-63 -63,-63 -33,0 -61,28 -61,63 0,33 28,61 61,61"/>
  <path fill="white" stroke="black" stroke-width="7.62" stroke-linecap="round" stroke-linejoin="round" d="M7973 5720c35,0 62,-28 62,-61 0,-35 -28,-62 -62,-62 -33,0 -61,28 -61,62 0,33 28,61 61,61z"/>
  <path fill="none" stroke="black" stroke-width="21.91" stroke-linecap="round" stroke-linejoin="round" d="M7973 5720c35,0 62,-28 62,-61 0,-35 -28,-62 -62,-62 -33,0 -61,28 -61,62 0,33 28,61 61,61"/>
  <line fill="none" stroke="red" stroke-width="21.91" stroke-linecap="round" stroke-linejoin="round" x1="9741" y1="4757" x2="9741" y2= "5046" />
  <path fill="red" d="M9741 5198l-102 -201c64,32 139,32 203,0l-101 201 0 0z"/>
  <line fill="none" stroke="red" stroke-width="21.91" stroke-linecap="round" stroke-linejoin="round" x1="8194" y1="4757" x2="8194" y2= "5046" />
  <path fill="red" d="M8194 5200l-101 -203c64,32 139,32 202,0l-101 203 0 0z"/>
  <line fill="none" stroke="black" stroke-width="21.91" stroke-linecap="round" stroke-linejoin="round" x1="13938" y1="3652" x2="15925" y2= "3652" />
  <line fill="none" stroke="black" stroke-width="21.91" stroke-linecap="round" stroke-linejoin="round" x1="17693" y1="3667" x2="16809" y2= "3667" />
  <line fill="none" stroke="#9E4A4C" stroke-width="21.91" stroke-linecap="round" stroke-linejoin="round" x1="13717" y1="8970" x2="13717" y2= "3714" />
  <path fill="#9E4A4C" d="M13717 9123l-101 -201c63,32 138,32 202,0l-101 201 0 0z"/>
  <path fill="white" stroke="black" stroke-width="7.62" stroke-linecap="round" stroke-linejoin="round" d="M9512 4598c33,0 61,-28 61,-62 0,-35 -28,-61 -61,-61 -35,0 -63,28 -63,61 0,34 28,62 63,62z"/>
  <path fill="none" stroke="black" stroke-width="21.91" stroke-linecap="round" stroke-linejoin="round" d="M9512 4598c33,0 61,-28 61,-62 0,-35 -28,-61 -61,-61 -35,0 -63,28 -63,61 0,34 28,62 63,62"/>
  <path fill="none" stroke="black" stroke-width="21.91" stroke-linecap="round" stroke-linejoin="round" d="M9521 7184c488,0 882,-396 882,-884 0,-488 -394,-884 -882,-884 -488,0 -884,396 -884,884 0,488 396,884 884,884"/>
  <path fill="#D9D9D9" stroke="black" stroke-width="7.62" stroke-linecap="round" stroke-linejoin="round" d="M10183 6304c0,-365 -299,-661 -664,-661 -367,1 -662,298 -662,664 2,366 298,662 664,661 366,0 663,-297 662,-664z"/>
  <path fill="none" stroke="black" stroke-width="21.91" stroke-linecap="round" stroke-linejoin="round" d="M10183 6304c0,-365 -299,-661 -664,-661 -367,1 -662,298 -662,664 2,366 298,662 664,661 366,0 663,-297 662,-664"/>
  <polygon fill="black" points="9432,6962 9432,7051 9608,7051 9608,6962 "/>
  <polygon fill="none" stroke="black" stroke-width="21.91" stroke-linecap="round" stroke-linejoin="round" points="9432,6962 9432,7051 9608,7051 9608,6962 "/>
  <polygon fill="black" points="9432,5549 9432,5637 9608,5637 9608,5549 "/>
  <polygon fill="none" stroke="black" stroke-width="21.91" stroke-linecap="round" stroke-linejoin="round" points="9432,5549 9432,5637 9608,5637 9608,5549 "/>
  <line fill="none" stroke="black" stroke-width="21.91" stroke-linecap="round" stroke-linejoin="round" x1="8857" y1="6300" x2="10178" y2= "6300" />
  <line fill="none" stroke="black" stroke-width="21.91" stroke-linecap="round" stroke-linejoin="round" x1="8857" y1="6300" x2="10178" y2= "6300" />
  <line fill="none" stroke="black" stroke-width="21.91" stroke-linecap="round" stroke-linejoin="round" x1="8882" y1="6477" x2="10158" y2= "6135" />
  <line fill="none" stroke="black" stroke-width="21.91" stroke-linecap="round" stroke-linejoin="round" x1="8882" y1="6135" x2="10158" y2= "6477" />
  <line fill="none" stroke="black" stroke-width="21.91" stroke-linecap="round" stroke-linejoin="round" x1="8948" y1="5976" x2="10092" y2= "6636" />
  <line fill="none" stroke="black" stroke-width="21.91" stroke-linecap="round" stroke-linejoin="round" x1="9053" y1="5838" x2="9987" y2= "6774" />
  <line fill="none" stroke="black" stroke-width="21.91" stroke-linecap="round" stroke-linejoin="round" x1="9190" y1="5733" x2="9851" y2= "6877" />
  <line fill="none" stroke="black" stroke-width="21.91" stroke-linecap="round" stroke-linejoin="round" x1="8948" y1="6636" x2="10092" y2= "5976" />
  <line fill="none" stroke="black" stroke-width="21.91" stroke-linecap="round" stroke-linejoin="round" x1="9053" y1="6774" x2="9987" y2= "5838" />
  <line fill="none" stroke="black" stroke-width="21.91" stroke-linecap="round" stroke-linejoin="round" x1="9190" y1="6877" x2="9851" y2= "5733" />
  <line fill="none" stroke="black" stroke-width="21.91" stroke-linecap="round" stroke-linejoin="round" x1="9350" y1="6944" x2="9692" y2= "5667" />
  <line fill="none" stroke="black" stroke-width="21.91" stroke-linecap="round" stroke-linejoin="round" x1="9350" y1="5667" x2="9692" y2= "6944" />
  <polygon fill="#D9D9D9" points="16369,6741 16369,7625 19020,7625 19020,6741 "/>
  <polygon fill="none" stroke="black" stroke-width="21.91" stroke-linecap="round" stroke-linejoin="round" points="16369,7625 19020,7625 19020,6741 16369,6741 "/>
 </g>
</svg>
