<?xml version="1.0" encoding="UTF-8"?>
<!DOCTYPE svg PUBLIC "-//W3C//DTD SVG 1.0//EN" "http://www.w3.org/TR/2001/REC-SVG-20010904/DTD/svg10.dtd">
<!-- Creator: CorelDRAW X7 -->
<svg xmlns="http://www.w3.org/2000/svg" xml:space="preserve" width="100%" height="100%" version="1.0" shape-rendering="geometricPrecision" text-rendering="geometricPrecision" image-rendering="optimizeQuality" fill-rule="evenodd" clip-rule="evenodd"
viewBox="0 0 1191 1207"
 xmlns:xlink="http://www.w3.org/1999/xlink">
 <g id="Слой_x0020_1">
  <metadata id="CorelCorpID_0Corel-Layer"/>
  <line fill="none" stroke="black" stroke-width="38.65" stroke-linecap="round" stroke-linejoin="round" x1="1102" y1="312" x2="90" y2= "897" />
  <line fill="none" stroke="black" stroke-width="38.65" stroke-linecap="round" stroke-linejoin="round" x1="88" y1="312" x2="1102" y2= "897" />
  <line fill="none" stroke="black" stroke-width="38.65" stroke-linecap="round" stroke-linejoin="round" x1="595" y1="1188" x2="595" y2= "19" />
  <path fill="none" stroke="black" stroke-width="22.3" stroke-linecap="round" stroke-linejoin="round" d="M1180 604c0,-323 -262,-585 -585,-585 -322,0 -584,262 -584,585 0,322 262,584 584,584 323,0 585,-262 585,-584"/>
  <path fill="#548BD4" stroke="black" stroke-width="7.62" stroke-linecap="round" stroke-linejoin="round" d="M1110 604c0,-23 -18,-42 -42,-42 -22,0 -40,19 -40,42 0,23 18,41 40,41 24,0 42,-18 42,-41z"/>
  <path fill="none" stroke="#433AB7" stroke-width="22.3" stroke-linecap="round" stroke-linejoin="round" d="M1110 604c0,-23 -18,-42 -42,-42 -22,0 -40,19 -40,42 0,23 18,41 40,41 24,0 42,-18 42,-41"/>
 </g>
</svg>
