<?xml version="1.0" encoding="UTF-8"?>
<!DOCTYPE svg PUBLIC "-//W3C//DTD SVG 1.0//EN" "http://www.w3.org/TR/2001/REC-SVG-20010904/DTD/svg10.dtd">
<!-- Creator: CorelDRAW X7 -->
<svg xmlns="http://www.w3.org/2000/svg" xml:space="preserve" width="100%" height="100%" version="1.0" shape-rendering="geometricPrecision" text-rendering="geometricPrecision" image-rendering="optimizeQuality" fill-rule="evenodd" clip-rule="evenodd"
viewBox="0 0 23861 6059"
 xmlns:xlink="http://www.w3.org/1999/xlink">
 <g id="Слой_x0020_1">
  <metadata id="CorelCorpID_0Corel-Layer"/>
  <polygon fill="#D9D9D9" points="15457,2242 15457,5678 16785,5678 16785,2242 "/>
  <polygon fill="none" stroke="black" stroke-width="21.95" stroke-linecap="round" stroke-linejoin="round" points="15457,5678 16785,5678 16785,2242 15457,2242 "/>
  <line fill="none" stroke="#00B050" stroke-width="21.95" stroke-linecap="round" stroke-linejoin="round" x1="2245" y1="4669" x2="1083" y2= "4669" />
  <line fill="none" stroke="#00B050" stroke-width="21.95" stroke-linecap="round" stroke-linejoin="round" x1="2238" y1="1389" x2="1075" y2= "1389" />
  <line fill="none" stroke="black" stroke-width="21.95" stroke-linecap="round" stroke-linejoin="round" x1="6139" y1="1481" x2="5656" y2= "1279" />
  <line fill="none" stroke="black" stroke-width="21.95" stroke-linecap="round" stroke-linejoin="round" x1="3065" y1="1482" x2="3065" y2= "5990" />
  <line fill="none" stroke="black" stroke-width="21.95" stroke-linecap="round" stroke-linejoin="round" x1="13125" y1="1481" x2="6133" y2= "1481" />
  <line fill="none" stroke="black" stroke-width="21.95" stroke-linecap="round" stroke-linejoin="round" x1="3062" y1="5987" x2="22635" y2= "5987" />
  <line fill="none" stroke="black" stroke-width="21.95" stroke-linecap="round" stroke-linejoin="round" x1="3065" y1="1481" x2="5653" y2= "1481" />
  <line fill="none" stroke="#00B050" stroke-width="21.95" stroke-linecap="round" stroke-linejoin="round" x1="2244" y1="1389" x2="2244" y2= "4672" />
  <line fill="none" stroke="#F5EFE5" stroke-width="21.95" stroke-linecap="round" stroke-linejoin="round" x1="11" y1="2305" x2="11" y2= "5804" />
  <line fill="none" stroke="black" stroke-width="21.95" stroke-linecap="round" stroke-linejoin="round" x1="8401" y1="5990" x2="8401" y2= "68" />
  <path fill="black" stroke="black" stroke-width="7.62" stroke-linecap="round" stroke-linejoin="round" d="M8462 1481c0,-34 -27,-62 -61,-62 -35,0 -63,28 -63,62 0,35 28,63 63,63 34,0 61,-28 61,-63z"/>
  <path fill="none" stroke="black" stroke-width="21.95" stroke-linecap="round" stroke-linejoin="round" d="M8462 1481c0,-34 -27,-62 -61,-62 -35,0 -63,28 -63,62 0,35 28,63 63,63 34,0 61,-28 61,-63"/>
  <line fill="none" stroke="red" stroke-width="21.95" stroke-linecap="round" stroke-linejoin="round" x1="17780" y1="737" x2="17780" y2= "1027" />
  <path fill="red" d="M17780 1179l-101 -202c63,32 139,32 202,0l-101 202 0 0z"/>
  <line fill="none" stroke="#F5EFE5" stroke-width="21.95" stroke-linecap="round" stroke-linejoin="round" x1="17780" y1="42" x2="11253" y2= "42" />
  <line fill="none" stroke="black" stroke-width="21.95" stroke-linecap="round" stroke-linejoin="round" x1="6774" y1="1481" x2="6774" y2= "71" />
  <line fill="none" stroke="black" stroke-width="21.95" stroke-linecap="round" stroke-linejoin="round" x1="6774" y1="71" x2="8399" y2= "71" />
  <path fill="black" stroke="black" stroke-width="7.62" stroke-linecap="round" stroke-linejoin="round" d="M6839 1481c0,-34 -28,-62 -62,-62 -33,0 -61,28 -61,62 0,35 28,63 61,63 34,0 62,-28 62,-63z"/>
  <path fill="none" stroke="black" stroke-width="21.95" stroke-linecap="round" stroke-linejoin="round" d="M6839 1481c0,-34 -28,-62 -62,-62 -33,0 -61,28 -61,62 0,35 28,63 61,63 34,0 62,-28 62,-63"/>
  <line fill="none" stroke="black" stroke-width="21.95" stroke-linecap="round" stroke-linejoin="round" x1="16120" y1="4251" x2="16120" y2= "65" />
  <path fill="black" stroke="black" stroke-width="7.62" stroke-linecap="round" stroke-linejoin="round" d="M8462 5987c0,-35 -27,-62 -61,-62 -35,0 -63,27 -63,62 0,33 28,61 63,61 34,0 61,-28 61,-61z"/>
  <path fill="none" stroke="black" stroke-width="21.95" stroke-linecap="round" stroke-linejoin="round" d="M8462 5987c0,-35 -27,-62 -61,-62 -35,0 -63,27 -63,62 0,33 28,61 63,61 34,0 61,-28 61,-61"/>
  <line fill="none" stroke="#00B050" stroke-width="21.95" stroke-linecap="round" stroke-linejoin="round" x1="2245" y1="3734" x2="2484" y2= "3734" />
  <path fill="#00B050" d="M2637 3734l-202 101c31,-63 31,-138 0,-202l202 101 0 0z"/>
  <polygon fill="#D9D9D9" points="2637,3292 2637,4177 3523,4177 3523,3292 "/>
  <polygon fill="none" stroke="black" stroke-width="21.95" stroke-linecap="round" stroke-linejoin="round" points="3523,3292 2637,3292 2637,4177 3523,4177 "/>
  <polygon fill="black" fill-rule="nonzero" points="3196,3901 3164,3901 3164,3688 3021,3901 2986,3901 2986,3633 3018,3633 3018,3845 3160,3633 3196,3633 "/>
  <line fill="none" stroke="black" stroke-width="21.95" stroke-linecap="round" stroke-linejoin="round" x1="5022" y1="1488" x2="5022" y2= "5999" />
  <path fill="black" stroke="black" stroke-width="7.62" stroke-linecap="round" stroke-linejoin="round" d="M5085 1481c0,-34 -28,-62 -63,-62 -34,0 -61,28 -61,62 0,35 27,63 61,63 35,0 63,-28 63,-63z"/>
  <path fill="none" stroke="black" stroke-width="21.95" stroke-linecap="round" stroke-linejoin="round" d="M5085 1481c0,-34 -28,-62 -63,-62 -34,0 -61,28 -61,62 0,35 27,63 61,63 35,0 63,-28 63,-63"/>
  <path fill="black" stroke="black" stroke-width="7.62" stroke-linecap="round" stroke-linejoin="round" d="M5085 5987c0,-35 -28,-62 -63,-62 -34,0 -61,27 -61,62 0,33 27,61 61,61 35,0 63,-28 63,-61z"/>
  <path fill="none" stroke="black" stroke-width="21.95" stroke-linecap="round" stroke-linejoin="round" d="M5085 5987c0,-35 -28,-62 -63,-62 -34,0 -61,27 -61,62 0,33 27,61 61,61 35,0 63,-28 63,-61"/>
  <line fill="none" stroke="#00B050" stroke-width="21.95" stroke-linecap="round" stroke-linejoin="round" x1="21185" y1="3734" x2="22150" y2= "3734" />
  <path fill="#00B050" d="M22302 3734l-202 101c33,-63 33,-138 0,-202l202 101 0 0z"/>
  <line fill="none" stroke="#00B050" stroke-width="21.95" stroke-linecap="round" stroke-linejoin="round" x1="17550" y1="4915" x2="16574" y2= "4915" />
  <path fill="#00B050" d="M16422 4915l202 -102c-32,64 -32,139 0,203l-202 -101 0 0z"/>
  <polygon fill="#D9D9D9" points="15827,2377 15827,3842 16413,3842 16413,2377 "/>
  <polygon fill="none" stroke="black" stroke-width="21.95" stroke-linecap="round" stroke-linejoin="round" points="15827,2377 15827,3842 16413,3842 16413,2377 "/>
  <line fill="none" stroke="black" stroke-width="21.95" stroke-linecap="round" stroke-linejoin="round" x1="16523" y1="2706" x2="15609" y2= "3621" />
  <path fill="black" stroke="black" stroke-width="7.62" stroke-linecap="round" stroke-linejoin="round" d="M16631 2598l-72 215c-22,-67 -74,-120 -142,-143l214 -72 0 0z"/>
  <line fill="none" stroke="black" stroke-width="21.95" stroke-linecap="round" stroke-linejoin="round" x1="16514" y1="4350" x2="15599" y2= "5264" />
  <path fill="black" stroke="black" stroke-width="7.62" stroke-linecap="round" stroke-linejoin="round" d="M16622 4242l-71 214c-22,-68 -77,-121 -144,-144l215 -70 0 0z"/>
  <line fill="none" stroke="black" stroke-width="21.95" stroke-linecap="round" stroke-linejoin="round" x1="16120" y1="5987" x2="16120" y2= "5570" />
  <path fill="black" stroke="black" stroke-width="7.62" stroke-linecap="round" stroke-linejoin="round" d="M16182 5987c0,-35 -28,-62 -62,-62 -33,0 -61,27 -61,62 0,33 28,61 61,61 34,0 62,-28 62,-61z"/>
  <path fill="none" stroke="black" stroke-width="21.95" stroke-linecap="round" stroke-linejoin="round" d="M16182 5987c0,-35 -28,-62 -62,-62 -33,0 -61,27 -61,62 0,33 28,61 61,61 34,0 62,-28 62,-61"/>
  <path fill="black" stroke="black" stroke-width="7.62" stroke-linecap="round" stroke-linejoin="round" d="M16182 72c0,-33 -28,-61 -62,-61 -33,0 -61,28 -61,61 0,36 28,63 61,63 34,0 62,-27 62,-63z"/>
  <path fill="none" stroke="black" stroke-width="21.95" stroke-linecap="round" stroke-linejoin="round" d="M16182 72c0,-33 -28,-61 -62,-61 -33,0 -61,28 -61,61 0,36 28,63 61,63 34,0 62,-27 62,-63"/>
  <line fill="none" stroke="red" stroke-width="21.95" stroke-linecap="round" stroke-linejoin="round" x1="13797" y1="516" x2="14085" y2= "516" />
  <path fill="red" d="M14239 516l-202 101c32,-64 32,-139 0,-202l202 101 0 0z"/>
  <line fill="none" stroke="red" stroke-width="21.95" stroke-linecap="round" stroke-linejoin="round" x1="19550" y1="516" x2="19840" y2= "516" />
  <path fill="red" d="M19994 516l-202 101c31,-64 31,-139 0,-202l202 101 0 0z"/>
  <line fill="none" stroke="#00B050" stroke-width="21.95" stroke-linecap="round" stroke-linejoin="round" x1="14538" y1="3110" x2="15674" y2= "3110" />
  <path fill="#00B050" d="M15827 3110l-202 101c31,-64 31,-139 0,-203l202 102 0 0z"/>
  <line fill="none" stroke="black" stroke-width="21.95" stroke-linecap="round" stroke-linejoin="round" x1="22642" y1="71" x2="13132" y2= "71" />
  <line fill="none" stroke="black" stroke-width="21.95" stroke-linecap="round" stroke-linejoin="round" x1="13132" y1="1481" x2="13132" y2= "68" />
  <path fill="none" stroke="black" stroke-width="21.95" stroke-linecap="round" stroke-linejoin="round" d="M16132 4251c121,0 221,99 221,221"/>
  <path fill="none" stroke="black" stroke-width="21.95" stroke-linecap="round" stroke-linejoin="round" d="M16353 4472c0,123 -100,221 -221,221"/>
  <path fill="none" stroke="black" stroke-width="21.95" stroke-linecap="round" stroke-linejoin="round" d="M16132 4693c121,0 221,99 221,222"/>
  <path fill="none" stroke="black" stroke-width="21.95" stroke-linecap="round" stroke-linejoin="round" d="M16353 4915c0,122 -100,221 -221,221"/>
  <path fill="none" stroke="black" stroke-width="21.95" stroke-linecap="round" stroke-linejoin="round" d="M16132 5136c121,0 221,98 221,221"/>
  <path fill="none" stroke="black" stroke-width="21.95" stroke-linecap="round" stroke-linejoin="round" d="M16353 5357c0,122 -100,221 -221,221"/>
  <line fill="none" stroke="black" stroke-width="21.95" stroke-linecap="round" stroke-linejoin="round" x1="22950" y1="3642" x2="22329" y2= "3642" />
  <line fill="none" stroke="black" stroke-width="21.95" stroke-linecap="round" stroke-linejoin="round" x1="22950" y1="3827" x2="22329" y2= "3827" />
  <line fill="none" stroke="black" stroke-width="21.95" stroke-linecap="round" stroke-linejoin="round" x1="23042" y1="3331" x2="22128" y2= "4245" />
  <path fill="black" stroke="black" stroke-width="7.62" stroke-linecap="round" stroke-linejoin="round" d="M23150 3223l-72 215c-22,-69 -74,-121 -142,-143l214 -72 0 0z"/>
  <line fill="none" stroke="black" stroke-width="21.95" stroke-linecap="round" stroke-linejoin="round" x1="22639" y1="5985" x2="22639" y2= "3825" />
  <line fill="none" stroke="black" stroke-width="21.95" stroke-linecap="round" stroke-linejoin="round" x1="22639" y1="3644" x2="22639" y2= "68" />
  <line fill="none" stroke="#F5EFE5" stroke-width="21.95" stroke-linecap="round" stroke-linejoin="round" x1="23850" y1="2153" x2="23850" y2= "5653" />
 </g>
</svg>
