<?xml version="1.0" encoding="UTF-8"?>
<!DOCTYPE svg PUBLIC "-//W3C//DTD SVG 1.0//EN" "http://www.w3.org/TR/2001/REC-SVG-20010904/DTD/svg10.dtd">
<!-- Creator: CorelDRAW X7 -->
<svg xmlns="http://www.w3.org/2000/svg" xml:space="preserve" width="282.007mm" height="104.28mm" version="1.0" shape-rendering="geometricPrecision" text-rendering="geometricPrecision" image-rendering="optimizeQuality" fill-rule="evenodd" clip-rule="evenodd"
viewBox="0 0 28250 10446"
 xmlns:xlink="http://www.w3.org/1999/xlink">
 <g id="Слой_x0020_1">
  <metadata id="CorelCorpID_0Corel-Layer"/>
  <line fill="none" stroke="black" stroke-width="25.9949" stroke-linecap="round" stroke-linejoin="round" x1="4095" y1="10379" x2="4095" y2= "2665" />
  <line fill="none" stroke="black" stroke-width="25.9949" stroke-linecap="round" stroke-linejoin="round" x1="1195" y1="2646" x2="1195" y2= "10355" />
  <line fill="none" stroke="black" stroke-width="25.9949" stroke-linecap="round" stroke-linejoin="round" x1="28202" y1="2634" x2="5358" y2= "2634" />
  <line fill="none" stroke="black" stroke-width="25.9949" stroke-linecap="round" stroke-linejoin="round" x1="1195" y1="10359" x2="28202" y2= "10359" />
  <path fill="black" stroke="black" stroke-width="7.6332" stroke-linecap="round" stroke-linejoin="round" d="M4169 2634c0,-40 -33,-73 -74,-73 -40,0 -73,33 -73,73 0,39 33,72 73,72 41,0 74,-33 74,-72z"/>
  <path fill="none" stroke="black" stroke-width="25.9949" stroke-linecap="round" stroke-linejoin="round" d="M4169 2634c0,-40 -33,-73 -74,-73 -40,0 -73,33 -73,73 0,39 33,72 73,72 41,0 74,-33 74,-72"/>
  <path fill="black" stroke="black" stroke-width="7.6332" stroke-linecap="round" stroke-linejoin="round" d="M4169 10359c0,-40 -33,-73 -74,-73 -40,0 -73,33 -73,73 0,41 33,74 73,74 41,0 74,-33 74,-74z"/>
  <path fill="none" stroke="black" stroke-width="25.9949" stroke-linecap="round" stroke-linejoin="round" d="M4169 10359c0,-40 -33,-73 -74,-73 -40,0 -73,33 -73,73 0,41 33,74 73,74 41,0 74,-33 74,-74"/>
  <line fill="none" stroke="black" stroke-width="25.9949" stroke-linecap="round" stroke-linejoin="round" x1="1212" y1="2634" x2="4771" y2= "2634" />
  <line fill="none" stroke="black" stroke-width="25.9949" stroke-linecap="round" stroke-linejoin="round" x1="28202" y1="2634" x2="28202" y2= "10362" />
  <line fill="none" stroke="black" stroke-width="25.9949" stroke-linecap="round" stroke-linejoin="round" x1="9332" y1="2634" x2="9332" y2= "13" />
  <line fill="none" stroke="black" stroke-width="25.9949" stroke-linecap="round" stroke-linejoin="round" x1="13003" y1="2634" x2="13003" y2= "13" />
  <line fill="none" stroke="black" stroke-width="25.9949" stroke-linecap="round" stroke-linejoin="round" x1="9332" y1="13" x2="13007" y2= "13" />
  <path fill="black" stroke="black" stroke-width="7.6332" stroke-linecap="round" stroke-linejoin="round" d="M9405 2634c0,-40 -31,-73 -73,-73 -39,0 -72,33 -72,73 0,39 33,72 72,72 42,0 73,-33 73,-72z"/>
  <path fill="none" stroke="black" stroke-width="25.9949" stroke-linecap="round" stroke-linejoin="round" d="M9405 2634c0,-40 -31,-73 -73,-73 -39,0 -72,33 -72,73 0,39 33,72 72,72 42,0 73,-33 73,-72"/>
  <path fill="black" stroke="black" stroke-width="7.6332" stroke-linecap="round" stroke-linejoin="round" d="M13078 2634c0,-40 -33,-73 -75,-73 -39,0 -72,33 -72,73 0,39 33,72 72,72 42,0 75,-33 75,-72z"/>
  <path fill="none" stroke="black" stroke-width="25.9949" stroke-linecap="round" stroke-linejoin="round" d="M13078 2634c0,-40 -33,-73 -75,-73 -39,0 -72,33 -72,73 0,39 33,72 72,72 42,0 75,-33 75,-72"/>
  <line fill="none" stroke="#00B0F0" stroke-width="25.9949" stroke-linecap="round" stroke-linejoin="round" x1="2261" y1="3180" x2="2261" y2= "9632" />
  <path fill="#00B0F0" d="M2261 9813l-120 -240c75,38 165,38 240,0l-120 240 0 0z"/>
  <polygon fill="#D9D9D9" points="10300,2287 10300,2980 12036,2980 12036,2287 "/>
  <polygon fill="none" stroke="black" stroke-width="25.9949" stroke-linecap="round" stroke-linejoin="round" points="10300,2980 12036,2980 12036,2287 10300,2287 "/>
  <line fill="none" stroke="#00B050" stroke-width="25.9949" stroke-linecap="round" stroke-linejoin="round" x1="11168" y1="4507" x2="11168" y2= "3162" />
  <path fill="#00B050" d="M11168 2980l120 241c-75,-38 -163,-38 -240,0l120 -241 0 0z"/>
  <line fill="none" stroke="#00B0F0" stroke-width="25.9949" stroke-linecap="round" stroke-linejoin="round" x1="10383" y1="1975" x2="11773" y2= "1975" />
  <path fill="#00B0F0" d="M11955 1975l-239 120c36,-77 36,-165 0,-240l239 120 0 0z"/>
  <line fill="none" stroke="#00B050" stroke-width="25.9949" stroke-linecap="round" stroke-linejoin="round" x1="13" y1="49" x2="13" y2= "6504" />
  <line fill="none" stroke="#00B050" stroke-width="25.9949" stroke-linecap="round" stroke-linejoin="round" x1="1048" y1="49" x2="13" y2= "49" />
  <line fill="none" stroke="red" stroke-width="25.9949" stroke-linecap="round" stroke-linejoin="round" x1="7240" y1="1084" x2="7584" y2= "1084" />
  <path fill="red" d="M7764 1084l-239 120c38,-77 38,-165 0,-239l239 119 0 0z"/>
  <line fill="none" stroke="black" stroke-width="25.9949" stroke-linecap="round" stroke-linejoin="round" x1="16666" y1="2634" x2="16666" y2= "13" />
  <line fill="none" stroke="black" stroke-width="25.9949" stroke-linecap="round" stroke-linejoin="round" x1="20337" y1="2634" x2="20337" y2= "13" />
  <line fill="none" stroke="black" stroke-width="25.9949" stroke-linecap="round" stroke-linejoin="round" x1="16666" y1="13" x2="20338" y2= "13" />
  <path fill="black" stroke="black" stroke-width="7.6332" stroke-linecap="round" stroke-linejoin="round" d="M16738 2634c0,-40 -32,-73 -72,-73 -42,0 -75,33 -75,73 0,39 33,72 75,72 40,0 72,-33 72,-72z"/>
  <path fill="none" stroke="black" stroke-width="25.9949" stroke-linecap="round" stroke-linejoin="round" d="M16738 2634c0,-40 -32,-73 -72,-73 -42,0 -75,33 -75,73 0,39 33,72 75,72 40,0 72,-33 72,-72"/>
  <path fill="black" stroke="black" stroke-width="7.6332" stroke-linecap="round" stroke-linejoin="round" d="M20409 2634c0,-40 -33,-73 -72,-73 -42,0 -73,33 -73,73 0,39 31,72 73,72 39,0 72,-33 72,-72z"/>
  <path fill="none" stroke="black" stroke-width="25.9949" stroke-linecap="round" stroke-linejoin="round" d="M20409 2634c0,-40 -33,-73 -72,-73 -42,0 -73,33 -73,73 0,39 31,72 73,72 39,0 72,-33 72,-72"/>
  <polygon fill="#D9D9D9" points="17633,2287 17633,2980 19369,2980 19369,2287 "/>
  <polygon fill="none" stroke="black" stroke-width="25.9949" stroke-linecap="round" stroke-linejoin="round" points="17633,2980 19369,2980 19369,2287 17633,2287 "/>
  <line fill="none" stroke="#00B050" stroke-width="25.9949" stroke-linecap="round" stroke-linejoin="round" x1="18501" y1="4473" x2="18501" y2= "3162" />
  <path fill="#00B050" d="M18501 2980l120 241c-77,-38 -165,-38 -239,0l119 -241 0 0z"/>
  <line fill="none" stroke="#00B0F0" stroke-width="25.9949" stroke-linecap="round" stroke-linejoin="round" x1="17714" y1="1975" x2="19106" y2= "1975" />
  <path fill="#00B0F0" d="M19286 1975l-239 120c38,-77 38,-165 0,-240l239 120 0 0z"/>
  <line fill="none" stroke="red" stroke-width="25.9949" stroke-linecap="round" stroke-linejoin="round" x1="14572" y1="1084" x2="14915" y2= "1084" />
  <path fill="red" d="M15097 1084l-239 120c36,-77 36,-165 0,-239l239 119 0 0z"/>
  <line fill="none" stroke="black" stroke-width="25.9949" stroke-linecap="round" stroke-linejoin="round" x1="24001" y1="2634" x2="24001" y2= "13" />
  <line fill="none" stroke="black" stroke-width="25.9949" stroke-linecap="round" stroke-linejoin="round" x1="27673" y1="2634" x2="27673" y2= "13" />
  <line fill="none" stroke="black" stroke-width="25.9949" stroke-linecap="round" stroke-linejoin="round" x1="24001" y1="13" x2="27675" y2= "13" />
  <path fill="black" stroke="black" stroke-width="7.6332" stroke-linecap="round" stroke-linejoin="round" d="M24075 2634c0,-40 -33,-73 -74,-73 -40,0 -73,33 -73,73 0,39 33,72 73,72 41,0 74,-33 74,-72z"/>
  <path fill="none" stroke="black" stroke-width="25.9949" stroke-linecap="round" stroke-linejoin="round" d="M24075 2634c0,-40 -33,-73 -74,-73 -40,0 -73,33 -73,73 0,39 33,72 73,72 41,0 74,-33 74,-72"/>
  <path fill="black" stroke="black" stroke-width="7.6332" stroke-linecap="round" stroke-linejoin="round" d="M27746 2634c0,-40 -33,-73 -73,-73 -41,0 -74,33 -74,73 0,39 33,72 74,72 40,0 73,-33 73,-72z"/>
  <path fill="none" stroke="black" stroke-width="25.9949" stroke-linecap="round" stroke-linejoin="round" d="M27746 2634c0,-40 -33,-73 -73,-73 -41,0 -74,33 -74,73 0,39 33,72 74,72 40,0 73,-33 73,-72"/>
  <polygon fill="#D9D9D9" points="24969,2287 24969,2980 26704,2980 26704,2287 "/>
  <polygon fill="none" stroke="black" stroke-width="25.9949" stroke-linecap="round" stroke-linejoin="round" points="24969,2980 26704,2980 26704,2287 24969,2287 "/>
  <line fill="none" stroke="#00B050" stroke-width="25.9949" stroke-linecap="round" stroke-linejoin="round" x1="25836" y1="4507" x2="25836" y2= "3162" />
  <path fill="#00B050" d="M25836 2980l120 241c-75,-38 -163,-38 -240,0l120 -241 0 0z"/>
  <line fill="none" stroke="#00B0F0" stroke-width="25.9949" stroke-linecap="round" stroke-linejoin="round" x1="25051" y1="1975" x2="26441" y2= "1975" />
  <path fill="#00B0F0" d="M26623 1975l-239 120c36,-77 36,-165 0,-240l239 120 0 0z"/>
  <line fill="none" stroke="red" stroke-width="25.9949" stroke-linecap="round" stroke-linejoin="round" x1="21909" y1="1084" x2="22252" y2= "1084" />
  <path fill="red" d="M22434 1084l-241 120c38,-77 38,-165 0,-239l241 119 0 0z"/>
  <line fill="none" stroke="#00B050" stroke-width="25.9949" stroke-linecap="round" stroke-linejoin="round" x1="13" y1="6497" x2="507" y2= "6497" />
  <path fill="#00B050" d="M689 6497l-239 120c36,-77 36,-165 0,-240l239 120 0 0z"/>
  <polygon fill="#D9D9D9" points="689,5972 689,7020 1738,7020 1738,5972 "/>
  <polygon fill="none" stroke="black" stroke-width="25.9949" stroke-linecap="round" stroke-linejoin="round" points="1738,5972 689,5972 689,7020 1738,7020 "/>
  <line fill="none" stroke="#00B0F0" stroke-width="25.9949" stroke-linecap="round" stroke-linejoin="round" x1="9332" y1="3180" x2="9332" y2= "9632" />
  <path fill="#00B0F0" d="M9332 9813l-119 -240c76,38 165,38 239,0l-120 240 0 0z"/>
  <line fill="none" stroke="#00B0F0" stroke-width="25.9949" stroke-linecap="round" stroke-linejoin="round" x1="16666" y1="3180" x2="16666" y2= "9632" />
  <path fill="#00B0F0" d="M16666 9813l-122 -240c77,38 165,38 241,0l-119 240 0 0z"/>
  <line fill="none" stroke="#00B0F0" stroke-width="25.9949" stroke-linecap="round" stroke-linejoin="round" x1="24001" y1="3180" x2="24001" y2= "9632" />
  <path fill="#00B0F0" d="M24001 9813l-120 -240c76,38 165,38 239,0l-119 240 0 0z"/>
  <line fill="none" stroke="#00B0F0" stroke-width="25.9949" stroke-linecap="round" stroke-linejoin="round" x1="27673" y1="3180" x2="27673" y2= "9632" />
  <path fill="#00B0F0" d="M27673 9813l-121 -240c76,38 165,38 241,0l-120 240 0 0z"/>
  <line fill="none" stroke="#F5EFE5" stroke-width="25.9949" stroke-linecap="round" stroke-linejoin="round" x1="28237" y1="2634" x2="28237" y2= "10362" />
 </g>
</svg>
