<?xml version="1.0" encoding="UTF-8"?>
<!DOCTYPE svg PUBLIC "-//W3C//DTD SVG 1.0//EN" "http://www.w3.org/TR/2001/REC-SVG-20010904/DTD/svg10.dtd">
<!-- Creator: CorelDRAW X7 -->
<svg xmlns="http://www.w3.org/2000/svg" xml:space="preserve" width="100%" height="100%" version="1.0" shape-rendering="geometricPrecision" text-rendering="geometricPrecision" image-rendering="optimizeQuality" fill-rule="evenodd" clip-rule="evenodd"
viewBox="0 0 23817 11918"
 xmlns:xlink="http://www.w3.org/1999/xlink">
 <g id="Слой_x0020_1">
  <metadata id="CorelCorpID_0Corel-Layer"/>
  <line fill="none" stroke="#F5EFE5" stroke-width="21.91" stroke-linecap="round" stroke-linejoin="round" x1="23806" y1="300" x2="23806" y2= "3793" />
  <line fill="none" stroke="#F5EFE5" stroke-width="21.91" stroke-linecap="round" stroke-linejoin="round" x1="17685" y1="11" x2="11169" y2= "11" />
  <line fill="none" stroke="#F5EFE5" stroke-width="21.91" stroke-linecap="round" stroke-linejoin="round" x1="11" y1="325" x2="11" y2= "3817" />
  <line fill="none" stroke="#F5EFE5" stroke-width="21.91" stroke-linecap="round" stroke-linejoin="round" x1="15826" y1="11907" x2="9310" y2= "11907" />
  <line fill="none" stroke="#9E4A4C" stroke-width="21.91" stroke-linecap="round" stroke-linejoin="round" x1="9168" y1="7459" x2="9168" y2= "9849" />
  <path fill="black" stroke="black" stroke-width="7.62" stroke-linejoin="round" d="M13764 7270l-158 0c-6,0 -10,-5 -10,-11 0,-6 4,-12 10,-12l158 0c6,0 12,6 12,12 0,6 -6,11 -12,11l0 0zm-269 0l-158 0c-5,0 -11,-5 -11,-11 0,-6 6,-12 11,-12l158 0c6,0 10,6 10,12 0,6 -4,11 -10,11l0 0zm-270 0l-157 0c-5,0 -11,-5 -11,-11 0,-6 6,-12 11,-12l157 0c7,0 12,6 12,12 0,6 -5,11 -12,11l0 0zm-269 0l-158 0c-6,0 -10,-5 -10,-11 0,-6 4,-12 10,-12l158 0c6,0 12,6 12,12 0,6 -6,11 -12,11l0 0zm-269 0l-158 0c-6,0 -11,-5 -11,-11 0,-6 5,-12 11,-12l158 0c6,0 10,6 10,12 0,6 -4,11 -10,11l0 0zm-270 0l-157 0c-5,0 -11,-5 -11,-11 0,-6 6,-12 11,-12l157 0c7,0 11,6 11,12 0,6 -4,11 -11,11l0 0zm-269 0l-158 0c-6,0 -10,-5 -10,-11 0,-6 4,-12 10,-12l158 0c6,0 12,6 12,12 0,6 -6,11 -12,11l0 0zm-269 0l-158 0c-6,0 -11,-5 -11,-11 0,-6 5,-12 11,-12l158 0c6,0 10,6 10,12 0,6 -4,11 -10,11l0 0zm-270 0l-157 0c-5,0 -11,-5 -11,-11 0,-6 6,-12 11,-12l157 0c7,0 11,6 11,12 0,6 -4,11 -11,11l0 0zm-269 0l-156 0c-8,0 -12,-5 -12,-11 0,-6 4,-12 12,-12l156 0c6,0 12,6 12,12 0,6 -6,11 -12,11l0 0zm-269 0l-158 0c-6,0 -10,-5 -10,-11 0,-6 4,-12 10,-12l158 0c6,0 10,6 10,12 0,6 -4,11 -10,11l0 0zm-270 0l-157 0c-6,0 -11,-5 -11,-11 0,-6 5,-12 11,-12l157 0c7,0 11,6 11,12 0,6 -4,11 -11,11l0 0zm-269 0l-157 0c-7,0 -11,-5 -11,-11 0,-6 4,-12 11,-12l157 0c6,0 11,6 11,12 0,6 -5,11 -11,11l0 0zm-269 0l-158 0c-6,0 -10,-5 -10,-11 0,-6 4,-12 10,-12l158 0c6,0 10,6 10,12 0,6 -4,11 -10,11l0 0zm-270 0l-157 0c-6,0 -11,-5 -11,-11 0,-6 5,-12 11,-12l157 0c7,0 11,6 11,12 0,6 -4,11 -11,11l0 0zm-269 0l-157 0c-7,0 -11,-5 -11,-11 0,-6 4,-12 11,-12l157 0c6,0 11,6 11,12 0,6 -5,11 -11,11l0 0zm-269 0l-158 0c-6,0 -10,-5 -10,-11 0,-6 4,-12 10,-12l158 0c6,0 10,6 10,12 0,6 -4,11 -10,11l0 0zm-270 0l-157 0c-6,0 -11,-5 -11,-11 0,-6 5,-12 11,-12l157 0c7,0 11,6 11,12 0,6 -4,11 -11,11l0 0zm-269 0l-157 0c-7,0 -11,-5 -11,-11 0,-6 4,-12 11,-12l157 0c6,0 11,6 11,12 0,6 -5,11 -11,11l0 0zm-269 0l-158 0c-6,0 -10,-5 -10,-11 0,-6 4,-12 10,-12l158 0c6,0 12,6 12,12 0,6 -6,11 -12,11l0 0zm-269 0l-158 0c-6,0 -12,-5 -12,-11 0,-6 6,-12 12,-12l158 0c6,0 10,6 10,12 0,6 -4,11 -10,11l0 0zm-270 0l-12 0c-6,0 -12,-5 -12,-11 0,-6 6,-12 12,-12l12 0c5,0 11,6 11,12 0,6 -6,11 -11,11l0 0z"/>
  <line fill="none" stroke="#9E4A4C" stroke-width="21.91" stroke-linecap="round" stroke-linejoin="round" x1="16628" y1="7263" x2="18931" y2= "7263" />
  <path fill="#9E4A4C" d="M19084 7263l-201 101c32,-63 32,-139 0,-202l201 101 0 0z"/>
  <line fill="none" stroke="#5D723D" stroke-width="21.91" stroke-linecap="round" stroke-linejoin="round" x1="13168" y1="1520" x2="12174" y2= "1520" />
  <path fill="#5D723D" d="M13321 1520l-201 101c32,-64 32,-139 0,-203l201 102 0 0z"/>
  <polygon fill="black" points="7384,7365 7384,7129 7297,7129 7297,7098 7509,7096 7509,7129 7419,7129 7419,7365 "/>
  <path fill="#9E4A4C" stroke="black" stroke-width="7.62" stroke-linecap="round" stroke-linejoin="round" d="M17652 7320c34,0 62,-28 62,-61 0,-34 -28,-62 -62,-62 -33,0 -61,28 -61,62 0,35 28,61 61,61z"/>
  <path fill="none" stroke="#9E4A4C" stroke-width="21.91" stroke-linecap="round" stroke-linejoin="round" d="M17652 7320c34,0 62,-28 62,-61 0,-34 -28,-62 -62,-62 -33,0 -61,28 -61,62 0,35 28,61 61,61"/>
  <path fill="#FFC000" stroke="black" stroke-width="7.62" stroke-linecap="round" stroke-linejoin="round" d="M13985 6861c0,-25 -19,-44 -44,-44 -25,0 -44,19 -44,44 0,25 19,44 44,44 25,0 44,-19 44,-44z"/>
  <path fill="none" stroke="black" stroke-width="21.91" stroke-linecap="round" stroke-linejoin="round" d="M13985 6861c0,-25 -19,-44 -44,-44 -25,0 -44,19 -44,44 0,25 19,44 44,44 25,0 44,-19 44,-44"/>
  <path fill="red" stroke="black" stroke-width="7.62" stroke-linecap="round" stroke-linejoin="round" d="M15399 6861c0,-25 -20,-44 -45,-44 -24,0 -44,19 -44,44 0,25 20,44 44,44 25,0 45,-19 45,-44z"/>
  <path fill="none" stroke="black" stroke-width="21.91" stroke-linecap="round" stroke-linejoin="round" d="M15399 6861c0,-25 -20,-44 -45,-44 -24,0 -44,19 -44,44 0,25 20,44 44,44 25,0 45,-19 45,-44"/>
  <path fill="#00B050" stroke="black" stroke-width="7.62" stroke-linecap="round" stroke-linejoin="round" d="M14736 6473c0,-49 -40,-90 -88,-90 -50,0 -89,41 -89,90 0,48 39,87 89,87 48,0 88,-39 88,-87z"/>
  <path fill="none" stroke="black" stroke-width="21.91" stroke-linecap="round" stroke-linejoin="round" d="M14736 6473c0,-49 -40,-90 -88,-90 -50,0 -89,41 -89,90 0,48 39,87 89,87 48,0 88,-39 88,-87"/>
  <path fill="#00B050" stroke="black" stroke-width="7.62" stroke-linecap="round" stroke-linejoin="round" d="M14736 8045c0,-48 -40,-88 -88,-88 -50,0 -89,40 -89,88 0,49 39,89 89,89 48,0 88,-40 88,-89z"/>
  <path fill="none" stroke="black" stroke-width="21.91" stroke-linecap="round" stroke-linejoin="round" d="M14736 8045c0,-48 -40,-88 -88,-88 -50,0 -89,40 -89,88 0,49 39,89 89,89 48,0 88,-40 88,-89"/>
  <line fill="none" stroke="black" stroke-width="21.91" stroke-linecap="round" stroke-linejoin="round" x1="13764" y1="5226" x2="13764" y2= "6776" />
  <line fill="none" stroke="black" stroke-width="21.91" stroke-linecap="round" stroke-linejoin="round" x1="15531" y1="5226" x2="15531" y2= "6759" />
  <line fill="none" stroke="black" stroke-width="21.91" stroke-linecap="round" stroke-linejoin="round" x1="14648" y1="5226" x2="14648" y2= "6375" />
  <line fill="none" stroke="black" stroke-width="21.91" stroke-linecap="round" stroke-linejoin="round" x1="15531" y1="6759" x2="15408" y2= "6826" />
  <line fill="none" stroke="black" stroke-width="21.91" stroke-linecap="round" stroke-linejoin="round" x1="13764" y1="6776" x2="13874" y2= "6835" />
  <line fill="none" stroke="black" stroke-width="21.91" stroke-linecap="round" stroke-linejoin="round" x1="15531" y1="658" x2="15531" y2= "4872" />
  <line fill="none" stroke="black" stroke-width="21.91" stroke-linecap="round" stroke-linejoin="round" x1="14648" y1="642" x2="14648" y2= "4872" />
  <line fill="none" stroke="black" stroke-width="21.91" stroke-linecap="round" stroke-linejoin="round" x1="13764" y1="651" x2="13764" y2= "4872" />
  <path fill="white" stroke="black" stroke-width="7.62" stroke-linecap="round" stroke-linejoin="round" d="M13764 5995c34,0 61,-28 61,-62 0,-33 -27,-61 -61,-61 -35,0 -61,28 -61,61 0,34 27,62 61,62z"/>
  <path fill="none" stroke="black" stroke-width="21.91" stroke-linecap="round" stroke-linejoin="round" d="M13764 5995c34,0 61,-28 61,-62 0,-33 -27,-61 -61,-61 -35,0 -61,28 -61,61 0,34 27,62 61,62"/>
  <path fill="white" stroke="black" stroke-width="7.62" stroke-linecap="round" stroke-linejoin="round" d="M14648 5995c34,0 61,-28 61,-62 0,-33 -27,-61 -61,-61 -35,0 -63,28 -63,61 0,34 28,62 63,62z"/>
  <path fill="none" stroke="black" stroke-width="21.91" stroke-linecap="round" stroke-linejoin="round" d="M14648 5995c34,0 61,-28 61,-62 0,-33 -27,-61 -61,-61 -35,0 -63,28 -63,61 0,34 28,62 63,62"/>
  <path fill="white" stroke="black" stroke-width="7.62" stroke-linecap="round" stroke-linejoin="round" d="M15531 5995c35,0 63,-28 63,-62 0,-33 -28,-61 -63,-61 -34,0 -62,28 -62,61 0,34 28,62 62,62z"/>
  <path fill="none" stroke="black" stroke-width="21.91" stroke-linecap="round" stroke-linejoin="round" d="M15531 5995c35,0 63,-28 63,-62 0,-33 -28,-61 -63,-61 -34,0 -62,28 -62,61 0,34 28,62 62,62"/>
  <path fill="none" stroke="black" stroke-width="21.91" stroke-linecap="round" stroke-linejoin="round" d="M15310 3724c0,123 99,221 221,221 122,0 222,-98 222,-221 0,-121 -100,-221 -222,-221 -122,0 -221,100 -221,221"/>
  <path fill="black" stroke="black" stroke-width="7.62" stroke-linecap="round" stroke-linejoin="round" d="M15469 4167c0,33 28,61 62,61 35,0 63,-28 63,-61 0,-35 -28,-63 -63,-63 -34,0 -62,28 -62,63z"/>
  <path fill="none" stroke="black" stroke-width="21.91" stroke-linecap="round" stroke-linejoin="round" d="M15469 4167c0,33 28,61 62,61 35,0 63,-28 63,-61 0,-35 -28,-63 -63,-63 -34,0 -62,28 -62,63"/>
  <path fill="black" stroke="black" stroke-width="7.62" stroke-linecap="round" stroke-linejoin="round" d="M15469 3283c0,33 28,61 62,61 35,0 63,-28 63,-61 0,-35 -28,-63 -63,-63 -34,0 -62,28 -62,63z"/>
  <path fill="none" stroke="black" stroke-width="21.91" stroke-linecap="round" stroke-linejoin="round" d="M15469 3283c0,33 28,61 62,61 35,0 63,-28 63,-61 0,-35 -28,-63 -63,-63 -34,0 -62,28 -62,63"/>
  <line fill="none" stroke="black" stroke-width="37.99" stroke-linecap="round" stroke-linejoin="round" x1="15531" y1="4167" x2="15531" y2= "3283" />
  <line fill="none" stroke="black" stroke-width="21.91" stroke-linecap="round" stroke-linejoin="round" x1="14648" y1="2399" x2="16194" y2= "2399" />
  <line fill="none" stroke="black" stroke-width="21.91" stroke-linecap="round" stroke-linejoin="round" x1="15531" y1="2840" x2="16194" y2= "2840" />
  <line fill="none" stroke="black" stroke-width="21.91" stroke-linecap="round" stroke-linejoin="round" x1="16194" y1="2399" x2="16295" y2= "2499" />
  <line fill="none" stroke="black" stroke-width="21.91" stroke-linecap="round" stroke-linejoin="round" x1="16194" y1="2840" x2="16295" y2= "2739" />
  <path fill="black" stroke="black" stroke-width="7.62" stroke-linecap="round" stroke-linejoin="round" d="M15531 2903c35,0 63,-28 63,-63 0,-34 -28,-61 -63,-61 -34,0 -62,27 -62,62 0,34 28,62 62,62z"/>
  <path fill="none" stroke="black" stroke-width="21.91" stroke-linecap="round" stroke-linejoin="round" d="M15531 2903c35,0 63,-28 63,-63 0,-34 -28,-61 -63,-61 -34,0 -62,27 -62,62 0,34 28,62 62,62"/>
  <path fill="black" stroke="black" stroke-width="7.62" stroke-linecap="round" stroke-linejoin="round" d="M14648 2460c34,0 61,-28 61,-61 0,-34 -27,-62 -61,-62 -35,0 -63,28 -63,62 0,35 28,61 63,61z"/>
  <path fill="none" stroke="black" stroke-width="21.91" stroke-linecap="round" stroke-linejoin="round" d="M14648 2460c34,0 61,-28 61,-61 0,-34 -27,-62 -61,-62 -35,0 -63,28 -63,62 0,35 28,61 63,61"/>
  <line fill="none" stroke="#9E4A4C" stroke-width="21.91" stroke-linecap="round" stroke-linejoin="round" x1="15753" y1="3724" x2="20150" y2= "3724" />
  <line fill="none" stroke="#9E4A4C" stroke-width="21.91" stroke-linecap="round" stroke-linejoin="round" x1="17011" y1="2619" x2="21028" y2= "2619" />
  <line fill="none" stroke="#9E4A4C" stroke-width="21.91" stroke-linecap="round" stroke-linejoin="round" x1="17652" y1="11064" x2="17652" y2= "7320" />
  <line fill="none" stroke="#9E4A4C" stroke-width="21.91" stroke-linecap="round" stroke-linejoin="round" x1="17648" y1="11065" x2="5195" y2= "11065" />
  <path fill="white" stroke="black" stroke-width="7.62" stroke-linecap="round" stroke-linejoin="round" d="M13764 693c34,0 61,-27 61,-61 0,-35 -27,-63 -61,-63 -35,0 -61,28 -61,63 0,34 27,61 61,61z"/>
  <path fill="none" stroke="black" stroke-width="21.91" stroke-linecap="round" stroke-linejoin="round" d="M13764 693c34,0 61,-27 61,-61 0,-35 -27,-63 -61,-63 -35,0 -61,28 -61,63 0,34 27,61 61,61"/>
  <path fill="white" stroke="black" stroke-width="7.62" stroke-linecap="round" stroke-linejoin="round" d="M14648 693c34,0 61,-27 61,-61 0,-35 -27,-63 -61,-63 -35,0 -63,28 -63,63 0,34 28,61 63,61z"/>
  <path fill="none" stroke="black" stroke-width="21.91" stroke-linecap="round" stroke-linejoin="round" d="M14648 693c34,0 61,-27 61,-61 0,-35 -27,-63 -61,-63 -35,0 -63,28 -63,63 0,34 28,61 63,61"/>
  <path fill="white" stroke="black" stroke-width="7.62" stroke-linecap="round" stroke-linejoin="round" d="M15531 693c35,0 63,-27 63,-61 0,-35 -28,-63 -63,-63 -34,0 -62,28 -62,63 0,34 28,61 62,61z"/>
  <path fill="none" stroke="black" stroke-width="21.91" stroke-linecap="round" stroke-linejoin="round" d="M15531 693c35,0 63,-27 63,-61 0,-35 -28,-63 -63,-63 -34,0 -62,28 -62,63 0,34 28,61 62,61"/>
  <path fill="#9E4A4C" stroke="#9E4A4C" stroke-width="7.62" stroke-linejoin="round" d="M5645 7926l0 157c0,6 -4,11 -11,11 -6,0 -10,-5 -10,-11l0 -157c0,-7 4,-11 10,-11 7,0 11,4 11,11l0 0zm0 269l0 157c0,7 -4,11 -11,11 -6,0 -10,-4 -10,-11l0 -157c0,-6 4,-11 10,-11 7,0 11,5 11,11l0 0zm0 269l0 158c0,6 -4,10 -11,10 -6,0 -10,-4 -10,-10l0 -158c0,-6 4,-10 10,-10 7,0 11,4 11,10l0 0zm0 270l0 157c0,6 -4,12 -11,12 -6,0 -10,-6 -10,-12l0 -157c0,-7 4,-11 10,-11 7,0 11,4 11,11l0 0zm0 269l0 157c0,7 -4,11 -11,11 -6,0 -10,-4 -10,-11l0 -157c0,-5 4,-11 10,-11 7,0 11,6 11,11l0 0zm0 269l0 158c0,6 -4,10 -11,10 -6,0 -10,-4 -10,-10l0 -158c0,-6 4,-11 10,-11 7,0 11,5 11,11l0 0zm0 269l0 158c0,6 -4,12 -11,12 -6,0 -10,-6 -10,-12l0 -158c0,-6 4,-10 10,-10 7,0 11,4 11,10l0 0zm0 270l0 33c0,5 -4,11 -11,11 -6,0 -10,-6 -10,-11l0 -33c0,-5 4,-11 10,-11 7,0 11,6 11,11l0 0z"/>
  <line fill="none" stroke="#9E4A4C" stroke-width="21.91" stroke-linecap="round" stroke-linejoin="round" x1="5192" y1="7491" x2="5192" y2= "11072" />
  <line fill="none" stroke="#9E4A4C" stroke-width="21.91" stroke-linecap="round" stroke-linejoin="round" x1="9803" y1="9846" x2="9173" y2= "9846" />
  <path fill="#9E4A4C" d="M9956 9846l-202 103c31,-65 31,-139 0,-203l202 100 0 0z"/>
  <path fill="#9E4A4C" stroke="black" stroke-width="7.62" stroke-linecap="round" stroke-linejoin="round" d="M9168 9909c36,0 63,-27 63,-63 0,-33 -27,-61 -63,-61 -33,0 -61,28 -61,63 0,34 28,61 61,61z"/>
  <path fill="none" stroke="#9E4A4C" stroke-width="21.91" stroke-linecap="round" stroke-linejoin="round" d="M9168 9909c36,0 63,-27 63,-63 0,-33 -27,-61 -63,-61 -33,0 -61,28 -61,63 0,34 28,61 61,61"/>
  <line fill="none" stroke="#433AB7" stroke-width="21.91" stroke-linecap="round" stroke-linejoin="round" x1="14933" y1="3063" x2="15246" y2= "3063" />
  <path fill="#433AB7" d="M14780 3063l203 -100c-32,62 -32,137 0,201l-203 -101 0 0z"/>
  <path fill="#433AB7" d="M15399 3063l-203 101c32,-64 32,-139 0,-201l203 100 0 0z"/>
  <line fill="none" stroke="red" stroke-width="21.91" stroke-linecap="round" stroke-linejoin="round" x1="15753" y1="4035" x2="15753" y2= "4325" />
  <path fill="red" d="M15753 4476l-103 -201c65,32 139,32 204,0l-101 201 0 0z"/>
  <path fill="#D9D9D9" stroke="black" stroke-width="7.62" stroke-linecap="round" stroke-linejoin="round" d="M16630 7259c0,-123 -100,-221 -223,-221 -121,0 -220,99 -220,221 1,122 99,220 222,220 121,0 221,-99 221,-220z"/>
  <path fill="none" stroke="black" stroke-width="21.91" stroke-linecap="round" stroke-linejoin="round" d="M16630 7259c0,-123 -100,-221 -223,-221 -121,0 -220,99 -220,221 1,122 99,220 222,220 121,0 221,-99 221,-220"/>
  <polygon fill="#D9D9D9" points="6518,6375 6518,8143 8286,8143 8286,6375 "/>
  <polygon fill="none" stroke="black" stroke-width="21.91" stroke-linecap="round" stroke-linejoin="round" points="6518,6375 6518,8143 8286,8143 8286,6375 "/>
  <path fill="#D9D9D9" stroke="black" stroke-width="7.62" stroke-linecap="round" stroke-linejoin="round" d="M9391 7259c-2,-123 -100,-221 -223,-221 -121,0 -220,99 -220,221 0,122 99,220 222,220 121,0 221,-99 221,-220z"/>
  <path fill="none" stroke="black" stroke-width="21.91" stroke-linecap="round" stroke-linejoin="round" d="M9391 7259c-2,-123 -100,-221 -223,-221 -121,0 -220,99 -220,221 0,122 99,220 222,220 121,0 221,-99 221,-220"/>
  <line fill="none" stroke="#5D723D" stroke-width="21.91" stroke-linecap="round" stroke-linejoin="round" x1="3436" y1="4767" x2="4756" y2= "4767" />
  <line fill="none" stroke="#5D723D" stroke-width="21.91" stroke-linecap="round" stroke-linejoin="round" x1="4751" y1="4767" x2="4751" y2= "6589" />
  <path fill="#5D723D" stroke="#5D723D" stroke-width="7.62" stroke-linejoin="round" d="M3436 9836l156 0c6,0 12,5 12,10 0,8 -6,12 -12,12l-156 0c-7,0 -12,-4 -12,-12 0,-5 5,-10 12,-10l0 0zm269 0l156 0c8,0 12,5 12,10 0,8 -4,12 -12,12l-156 0c-6,0 -12,-4 -12,-12 0,-5 6,-10 12,-10l0 0zm269 0l158 0c5,0 10,5 10,10 0,8 -5,12 -10,12l-158 0c-6,0 -10,-4 -10,-12 0,-5 4,-10 10,-10l0 0zm270 0l156 0c6,0 12,5 12,10 0,8 -6,12 -12,12l-156 0c-7,0 -12,-4 -12,-12 0,-5 5,-10 12,-10l0 0zm269 0l156 0c8,0 12,5 12,10 0,8 -4,12 -12,12l-156 0c-6,0 -12,-4 -12,-12 0,-5 6,-10 12,-10l0 0z"/>
  <path fill="#5D723D" stroke="#5D723D" stroke-width="7.62" stroke-linejoin="round" d="M4763 7042l0 157c0,7 -6,11 -12,11 -6,0 -12,-4 -12,-11l0 -157c0,-5 6,-11 12,-11 6,0 12,6 12,11l0 0zm0 269l0 158c0,6 -6,10 -12,10 -6,0 -12,-4 -12,-10l0 -158c0,-6 6,-11 12,-11 6,0 12,5 12,11l0 0zm0 269l0 158c0,6 -6,12 -12,12 -6,0 -12,-6 -12,-12l0 -158c0,-6 6,-10 12,-10 6,0 12,4 12,10l0 0zm0 270l0 157c0,7 -6,11 -12,11 -6,0 -12,-4 -12,-11l0 -157c0,-5 6,-11 12,-11 6,0 12,6 12,11l0 0zm0 269l0 158c0,6 -6,10 -12,10 -6,0 -12,-4 -12,-10l0 -158c0,-6 6,-11 12,-11 6,0 12,5 12,11l0 0zm0 269l0 158c0,6 -6,12 -12,12 -6,0 -12,-6 -12,-12l0 -158c0,-6 6,-10 12,-10 6,0 12,4 12,10l0 0zm0 271l0 156c0,7 -6,12 -12,12 -6,0 -12,-5 -12,-12l0 -156c0,-6 6,-12 12,-12 6,0 12,6 12,12l0 0zm0 268l0 158c0,6 -6,10 -12,10 -6,0 -12,-4 -12,-10l0 -158c0,-5 6,-11 12,-11 6,0 12,6 12,11l0 0zm0 269l0 158c0,6 -6,12 -12,12 -6,0 -12,-6 -12,-12l0 -158c0,-6 6,-10 12,-10 6,0 12,4 12,10l0 0zm0 271l0 156c0,6 -6,12 -12,12 -6,0 -12,-6 -12,-12l0 -156c0,-8 6,-12 12,-12 6,0 12,4 12,12l0 0zm0 268l0 114c0,8 -6,12 -12,12 -6,0 -12,-4 -12,-12l0 -114c0,-5 6,-11 12,-11 6,0 12,6 12,11l0 0z"/>
  <line fill="none" stroke="#9E4A4C" stroke-width="21.91" stroke-linecap="round" stroke-linejoin="round" x1="20142" y1="3724" x2="20142" y2= "4143" />
  <path fill="#9E4A4C" d="M20142 4295l-101 -201c65,32 139,32 202,0l-101 201 0 0z"/>
  <line fill="none" stroke="#9E4A4C" stroke-width="21.91" stroke-linecap="round" stroke-linejoin="round" x1="21026" y1="2619" x2="21026" y2= "4167" />
  <path fill="#9E4A4C" d="M21026 4319l-100 -202c62,32 138,32 201,0l-101 202 0 0z"/>
  <line fill="none" stroke="#9E4A4C" stroke-width="21.91" stroke-linecap="round" stroke-linejoin="round" x1="6366" y1="7479" x2="5192" y2= "7479" />
  <path fill="#9E4A4C" d="M6518 7479l-202 101c32,-63 32,-137 0,-202l202 101 0 0z"/>
  <path fill="#5D723D" stroke="#5D723D" stroke-width="7.62" stroke-linejoin="round" d="M6366 7050l-158 0c-6,0 -12,-6 -12,-12 0,-6 6,-12 12,-12l158 0c6,0 10,6 10,12 0,6 -4,12 -10,12l0 0zm-270 0l-157 0c-7,0 -12,-6 -12,-12 0,-6 5,-12 12,-12l157 0c5,0 11,6 11,12 0,6 -6,12 -11,12l0 0zm-269 0l-158 0c-6,0 -10,-6 -10,-12 0,-6 4,-12 10,-12l158 0c5,0 11,6 11,12 0,6 -6,12 -11,12l0 0zm-269 0l-158 0c-6,0 -12,-6 -12,-12 0,-6 6,-12 12,-12l158 0c6,0 10,6 10,12 0,6 -4,12 -10,12l0 0zm-271 0l-156 0c-6,0 -12,-6 -12,-12 0,-6 6,-12 12,-12l156 0c8,0 12,6 12,12 0,6 -4,12 -12,12l0 0zm-268 0l-158 0c-6,0 -10,-6 -10,-12 0,-6 4,-12 10,-12l158 0c5,0 11,6 11,12 0,6 -6,12 -11,12l0 0z"/>
  <path fill="#5D723D" d="M6518 7038l-202 101c32,-63 32,-139 0,-202l202 101 0 0z"/>
  <line fill="none" stroke="#5D723D" stroke-width="21.91" stroke-linecap="round" stroke-linejoin="round" x1="4748" y1="6597" x2="6366" y2= "6597" />
  <path fill="#5D723D" d="M6518 6597l-202 101c32,-65 32,-139 0,-204l202 103 0 0z"/>
  <path fill="#9E4A4C" stroke="#9E4A4C" stroke-width="7.62" stroke-linejoin="round" d="M5634 7910l158 0c5,0 11,5 11,12 0,6 -6,10 -11,10l-158 0c-6,0 -10,-4 -10,-10 0,-7 4,-12 10,-12l0 0zm270 0l156 0c8,0 12,5 12,12 0,6 -4,10 -12,10l-156 0c-6,0 -12,-4 -12,-10 0,-7 6,-12 12,-12l0 0zm269 0l158 0c6,0 10,5 10,12 0,6 -4,10 -10,10l-158 0c-6,0 -12,-4 -12,-10 0,-7 6,-12 12,-12l0 0z"/>
  <path fill="#9E4A4C" d="M6518 7922l-202 101c32,-64 32,-139 0,-202l202 101 0 0z"/>
  <path fill="none" stroke="black" stroke-width="21.91" stroke-linecap="round" stroke-linejoin="round" d="M16700 2616c0,-122 -100,-220 -222,-220 -122,0 -221,98 -221,220 0,122 99,221 221,221 122,0 222,-99 222,-221"/>
  <path fill="none" stroke="black" stroke-width="21.91" stroke-linecap="round" stroke-linejoin="round" d="M17007 2616c0,-122 -100,-220 -221,-220 -123,0 -221,98 -221,220 0,122 98,221 221,221 121,0 221,-99 221,-221"/>
  <polygon fill="#D9D9D9" points="13321,1076 13321,1959 15972,1959 15972,1076 "/>
  <polygon fill="none" stroke="black" stroke-width="21.91" stroke-linecap="round" stroke-linejoin="round" points="13321,1959 15972,1959 15972,1076 13321,1076 "/>
  <path fill="none" stroke="black" stroke-width="21.91" stroke-linecap="round" stroke-linejoin="round" d="M15539 7259c0,-493 -398,-893 -891,-893 -494,0 -893,400 -893,893 0,492 399,892 893,892 493,0 891,-400 891,-892"/>
  <path fill="none" stroke="black" stroke-width="21.91" stroke-linecap="round" stroke-linejoin="round" d="M15341 7259c0,-383 -310,-693 -693,-693 -383,0 -694,310 -694,693 0,382 311,692 694,692 383,0 693,-310 693,-692"/>
  <path fill="#9E4A4C" stroke="#9E4A4C" stroke-width="7.62" stroke-linejoin="round" d="M9183 9858l-158 0c-6,0 -11,-4 -11,-12 0,-5 5,-10 11,-10l158 0c6,0 10,5 10,10 0,8 -4,12 -10,12l0 0zm-270 0l-157 0c-7,0 -11,-4 -11,-12 0,-5 4,-10 11,-10l157 0c6,0 11,5 11,10 0,8 -5,12 -11,12l0 0zm-269 0l-158 0c-6,0 -10,-4 -10,-12 0,-5 4,-10 10,-10l158 0c6,0 12,5 12,10 0,8 -6,12 -12,12l0 0zm-269 0l-158 0c-6,0 -11,-4 -11,-12 0,-5 5,-10 11,-10l158 0c6,0 10,5 10,10 0,8 -4,12 -10,12l0 0zm-270 0l-157 0c-7,0 -11,-4 -11,-12 0,-5 4,-10 11,-10l157 0c6,0 11,5 11,10 0,8 -5,12 -11,12l0 0zm-269 0l-158 0c-6,0 -10,-4 -10,-12 0,-5 4,-10 10,-10l158 0c6,0 12,5 12,10 0,8 -6,12 -12,12l0 0zm-269 0l-158 0c-6,0 -12,-4 -12,-12 0,-5 6,-10 12,-10l158 0c6,0 10,5 10,10 0,8 -4,12 -10,12l0 0zm-270 0l-157 0c-6,0 -11,-4 -11,-12 0,-5 5,-10 11,-10l157 0c7,0 11,5 11,10 0,8 -4,12 -11,12l0 0zm-269 0l-158 0c-6,0 -10,-4 -10,-12 0,-5 4,-10 10,-10l158 0c6,0 11,5 11,10 0,8 -5,12 -11,12l0 0zm-269 0l-158 0c-6,0 -12,-4 -12,-12 0,-5 6,-10 12,-10l158 0c6,0 10,5 10,10 0,8 -4,12 -10,12l0 0zm-270 0l-157 0c-6,0 -11,-4 -11,-12 0,-5 5,-10 11,-10l157 0c7,0 11,5 11,10 0,8 -4,12 -11,12l0 0zm-269 0l-158 0c-6,0 -10,-4 -10,-12 0,-5 4,-10 10,-10l158 0c6,0 11,5 11,10 0,8 -5,12 -11,12l0 0zm-269 0l-158 0c-6,0 -12,-4 -12,-12 0,-5 6,-10 12,-10l158 0c6,0 10,5 10,10 0,8 -4,12 -10,12l0 0zm-270 0l-47 0c-6,0 -10,-4 -10,-12 0,-5 4,-10 10,-10l47 0c7,0 11,5 11,10 0,8 -4,12 -11,12l0 0z"/>
  <path fill="red" stroke="black" stroke-width="7.62" stroke-linecap="round" stroke-linejoin="round" d="M15425 6870c0,-48 -39,-88 -89,-88 -48,0 -87,40 -87,88 0,48 39,88 87,88 50,0 89,-40 89,-88z"/>
  <path fill="none" stroke="black" stroke-width="21.91" stroke-linecap="round" stroke-linejoin="round" d="M15425 6870c0,-48 -39,-88 -89,-88 -48,0 -87,40 -87,88 0,48 39,88 87,88 50,0 89,-40 89,-88"/>
  <path fill="black" stroke="black" stroke-width="7.62" stroke-linejoin="round" d="M16156 7270l-158 0c-6,0 -10,-5 -10,-11 0,-6 4,-12 10,-12l158 0c6,0 12,6 12,12 0,6 -6,11 -12,11l0 0zm-269 0l-158 0c-5,0 -11,-5 -11,-11 0,-6 6,-12 11,-12l158 0c6,0 10,6 10,12 0,6 -4,11 -10,11l0 0zm-270 0l-78 0c-5,0 -10,-5 -10,-11 0,-6 5,-12 10,-12l78 0c6,0 12,6 12,12 0,6 -6,11 -12,11l0 0z"/>
  <path fill="#FFC000" stroke="black" stroke-width="7.62" stroke-linecap="round" stroke-linejoin="round" d="M14037 6870c0,-48 -39,-88 -89,-88 -48,0 -88,40 -88,88 0,48 40,88 88,88 50,0 89,-40 89,-88z"/>
  <path fill="none" stroke="black" stroke-width="21.91" stroke-linecap="round" stroke-linejoin="round" d="M14037 6870c0,-48 -39,-88 -89,-88 -48,0 -88,40 -88,88 0,48 40,88 88,88 50,0 89,-40 89,-88"/>
  <path fill="#FFC000" stroke="black" stroke-width="7.62" stroke-linecap="round" stroke-linejoin="round" d="M15425 7647c0,50 -39,89 -89,89 -48,0 -87,-39 -87,-89 0,-48 39,-87 87,-87 50,0 89,39 89,87z"/>
  <path fill="none" stroke="black" stroke-width="21.91" stroke-linecap="round" stroke-linejoin="round" d="M15425 7647c0,50 -39,89 -89,89 -48,0 -87,-39 -87,-89 0,-48 39,-87 87,-87 50,0 89,39 89,87"/>
  <path fill="red" stroke="black" stroke-width="7.62" stroke-linecap="round" stroke-linejoin="round" d="M14037 7647c0,50 -39,89 -89,89 -48,0 -88,-39 -88,-89 0,-48 40,-87 88,-87 50,0 89,39 89,87z"/>
  <path fill="none" stroke="black" stroke-width="21.91" stroke-linecap="round" stroke-linejoin="round" d="M14037 7647c0,50 -39,89 -89,89 -48,0 -88,-39 -88,-89 0,-48 40,-87 88,-87 50,0 89,39 89,87"/>
  <path fill="none" stroke="black" stroke-width="21.91" stroke-linecap="round" stroke-linejoin="round" d="M14736 8042c133,-5 467,-200 562,-314"/>
  <path fill="none" stroke="black" stroke-width="21.91" stroke-linecap="round" stroke-linejoin="round" d="M14559 8042c-133,-5 -468,-200 -561,-314"/>
 </g>
</svg>
