<?xml version="1.0" encoding="UTF-8"?>
<!DOCTYPE svg PUBLIC "-//W3C//DTD SVG 1.0//EN" "http://www.w3.org/TR/2001/REC-SVG-20010904/DTD/svg10.dtd">
<!-- Creator: CorelDRAW X7 -->
<svg xmlns="http://www.w3.org/2000/svg" xml:space="preserve" width="100%" height="100%" version="1.0" shape-rendering="geometricPrecision" text-rendering="geometricPrecision" image-rendering="optimizeQuality" fill-rule="evenodd" clip-rule="evenodd"
viewBox="0 0 23861 6061"
 xmlns:xlink="http://www.w3.org/1999/xlink">
 <g id="Слой_x0020_1">
  <metadata id="CorelCorpID_0Corel-Layer"/>
  <line fill="none" stroke="black" stroke-width="21.95" stroke-linecap="round" stroke-linejoin="round" x1="17097" y1="5988" x2="17097" y2= "68" />
  <line fill="none" stroke="black" stroke-width="21.95" stroke-linecap="round" stroke-linejoin="round" x1="3062" y1="3031" x2="15151" y2= "3031" />
  <line fill="none" stroke="black" stroke-width="21.95" stroke-linecap="round" stroke-linejoin="round" x1="3062" y1="5466" x2="11964" y2= "5466" />
  <line fill="none" stroke="black" stroke-width="21.95" stroke-linecap="round" stroke-linejoin="round" x1="3062" y1="597" x2="11964" y2= "597" />
  <line fill="none" stroke="black" stroke-width="21.95" stroke-linecap="round" stroke-linejoin="round" x1="7777" y1="5466" x2="7296" y2= "5262" />
  <line fill="none" stroke="black" stroke-width="21.95" stroke-linecap="round" stroke-linejoin="round" x1="19045" y1="5988" x2="19045" y2= "75" />
  <line fill="none" stroke="#FFC107" stroke-width="21.95" stroke-linecap="round" stroke-linejoin="round" x1="11298" y1="384" x2="11588" y2= "384" />
  <path fill="#FFC107" d="M11742 384l-202 101c30,-63 30,-137 0,-202l202 101 0 0z"/>
  <line fill="none" stroke="#F44336" stroke-width="21.95" stroke-linecap="round" stroke-linejoin="round" x1="11298" y1="5245" x2="11588" y2= "5245" />
  <path fill="#F44336" d="M11742 5245l-202 101c30,-65 30,-139 0,-204l202 103 0 0z"/>
  <line fill="none" stroke="black" stroke-width="21.95" stroke-linecap="round" stroke-linejoin="round" x1="12812" y1="2289" x2="12812" y2= "2579" />
  <path fill="black" d="M12812 2732l-101 -203c64,32 139,32 203,0l-102 203 0 0z"/>
  <line fill="none" stroke="#00B050" stroke-width="21.95" stroke-linecap="round" stroke-linejoin="round" x1="20011" y1="5469" x2="13485" y2= "5469" />
  <path fill="#00B050" d="M13333 5469l202 -101c-32,63 -32,137 0,202l-202 -101 0 0z"/>
  <line fill="none" stroke="#F5EFE5" stroke-width="21.95" stroke-linecap="round" stroke-linejoin="round" x1="23850" y1="2306" x2="23850" y2= "5805" />
  <line fill="none" stroke="#F5EFE5" stroke-width="21.95" stroke-linecap="round" stroke-linejoin="round" x1="17780" y1="43" x2="11253" y2= "43" />
  <line fill="none" stroke="#00B050" stroke-width="21.95" stroke-linecap="round" stroke-linejoin="round" x1="1460" y1="3031" x2="2302" y2= "3031" />
  <path fill="#00B050" d="M2454 3031l-202 101c32,-64 32,-139 0,-202l202 101 0 0z"/>
  <line fill="none" stroke="#F5EFE5" stroke-width="21.95" stroke-linecap="round" stroke-linejoin="round" x1="11" y1="2331" x2="11" y2= "5830" />
  <polygon fill="#D9D9D9" points="2476,72 2476,5988 3362,5988 3362,72 "/>
  <polygon fill="none" stroke="black" stroke-width="21.95" stroke-linecap="round" stroke-linejoin="round" points="3362,72 2476,72 2476,5988 3362,5988 "/>
  <polygon fill="black" fill-rule="nonzero" points="3035,3198 3002,3198 3002,2985 2860,3198 2824,3198 2824,2929 2857,2929 2857,3141 2999,2929 3035,2929 "/>
  <path fill="none" stroke="black" stroke-width="21.95" stroke-linecap="round" stroke-linejoin="round" d="M2741 518c0,-49 40,-88 90,-88"/>
  <path fill="none" stroke="black" stroke-width="21.95" stroke-linecap="round" stroke-linejoin="round" d="M2831 430c48,0 87,39 87,88"/>
  <path fill="none" stroke="black" stroke-width="21.95" stroke-linecap="round" stroke-linejoin="round" d="M2918 518c0,49 40,89 90,89"/>
  <path fill="none" stroke="black" stroke-width="21.95" stroke-linecap="round" stroke-linejoin="round" d="M3008 607c41,7 80,-22 86,-68 2,-7 2,-14 2,-21"/>
  <path fill="none" stroke="black" stroke-width="21.95" stroke-linecap="round" stroke-linejoin="round" d="M2741 695c0,-49 40,-90 90,-90"/>
  <path fill="none" stroke="black" stroke-width="21.95" stroke-linecap="round" stroke-linejoin="round" d="M2831 605c48,0 87,41 87,90"/>
  <path fill="none" stroke="black" stroke-width="21.95" stroke-linecap="round" stroke-linejoin="round" d="M2918 695c0,48 40,87 90,87"/>
  <path fill="none" stroke="black" stroke-width="21.95" stroke-linecap="round" stroke-linejoin="round" d="M3008 782c41,9 80,-21 86,-65 2,-8 2,-15 2,-22"/>
  <path fill="none" stroke="black" stroke-width="21.95" stroke-linecap="round" stroke-linejoin="round" d="M2741 872c0,-50 40,-90 90,-90"/>
  <path fill="none" stroke="black" stroke-width="21.95" stroke-linecap="round" stroke-linejoin="round" d="M2831 782c48,0 87,40 87,90"/>
  <path fill="none" stroke="black" stroke-width="21.95" stroke-linecap="round" stroke-linejoin="round" d="M2918 872c0,48 40,88 90,88"/>
  <path fill="none" stroke="black" stroke-width="21.95" stroke-linecap="round" stroke-linejoin="round" d="M3008 960c41,7 80,-22 86,-66 2,-8 2,-15 2,-22"/>
  <line fill="none" stroke="#00B050" stroke-width="21.95" stroke-linecap="round" stroke-linejoin="round" x1="15956" y1="1390" x2="20045" y2= "1390" />
  <line fill="none" stroke="black" stroke-width="21.95" stroke-linecap="round" stroke-linejoin="round" x1="7296" y1="5466" x2="7094" y2= "5466" />
  <line fill="none" stroke="black" stroke-width="21.95" stroke-linecap="round" stroke-linejoin="round" x1="7757" y1="5466" x2="7979" y2= "5466" />
  <line fill="none" stroke="#4CAF50" stroke-width="21.95" stroke-linecap="round" stroke-linejoin="round" x1="11298" y1="2819" x2="11588" y2= "2819" />
  <path fill="#4CAF50" d="M11742 2819l-202 101c30,-63 30,-138 0,-202l202 101 0 0z"/>
  <line fill="none" stroke="black" stroke-width="21.95" stroke-linecap="round" stroke-linejoin="round" x1="13185" y1="5988" x2="13185" y2= "68" />
  <line fill="none" stroke="black" stroke-width="21.95" stroke-linecap="round" stroke-linejoin="round" x1="11971" y1="72" x2="19038" y2= "72" />
  <line fill="none" stroke="black" stroke-width="21.95" stroke-linecap="round" stroke-linejoin="round" x1="11963" y1="72" x2="11963" y2= "597" />
  <line fill="none" stroke="black" stroke-width="21.95" stroke-linecap="round" stroke-linejoin="round" x1="11971" y1="5988" x2="19047" y2= "5988" />
  <line fill="none" stroke="black" stroke-width="21.95" stroke-linecap="round" stroke-linejoin="round" x1="11963" y1="5466" x2="11963" y2= "5988" />
  <path fill="black" stroke="black" stroke-width="7.62" stroke-linecap="round" stroke-linejoin="round" d="M13246 3031c0,-35 -27,-63 -61,-63 -34,0 -61,28 -61,63 0,34 27,62 61,62 34,0 61,-28 61,-62z"/>
  <path fill="none" stroke="black" stroke-width="21.95" stroke-linecap="round" stroke-linejoin="round" d="M13246 3031c0,-35 -27,-63 -61,-63 -34,0 -61,28 -61,63 0,34 27,62 61,62 34,0 61,-28 61,-62"/>
  <polygon fill="#D9D9D9" points="13333,5804 13333,5132 13037,5132 13037,5804 "/>
  <polygon fill="none" stroke="black" stroke-width="21.95" stroke-linecap="round" stroke-linejoin="round" points="13333,5804 13333,5132 13037,5132 13037,5804 "/>
  <polygon fill="#D9D9D9" points="13333,2847 13333,2175 13037,2175 13037,2847 "/>
  <polygon fill="none" stroke="black" stroke-width="21.95" stroke-linecap="round" stroke-linejoin="round" points="13333,2847 13333,2175 13037,2175 13037,2847 "/>
  <path fill="black" stroke="black" stroke-width="7.62" stroke-linecap="round" stroke-linejoin="round" d="M13246 72c0,-33 -27,-61 -61,-61 -34,0 -61,28 -61,61 0,36 27,63 61,63 34,0 61,-27 61,-63z"/>
  <path fill="none" stroke="black" stroke-width="21.95" stroke-linecap="round" stroke-linejoin="round" d="M13246 72c0,-33 -27,-61 -61,-61 -34,0 -61,28 -61,61 0,36 27,63 61,63 34,0 61,-27 61,-63"/>
  <path fill="black" stroke="black" stroke-width="7.62" stroke-linecap="round" stroke-linejoin="round" d="M13246 5988c0,-33 -27,-61 -61,-61 -34,0 -61,28 -61,61 0,34 27,62 61,62 34,0 61,-28 61,-62z"/>
  <path fill="none" stroke="black" stroke-width="21.95" stroke-linecap="round" stroke-linejoin="round" d="M13246 5988c0,-33 -27,-61 -61,-61 -34,0 -61,28 -61,61 0,34 27,62 61,62 34,0 61,-28 61,-62"/>
  <line fill="none" stroke="black" stroke-width="21.95" stroke-linecap="round" stroke-linejoin="round" x1="15136" y1="5988" x2="15136" y2= "68" />
  <polygon fill="#D9D9D9" points="17245,4224 17245,3552 16950,3552 16950,4224 "/>
  <polygon fill="none" stroke="black" stroke-width="21.95" stroke-linecap="round" stroke-linejoin="round" points="17245,4224 17245,3552 16950,3552 16950,4224 "/>
  <line fill="none" stroke="black" stroke-width="7.31" stroke-linecap="round" stroke-linejoin="round" x1="13185" y1="2847" x2="13185" y2= "2968" />
  <path fill="black" stroke="black" stroke-width="7.62" stroke-linecap="round" stroke-linejoin="round" d="M15198 3031c0,-35 -28,-63 -62,-63 -35,0 -63,28 -63,63 0,34 28,62 63,62 34,0 62,-28 62,-62z"/>
  <path fill="none" stroke="black" stroke-width="21.95" stroke-linecap="round" stroke-linejoin="round" d="M15198 3031c0,-35 -28,-63 -62,-63 -35,0 -63,28 -63,63 0,34 28,62 63,62 34,0 62,-28 62,-62"/>
  <path fill="black" stroke="black" stroke-width="7.62" stroke-linecap="round" stroke-linejoin="round" d="M15196 72c0,-33 -27,-61 -61,-61 -35,0 -62,28 -62,61 0,36 27,63 62,63 34,0 61,-27 61,-63z"/>
  <path fill="none" stroke="black" stroke-width="21.95" stroke-linecap="round" stroke-linejoin="round" d="M15196 72c0,-33 -27,-61 -61,-61 -35,0 -62,28 -62,61 0,36 27,63 62,63 34,0 61,-27 61,-63"/>
  <path fill="black" stroke="black" stroke-width="7.62" stroke-linecap="round" stroke-linejoin="round" d="M17160 72c0,-33 -28,-61 -62,-61 -34,0 -61,28 -61,61 0,36 27,63 61,63 34,0 62,-27 62,-63z"/>
  <path fill="none" stroke="black" stroke-width="21.95" stroke-linecap="round" stroke-linejoin="round" d="M17160 72c0,-33 -28,-61 -62,-61 -34,0 -61,28 -61,61 0,36 27,63 61,63 34,0 62,-27 62,-63"/>
  <path fill="black" stroke="black" stroke-width="7.62" stroke-linecap="round" stroke-linejoin="round" d="M15198 5988c0,-33 -28,-61 -62,-61 -35,0 -63,28 -63,61 0,34 28,62 63,62 34,0 62,-28 62,-62z"/>
  <path fill="none" stroke="black" stroke-width="21.95" stroke-linecap="round" stroke-linejoin="round" d="M15198 5988c0,-33 -28,-61 -62,-61 -35,0 -63,28 -63,61 0,34 28,62 63,62 34,0 62,-28 62,-62"/>
  <path fill="black" stroke="black" stroke-width="7.62" stroke-linecap="round" stroke-linejoin="round" d="M17160 5988c0,-33 -28,-61 -62,-61 -34,0 -61,28 -61,61 0,34 27,62 61,62 34,0 62,-28 62,-62z"/>
  <path fill="none" stroke="black" stroke-width="21.95" stroke-linecap="round" stroke-linejoin="round" d="M17160 5988c0,-33 -28,-61 -62,-61 -34,0 -61,28 -61,61 0,34 27,62 61,62 34,0 62,-28 62,-62"/>
  <line fill="none" stroke="#00B050" stroke-width="21.95" stroke-linecap="round" stroke-linejoin="round" x1="15956" y1="2510" x2="13485" y2= "2510" />
  <path fill="#00B050" d="M13333 2510l202 -101c-32,64 -32,139 0,203l-202 -102 0 0z"/>
  <line fill="none" stroke="#00B050" stroke-width="21.95" stroke-linecap="round" stroke-linejoin="round" x1="15956" y1="1396" x2="15956" y2= "2510" />
  <line fill="none" stroke="#00B050" stroke-width="21.95" stroke-linecap="round" stroke-linejoin="round" x1="19578" y1="3889" x2="17398" y2= "3889" />
  <path fill="#00B050" d="M17245 3889l202 -103c-33,65 -33,140 0,204l-202 -101 0 0z"/>
  <line fill="none" stroke="#00B050" stroke-width="21.95" stroke-linecap="round" stroke-linejoin="round" x1="19577" y1="3031" x2="23665" y2= "3031" />
  <line fill="none" stroke="#00B050" stroke-width="21.95" stroke-linecap="round" stroke-linejoin="round" x1="19577" y1="3031" x2="19577" y2= "3886" />
  <line fill="none" stroke="#433AB7" stroke-width="21.95" stroke-linecap="round" stroke-linejoin="round" x1="12812" y1="5248" x2="12812" y2= "5536" />
  <path fill="#433AB7" d="M12812 5690l-101 -202c64,30 139,30 203,0l-102 202 0 0z"/>
  <line fill="none" stroke="#795548" stroke-width="21.95" stroke-linecap="round" stroke-linejoin="round" x1="16715" y1="4110" x2="16715" y2= "3820" />
  <path fill="#795548" d="M16715 3666l101 204c-65,-32 -139,-32 -204,0l103 -204 0 0z"/>
 </g>
</svg>
