<?xml version="1.0" encoding="UTF-8"?>
<!DOCTYPE svg PUBLIC "-//W3C//DTD SVG 1.0//EN" "http://www.w3.org/TR/2001/REC-SVG-20010904/DTD/svg10.dtd">
<!-- Creator: CorelDRAW X7 -->
<svg xmlns="http://www.w3.org/2000/svg" xml:space="preserve" width="100%" height="100%" version="1.0" shape-rendering="geometricPrecision" text-rendering="geometricPrecision" image-rendering="optimizeQuality" fill-rule="evenodd" clip-rule="evenodd"
viewBox="0 0 23840 7806"
 xmlns:xlink="http://www.w3.org/1999/xlink">
 <g id="Слой_x0020_1">
  <metadata id="CorelCorpID_0Corel-Layer"/>
  <line fill="none" stroke="#00B050" stroke-width="21.94" stroke-linecap="round" stroke-linejoin="round" x1="21322" y1="4213" x2="22359" y2= "4213" />
  <path fill="#00B050" d="M21169 4213l202 -102c-31,64 -31,139 0,203l-202 -101 0 0z"/>
  <line fill="none" stroke="black" stroke-width="21.94" stroke-linecap="round" stroke-linejoin="round" x1="6486" y1="884" x2="6486" y2= "6188" />
  <line fill="none" stroke="black" stroke-width="21.94" stroke-linecap="round" stroke-linejoin="round" x1="8034" y1="2223" x2="8034" y2= "6188" />
  <line fill="none" stroke="#0070C0" stroke-width="21.94" stroke-linecap="round" stroke-linejoin="round" x1="11177" y1="3107" x2="11177" y2= "5165" />
  <path fill="#0070C0" d="M11177 5318l-101 -202c63,32 138,32 202,0l-101 202 0 0z"/>
  <line fill="none" stroke="#F5EFE5" stroke-width="21.94" stroke-linecap="round" stroke-linejoin="round" x1="23829" y1="1030" x2="23829" y2= "4526" />
  <line fill="none" stroke="#F5EFE5" stroke-width="21.94" stroke-linecap="round" stroke-linejoin="round" x1="17692" y1="11" x2="11170" y2= "11" />
  <line fill="none" stroke="#F5EFE5" stroke-width="21.94" stroke-linecap="round" stroke-linejoin="round" x1="11" y1="1054" x2="11" y2= "4551" />
  <line fill="none" stroke="#5D723D" stroke-width="21.94" stroke-linecap="round" stroke-linejoin="round" x1="1974" y1="4213" x2="2550" y2= "4213" />
  <path fill="#5D723D" d="M2704 4213l-202 101c32,-64 32,-139 0,-203l202 102 0 0z"/>
  <line fill="none" stroke="black" stroke-width="21.94" stroke-linecap="round" stroke-linejoin="round" x1="3169" y1="2223" x2="3169" y2= "6188" />
  <line fill="none" stroke="black" stroke-width="21.94" stroke-linecap="round" stroke-linejoin="round" x1="11594" y1="2223" x2="4317" y2= "2223" />
  <line fill="none" stroke="black" stroke-width="21.94" stroke-linecap="round" stroke-linejoin="round" x1="3166" y1="6203" x2="11594" y2= "6203" />
  <polygon fill="#D9D9D9" points="2727,3770 2727,4655 3611,4655 3611,3770 "/>
  <polygon fill="none" stroke="black" stroke-width="21.94" stroke-linecap="round" stroke-linejoin="round" points="2727,3770 2727,4655 3611,4655 3611,3770 "/>
  <polygon fill="black" fill-rule="nonzero" points="2941,4068 2973,4068 2973,4280 3115,4068 3151,4068 3151,4336 3118,4336 3118,4124 2976,4336 2941,4336 "/>
  <polygon id="1" fill="black" fill-rule="nonzero" points="3209,4068 3420,4068 3420,4336 3384,4336 3384,4099 3245,4099 3245,4336 3209,4336 "/>
  <line fill="none" stroke="red" stroke-width="21.94" stroke-linecap="round" stroke-linejoin="round" x1="11040" y1="2002" x2="11329" y2= "2002" />
  <path fill="red" d="M11483 2002l-202 101c31,-65 31,-139 0,-202l202 101 0 0z"/>
  <line fill="none" stroke="black" stroke-width="21.94" stroke-linecap="round" stroke-linejoin="round" x1="3165" y1="2223" x2="3826" y2= "2223" />
  <line fill="none" stroke="black" stroke-width="21.94" stroke-linecap="round" stroke-linejoin="round" x1="11815" y1="1781" x2="11815" y2= "6656" />
  <path fill="none" stroke="black" stroke-width="21.94" stroke-linecap="round" stroke-linejoin="round" d="M11815 1781c0,-244 199,-443 443,-443"/>
  <path fill="none" stroke="black" stroke-width="21.94" stroke-linecap="round" stroke-linejoin="round" d="M11819 6646c0,244 199,441 443,441"/>
  <line fill="none" stroke="black" stroke-width="21.94" stroke-linecap="round" stroke-linejoin="round" x1="12258" y1="1781" x2="12258" y2= "6637" />
  <line fill="none" stroke="black" stroke-width="21.94" stroke-linecap="round" stroke-linejoin="round" x1="12258" y1="1781" x2="13574" y2= "1781" />
  <line fill="none" stroke="black" stroke-width="21.94" stroke-linecap="round" stroke-linejoin="round" x1="12258" y1="6646" x2="13563" y2= "6646" />
  <line fill="none" stroke="black" stroke-width="21.94" stroke-linecap="round" stroke-linejoin="round" x1="11594" y1="2223" x2="12479" y2= "2443" />
  <line fill="none" stroke="black" stroke-width="21.94" stroke-linecap="round" stroke-linejoin="round" x1="11594" y1="2664" x2="11815" y2= "2610" />
  <line fill="none" stroke="black" stroke-width="21.94" stroke-linecap="round" stroke-linejoin="round" x1="12258" y1="2499" x2="12479" y2= "2443" />
  <line fill="none" stroke="black" stroke-width="21.94" stroke-linecap="round" stroke-linejoin="round" x1="11594" y1="2664" x2="12479" y2= "2887" />
  <line fill="none" stroke="black" stroke-width="21.94" stroke-linecap="round" stroke-linejoin="round" x1="12258" y1="2941" x2="12479" y2= "2887" />
  <line fill="none" stroke="black" stroke-width="21.94" stroke-linecap="round" stroke-linejoin="round" x1="11594" y1="3118" x2="11815" y2= "3062" />
  <line fill="none" stroke="black" stroke-width="21.94" stroke-linecap="round" stroke-linejoin="round" x1="11594" y1="3118" x2="12479" y2= "3328" />
  <line fill="none" stroke="black" stroke-width="21.94" stroke-linecap="round" stroke-linejoin="round" x1="12258" y1="3384" x2="12479" y2= "3328" />
  <line fill="none" stroke="black" stroke-width="21.94" stroke-linecap="round" stroke-linejoin="round" x1="11594" y1="3561" x2="11815" y2= "3505" />
  <line fill="none" stroke="black" stroke-width="21.94" stroke-linecap="round" stroke-linejoin="round" x1="12258" y1="3833" x2="12479" y2= "3777" />
  <line fill="none" stroke="black" stroke-width="21.94" stroke-linecap="round" stroke-linejoin="round" x1="11594" y1="4003" x2="11815" y2= "3947" />
  <line fill="none" stroke="black" stroke-width="21.94" stroke-linecap="round" stroke-linejoin="round" x1="11594" y1="3561" x2="12479" y2= "3777" />
  <line fill="none" stroke="black" stroke-width="21.94" stroke-linecap="round" stroke-linejoin="round" x1="11594" y1="4003" x2="12479" y2= "4213" />
  <line fill="none" stroke="black" stroke-width="21.94" stroke-linecap="round" stroke-linejoin="round" x1="11594" y1="4434" x2="12479" y2= "4655" />
  <line fill="none" stroke="black" stroke-width="21.94" stroke-linecap="round" stroke-linejoin="round" x1="12258" y1="4267" x2="12479" y2= "4213" />
  <line fill="none" stroke="black" stroke-width="21.94" stroke-linecap="round" stroke-linejoin="round" x1="11594" y1="4434" x2="11815" y2= "4379" />
  <line fill="none" stroke="black" stroke-width="21.94" stroke-linecap="round" stroke-linejoin="round" x1="12258" y1="4711" x2="12479" y2= "4655" />
  <line fill="none" stroke="black" stroke-width="21.94" stroke-linecap="round" stroke-linejoin="round" x1="11594" y1="4876" x2="11815" y2= "4820" />
  <line fill="none" stroke="black" stroke-width="21.94" stroke-linecap="round" stroke-linejoin="round" x1="13567" y1="1781" x2="13567" y2= "6649" />
  <line fill="none" stroke="black" stroke-width="21.94" stroke-linecap="round" stroke-linejoin="round" x1="14010" y1="1781" x2="14010" y2= "6634" />
  <line fill="none" stroke="black" stroke-width="21.94" stroke-linecap="round" stroke-linejoin="round" x1="12258" y1="1338" x2="13580" y2= "1338" />
  <line fill="none" stroke="black" stroke-width="21.94" stroke-linecap="round" stroke-linejoin="round" x1="12258" y1="7087" x2="13569" y2= "7087" />
  <path fill="none" stroke="black" stroke-width="21.94" stroke-linecap="round" stroke-linejoin="round" d="M13567 1338c244,0 443,199 443,443"/>
  <path fill="none" stroke="black" stroke-width="21.94" stroke-linecap="round" stroke-linejoin="round" d="M13570 7087c244,0 443,-197 443,-441"/>
  <line fill="none" stroke="black" stroke-width="21.94" stroke-linecap="round" stroke-linejoin="round" x1="4319" y1="2220" x2="3837" y2= "2018" />
  <line fill="none" stroke="black" stroke-width="21.94" stroke-linecap="round" stroke-linejoin="round" x1="12258" y1="5152" x2="12479" y2= "5097" />
  <line fill="none" stroke="black" stroke-width="21.94" stroke-linecap="round" stroke-linejoin="round" x1="11594" y1="5323" x2="11815" y2= "5268" />
  <line fill="none" stroke="black" stroke-width="21.94" stroke-linecap="round" stroke-linejoin="round" x1="11594" y1="5323" x2="12479" y2= "5533" />
  <line fill="none" stroke="black" stroke-width="21.94" stroke-linecap="round" stroke-linejoin="round" x1="11594" y1="5753" x2="12479" y2= "5976" />
  <line fill="none" stroke="black" stroke-width="21.94" stroke-linecap="round" stroke-linejoin="round" x1="12258" y1="5588" x2="12479" y2= "5533" />
  <line fill="none" stroke="black" stroke-width="21.94" stroke-linecap="round" stroke-linejoin="round" x1="11594" y1="5753" x2="11815" y2= "5699" />
  <line fill="none" stroke="black" stroke-width="21.94" stroke-linecap="round" stroke-linejoin="round" x1="12258" y1="6030" x2="12479" y2= "5976" />
  <line fill="none" stroke="black" stroke-width="21.94" stroke-linecap="round" stroke-linejoin="round" x1="11594" y1="6197" x2="11815" y2= "6141" />
  <line fill="none" stroke="black" stroke-width="21.94" stroke-linecap="round" stroke-linejoin="round" x1="11594" y1="4876" x2="12479" y2= "5097" />
  <path fill="black" stroke="black" stroke-width="7.62" stroke-linecap="round" stroke-linejoin="round" d="M8095 6203c0,-34 -28,-62 -61,-62 -34,0 -62,28 -62,62 0,35 28,62 62,62 33,0 61,-27 61,-62z"/>
  <path fill="none" stroke="black" stroke-width="21.94" stroke-linecap="round" stroke-linejoin="round" d="M8095 6203c0,-34 -28,-62 -61,-62 -34,0 -62,28 -62,62 0,35 28,62 62,62 33,0 61,-27 61,-62"/>
  <path fill="black" stroke="black" stroke-width="7.62" stroke-linecap="round" stroke-linejoin="round" d="M8095 2223c0,-34 -28,-62 -61,-62 -34,0 -62,28 -62,62 0,33 28,61 62,61 33,0 61,-28 61,-61z"/>
  <path fill="none" stroke="black" stroke-width="21.94" stroke-linecap="round" stroke-linejoin="round" d="M8095 2223c0,-34 -28,-62 -61,-62 -34,0 -62,28 -62,62 0,33 28,61 62,61 33,0 61,-28 61,-61"/>
  <line fill="none" stroke="black" stroke-width="21.94" stroke-linecap="round" stroke-linejoin="round" x1="4939" y1="884" x2="6486" y2= "884" />
  <line fill="none" stroke="black" stroke-width="21.94" stroke-linecap="round" stroke-linejoin="round" x1="4939" y1="899" x2="4939" y2= "2223" />
  <path fill="black" stroke="black" stroke-width="7.62" stroke-linecap="round" stroke-linejoin="round" d="M5000 2223c0,-34 -28,-62 -61,-62 -35,0 -63,28 -63,62 0,33 28,61 63,61 33,0 61,-28 61,-61z"/>
  <path fill="none" stroke="black" stroke-width="21.94" stroke-linecap="round" stroke-linejoin="round" d="M5000 2223c0,-34 -28,-62 -61,-62 -35,0 -63,28 -63,62 0,33 28,61 63,61 33,0 61,-28 61,-61"/>
  <path fill="black" stroke="black" stroke-width="7.62" stroke-linecap="round" stroke-linejoin="round" d="M6548 6203c0,-34 -28,-62 -62,-62 -35,0 -63,28 -63,62 0,35 28,62 63,62 34,0 62,-27 62,-62z"/>
  <path fill="none" stroke="black" stroke-width="21.94" stroke-linecap="round" stroke-linejoin="round" d="M6548 6203c0,-34 -28,-62 -62,-62 -35,0 -63,28 -63,62 0,35 28,62 63,62 34,0 62,-27 62,-62"/>
  <line fill="none" stroke="#F5EFE5" stroke-width="21.94" stroke-linecap="round" stroke-linejoin="round" x1="17056" y1="7795" x2="10535" y2= "7795" />
  <line fill="none" stroke="black" stroke-width="21.94" stroke-linecap="round" stroke-linejoin="round" x1="14237" y1="6204" x2="13352" y2= "5983" />
  <line fill="none" stroke="black" stroke-width="21.94" stroke-linecap="round" stroke-linejoin="round" x1="14237" y1="5762" x2="14016" y2= "5818" />
  <line fill="none" stroke="black" stroke-width="21.94" stroke-linecap="round" stroke-linejoin="round" x1="13573" y1="5928" x2="13352" y2= "5983" />
  <line fill="none" stroke="black" stroke-width="21.94" stroke-linecap="round" stroke-linejoin="round" x1="14237" y1="5762" x2="13352" y2= "5541" />
  <line fill="none" stroke="black" stroke-width="21.94" stroke-linecap="round" stroke-linejoin="round" x1="13573" y1="5486" x2="13352" y2= "5541" />
  <line fill="none" stroke="black" stroke-width="21.94" stroke-linecap="round" stroke-linejoin="round" x1="14237" y1="5309" x2="14016" y2= "5364" />
  <line fill="none" stroke="black" stroke-width="21.94" stroke-linecap="round" stroke-linejoin="round" x1="14237" y1="5309" x2="13352" y2= "5098" />
  <line fill="none" stroke="black" stroke-width="21.94" stroke-linecap="round" stroke-linejoin="round" x1="13573" y1="5043" x2="13352" y2= "5098" />
  <line fill="none" stroke="black" stroke-width="21.94" stroke-linecap="round" stroke-linejoin="round" x1="14237" y1="4866" x2="14016" y2= "4921" />
  <line fill="none" stroke="black" stroke-width="21.94" stroke-linecap="round" stroke-linejoin="round" x1="13573" y1="4594" x2="13352" y2= "4649" />
  <line fill="none" stroke="black" stroke-width="21.94" stroke-linecap="round" stroke-linejoin="round" x1="14237" y1="4424" x2="14016" y2= "4479" />
  <line fill="none" stroke="black" stroke-width="21.94" stroke-linecap="round" stroke-linejoin="round" x1="14237" y1="4866" x2="13352" y2= "4649" />
  <line fill="none" stroke="black" stroke-width="21.94" stroke-linecap="round" stroke-linejoin="round" x1="14237" y1="4424" x2="13352" y2= "4213" />
  <line fill="none" stroke="black" stroke-width="21.94" stroke-linecap="round" stroke-linejoin="round" x1="14237" y1="3992" x2="13352" y2= "3772" />
  <line fill="none" stroke="black" stroke-width="21.94" stroke-linecap="round" stroke-linejoin="round" x1="13573" y1="4159" x2="13352" y2= "4213" />
  <line fill="none" stroke="black" stroke-width="21.94" stroke-linecap="round" stroke-linejoin="round" x1="14237" y1="3992" x2="14016" y2= "4048" />
  <line fill="none" stroke="black" stroke-width="21.94" stroke-linecap="round" stroke-linejoin="round" x1="13573" y1="3716" x2="13352" y2= "3772" />
  <line fill="none" stroke="black" stroke-width="21.94" stroke-linecap="round" stroke-linejoin="round" x1="14237" y1="3551" x2="14016" y2= "3606" />
  <line fill="none" stroke="black" stroke-width="21.94" stroke-linecap="round" stroke-linejoin="round" x1="13573" y1="3274" x2="13352" y2= "3330" />
  <line fill="none" stroke="black" stroke-width="21.94" stroke-linecap="round" stroke-linejoin="round" x1="14237" y1="3105" x2="14016" y2= "3159" />
  <line fill="none" stroke="black" stroke-width="21.94" stroke-linecap="round" stroke-linejoin="round" x1="14237" y1="3105" x2="13352" y2= "2894" />
  <line fill="none" stroke="black" stroke-width="21.94" stroke-linecap="round" stroke-linejoin="round" x1="14237" y1="2673" x2="13352" y2= "2452" />
  <line fill="none" stroke="black" stroke-width="21.94" stroke-linecap="round" stroke-linejoin="round" x1="13573" y1="2838" x2="13352" y2= "2894" />
  <line fill="none" stroke="black" stroke-width="21.94" stroke-linecap="round" stroke-linejoin="round" x1="14237" y1="2673" x2="14016" y2= "2729" />
  <line fill="none" stroke="black" stroke-width="21.94" stroke-linecap="round" stroke-linejoin="round" x1="13573" y1="2397" x2="13352" y2= "2452" />
  <line fill="none" stroke="black" stroke-width="21.94" stroke-linecap="round" stroke-linejoin="round" x1="14237" y1="2230" x2="14016" y2= "2285" />
  <line fill="none" stroke="black" stroke-width="21.94" stroke-linecap="round" stroke-linejoin="round" x1="14237" y1="3551" x2="13352" y2= "3330" />
  <line fill="none" stroke="black" stroke-width="21.94" stroke-linecap="round" stroke-linejoin="round" x1="20895" y1="2223" x2="14246" y2= "2223" />
  <line fill="none" stroke="black" stroke-width="21.94" stroke-linecap="round" stroke-linejoin="round" x1="14244" y1="6203" x2="20911" y2= "6203" />
  <line fill="none" stroke="black" stroke-width="21.94" stroke-linecap="round" stroke-linejoin="round" x1="17764" y1="2223" x2="17764" y2= "6188" />
  <path fill="black" stroke="black" stroke-width="7.62" stroke-linecap="round" stroke-linejoin="round" d="M17825 6203c0,-34 -28,-62 -61,-62 -34,0 -62,28 -62,62 0,35 28,62 62,62 33,0 61,-27 61,-62z"/>
  <path fill="none" stroke="black" stroke-width="21.94" stroke-linecap="round" stroke-linejoin="round" d="M17825 6203c0,-34 -28,-62 -61,-62 -34,0 -62,28 -62,62 0,35 28,62 62,62 33,0 61,-27 61,-62"/>
  <path fill="black" stroke="black" stroke-width="7.62" stroke-linecap="round" stroke-linejoin="round" d="M17825 2223c0,-34 -28,-62 -61,-62 -34,0 -62,28 -62,62 0,33 28,61 62,61 33,0 61,-28 61,-61z"/>
  <path fill="none" stroke="black" stroke-width="21.94" stroke-linecap="round" stroke-linejoin="round" d="M17825 2223c0,-34 -28,-62 -61,-62 -34,0 -62,28 -62,62 0,33 28,61 62,61 33,0 61,-28 61,-61"/>
  <line fill="none" stroke="red" stroke-width="21.94" stroke-linecap="round" stroke-linejoin="round" x1="14339" y1="2002" x2="14628" y2= "2002" />
  <path fill="red" d="M14781 2002l-202 101c31,-65 31,-139 0,-202l202 101 0 0z"/>
  <line fill="none" stroke="black" stroke-width="21.94" stroke-linecap="round" stroke-linejoin="round" x1="20904" y1="2223" x2="20904" y2= "6188" />
  <polygon fill="#D9D9D9" points="20638,3549 20638,4876 21169,4876 21169,3549 "/>
  <polygon fill="none" stroke="black" stroke-width="21.94" stroke-linecap="round" stroke-linejoin="round" points="20638,3549 20638,4876 21169,4876 21169,3549 "/>
  <line fill="none" stroke="black" stroke-width="21.94" stroke-linecap="round" stroke-linejoin="round" x1="19754" y1="2223" x2="19754" y2= "6188" />
  <path fill="black" stroke="black" stroke-width="7.62" stroke-linecap="round" stroke-linejoin="round" d="M19816 6203c0,-34 -28,-62 -62,-62 -35,0 -63,28 -63,62 0,35 28,62 63,62 34,0 62,-27 62,-62z"/>
  <path fill="none" stroke="black" stroke-width="21.94" stroke-linecap="round" stroke-linejoin="round" d="M19816 6203c0,-34 -28,-62 -62,-62 -35,0 -63,28 -63,62 0,35 28,62 63,62 34,0 62,-27 62,-62"/>
  <path fill="black" stroke="black" stroke-width="7.62" stroke-linecap="round" stroke-linejoin="round" d="M19816 2223c0,-34 -28,-62 -62,-62 -35,0 -63,28 -63,62 0,33 28,61 63,61 34,0 62,-28 62,-61z"/>
  <path fill="none" stroke="black" stroke-width="21.94" stroke-linecap="round" stroke-linejoin="round" d="M19816 2223c0,-34 -28,-62 -62,-62 -35,0 -63,28 -63,62 0,33 28,61 63,61 34,0 62,-28 62,-61"/>
  <line fill="none" stroke="#0070C0" stroke-width="21.94" stroke-linecap="round" stroke-linejoin="round" x1="14642" y1="3107" x2="14642" y2= "5165" />
  <path fill="#0070C0" d="M14642 5318l-101 -202c65,32 139,32 202,0l-101 202 0 0z"/>
 </g>
</svg>
