<?xml version="1.0" encoding="UTF-8"?>
<!DOCTYPE svg PUBLIC "-//W3C//DTD SVG 1.0//EN" "http://www.w3.org/TR/2001/REC-SVG-20010904/DTD/svg10.dtd">
<!-- Creator: CorelDRAW X7 -->
<svg xmlns="http://www.w3.org/2000/svg" xml:space="preserve" width="100%" height="100%" version="1.0" shape-rendering="geometricPrecision" text-rendering="geometricPrecision" image-rendering="optimizeQuality" fill-rule="evenodd" clip-rule="evenodd"
viewBox="0 0 22798 6029"
 xmlns:xlink="http://www.w3.org/1999/xlink">
 <g id="Слой_x0020_1">
  <metadata id="CorelCorpID_0Corel-Layer"/>
  <line fill="none" stroke="#00B050" stroke-width="21.96" stroke-linecap="round" stroke-linejoin="round" x1="1181" y1="4639" x2="20" y2= "4639" />
  <line fill="none" stroke="#00B050" stroke-width="21.96" stroke-linecap="round" stroke-linejoin="round" x1="1173" y1="1358" x2="11" y2= "1358" />
  <line fill="none" stroke="black" stroke-width="21.96" stroke-linecap="round" stroke-linejoin="round" x1="2001" y1="2274" x2="2001" y2= "5959" />
  <g>
   <path fill="black" fill-rule="nonzero" d="M16493 2263c8,0 14,5 14,11 0,6 -6,11 -14,11l0 -22zm-14492 0l14492 0 0 22 -14492 0 0 -22zm0 22c-8,0 -14,-5 -14,-11 0,-6 6,-11 14,-11l0 22z"/>
  </g>
  <line fill="none" stroke="black" stroke-width="21.96" stroke-linecap="round" stroke-linejoin="round" x1="1998" y1="5956" x2="22695" y2= "5956" />
  <line fill="none" stroke="#00B050" stroke-width="21.96" stroke-linecap="round" stroke-linejoin="round" x1="1179" y1="1358" x2="1179" y2= "4642" />
  <line fill="none" stroke="#F5EFE5" stroke-width="21.96" stroke-linecap="round" stroke-linejoin="round" x1="22787" y1="2274" x2="22787" y2= "5773" />
  <line fill="none" stroke="black" stroke-width="21.96" stroke-linecap="round" stroke-linejoin="round" x1="7337" y1="5959" x2="7337" y2= "866" />
  <path fill="black" stroke="black" stroke-width="7.62" stroke-linecap="round" stroke-linejoin="round" d="M7399 2274c0,-35 -28,-63 -62,-63 -35,0 -61,28 -61,63 0,34 26,62 61,62 34,0 62,-28 62,-62z"/>
  <path fill="none" stroke="black" stroke-width="21.96" stroke-linecap="round" stroke-linejoin="round" d="M7399 2274c0,-35 -28,-63 -62,-63 -35,0 -61,28 -61,63 0,34 26,62 61,62 34,0 62,-28 62,-62"/>
  <line fill="none" stroke="red" stroke-width="21.96" stroke-linecap="round" stroke-linejoin="round" x1="10068" y1="1087" x2="10357" y2= "1087" />
  <path fill="red" d="M10510 1087l-202 101c32,-64 32,-139 0,-202l202 101 0 0z"/>
  <line fill="none" stroke="#F5EFE5" stroke-width="21.96" stroke-linecap="round" stroke-linejoin="round" x1="16717" y1="11" x2="10189" y2= "11" />
  <line fill="none" stroke="black" stroke-width="21.96" stroke-linecap="round" stroke-linejoin="round" x1="5711" y1="2274" x2="5711" y2= "865" />
  <line fill="none" stroke="black" stroke-width="21.96" stroke-linecap="round" stroke-linejoin="round" x1="5711" y1="865" x2="7336" y2= "865" />
  <path fill="black" stroke="black" stroke-width="7.62" stroke-linecap="round" stroke-linejoin="round" d="M5775 2274c0,-35 -28,-63 -62,-63 -33,0 -61,28 -61,63 0,34 28,62 61,62 34,0 62,-28 62,-62z"/>
  <path fill="none" stroke="black" stroke-width="21.96" stroke-linecap="round" stroke-linejoin="round" d="M5775 2274c0,-35 -28,-63 -62,-63 -33,0 -61,28 -61,63 0,34 28,62 61,62 34,0 62,-28 62,-62"/>
  <line fill="none" stroke="black" stroke-width="21.96" stroke-linecap="round" stroke-linejoin="round" x1="22693" y1="5962" x2="22693" y2= "2273" />
  <path fill="black" stroke="black" stroke-width="7.62" stroke-linecap="round" stroke-linejoin="round" d="M7399 5956c0,-35 -28,-61 -62,-61 -35,0 -61,26 -61,61 0,34 26,62 61,62 34,0 62,-28 62,-62z"/>
  <path fill="none" stroke="black" stroke-width="21.96" stroke-linecap="round" stroke-linejoin="round" d="M7399 5956c0,-35 -28,-61 -62,-61 -35,0 -61,26 -61,61 0,34 26,62 61,62 34,0 62,-28 62,-62"/>
  <line fill="none" stroke="#00B050" stroke-width="21.96" stroke-linecap="round" stroke-linejoin="round" x1="1181" y1="4115" x2="1419" y2= "4115" />
  <path fill="#00B050" d="M1573 4115l-202 101c31,-63 31,-138 0,-202l202 101 0 0z"/>
  <polygon fill="#D9D9D9" points="1573,3673 1573,4558 2459,4558 2459,3673 "/>
  <polygon fill="none" stroke="black" stroke-width="21.96" stroke-linecap="round" stroke-linejoin="round" points="2459,3673 1573,3673 1573,4558 2459,4558 "/>
  <polygon fill="black" fill-rule="nonzero" points="2132,4282 2100,4282 2100,4070 1957,4282 1922,4282 1922,4014 1954,4014 1954,4226 2096,4014 2132,4014 "/>
  <line fill="none" stroke="black" stroke-width="21.96" stroke-linecap="round" stroke-linejoin="round" x1="3960" y1="2273" x2="3960" y2= "5968" />
  <path fill="black" stroke="black" stroke-width="7.62" stroke-linecap="round" stroke-linejoin="round" d="M4021 2274c0,-35 -28,-63 -61,-63 -36,0 -63,28 -63,63 0,34 27,62 63,62 33,0 61,-28 61,-62z"/>
  <path fill="none" stroke="black" stroke-width="21.96" stroke-linecap="round" stroke-linejoin="round" d="M4021 2274c0,-35 -28,-63 -61,-63 -36,0 -63,28 -63,63 0,34 27,62 63,62 33,0 61,-28 61,-62"/>
  <path fill="black" stroke="black" stroke-width="7.62" stroke-linecap="round" stroke-linejoin="round" d="M4021 5956c0,-35 -28,-61 -61,-61 -36,0 -63,26 -63,61 0,34 27,62 63,62 33,0 61,-28 61,-62z"/>
  <path fill="none" stroke="black" stroke-width="21.96" stroke-linecap="round" stroke-linejoin="round" d="M4021 5956c0,-35 -28,-61 -61,-61 -36,0 -63,26 -63,61 0,34 27,62 63,62 33,0 61,-28 61,-62"/>
  <line fill="none" stroke="black" stroke-width="21.96" stroke-linecap="round" stroke-linejoin="round" x1="21049" y1="2274" x2="18265" y2= "2274" />
  <line fill="none" stroke="black" stroke-width="21.96" stroke-linecap="round" stroke-linejoin="round" x1="12070" y1="2286" x2="12070" y2= "781" />
  <line fill="none" stroke="black" stroke-width="21.96" stroke-linecap="round" stroke-linejoin="round" x1="15171" y1="2286" x2="15171" y2= "793" />
  <line fill="none" stroke="black" stroke-width="21.96" stroke-linecap="round" stroke-linejoin="round" x1="12070" y1="785" x2="15173" y2= "785" />
  <path fill="black" stroke="black" stroke-width="7.62" stroke-linecap="round" stroke-linejoin="round" d="M12132 2274c0,-35 -28,-63 -62,-63 -35,0 -61,28 -61,63 0,34 26,62 61,62 34,0 62,-28 62,-62z"/>
  <path fill="none" stroke="black" stroke-width="21.96" stroke-linecap="round" stroke-linejoin="round" d="M12132 2274c0,-35 -28,-63 -62,-63 -35,0 -61,28 -61,63 0,34 26,62 61,62 34,0 62,-28 62,-62"/>
  <path fill="black" stroke="black" stroke-width="7.62" stroke-linecap="round" stroke-linejoin="round" d="M15233 2274c0,-35 -28,-63 -62,-63 -34,0 -61,28 -61,63 0,34 27,62 61,62 34,0 62,-28 62,-62z"/>
  <path fill="none" stroke="black" stroke-width="21.96" stroke-linecap="round" stroke-linejoin="round" d="M15233 2274c0,-35 -28,-63 -62,-63 -34,0 -61,28 -61,63 0,34 27,62 61,62 34,0 62,-28 62,-62"/>
  <polygon fill="#D9D9D9" points="12887,1993 12887,2579 14354,2579 14354,1993 "/>
  <polygon fill="none" stroke="black" stroke-width="21.96" stroke-linecap="round" stroke-linejoin="round" points="12887,2579 14354,2579 14354,1993 12887,1993 "/>
  <line fill="none" stroke="#00B050" stroke-width="21.96" stroke-linecap="round" stroke-linejoin="round" x1="13621" y1="3869" x2="13621" y2= "2733" />
  <path fill="#00B050" d="M13621 2579l101 203c-63,-32 -139,-32 -202,0l101 -203 0 0z"/>
  <line fill="none" stroke="black" stroke-width="21.96" stroke-linecap="round" stroke-linejoin="round" x1="14023" y1="1883" x2="13110" y2= "2797" />
  <path fill="black" stroke="black" stroke-width="7.62" stroke-linecap="round" stroke-linejoin="round" d="M14132 1775l-72 214c-22,-67 -75,-120 -142,-142l214 -72 0 0z"/>
  <line fill="none" stroke="black" stroke-width="21.96" stroke-linecap="round" stroke-linejoin="round" x1="15830" y1="2286" x2="15830" y2= "804" />
  <line fill="none" stroke="black" stroke-width="21.96" stroke-linecap="round" stroke-linejoin="round" x1="18932" y1="2286" x2="18932" y2= "781" />
  <line fill="none" stroke="black" stroke-width="21.96" stroke-linecap="round" stroke-linejoin="round" x1="15830" y1="785" x2="18934" y2= "785" />
  <path fill="black" stroke="black" stroke-width="7.62" stroke-linecap="round" stroke-linejoin="round" d="M15893 2274c0,-35 -28,-63 -63,-63 -34,0 -62,28 -62,63 0,34 28,62 62,62 35,0 63,-28 63,-62z"/>
  <path fill="none" stroke="black" stroke-width="21.96" stroke-linecap="round" stroke-linejoin="round" d="M15893 2274c0,-35 -28,-63 -63,-63 -34,0 -62,28 -62,63 0,34 28,62 62,62 35,0 63,-28 63,-62"/>
  <path fill="black" stroke="black" stroke-width="7.62" stroke-linecap="round" stroke-linejoin="round" d="M18994 2274c0,-35 -28,-63 -62,-63 -35,0 -63,28 -63,63 0,34 28,62 63,62 34,0 62,-28 62,-62z"/>
  <path fill="none" stroke="black" stroke-width="21.96" stroke-linecap="round" stroke-linejoin="round" d="M18994 2274c0,-35 -28,-63 -62,-63 -35,0 -63,28 -63,63 0,34 28,62 63,62 34,0 62,-28 62,-62"/>
  <line fill="none" stroke="#00B050" stroke-width="21.96" stroke-linecap="round" stroke-linejoin="round" x1="17382" y1="3869" x2="17382" y2= "2526" />
  <path fill="#00B050" d="M17382 2372l101 203c-65,-31 -139,-31 -204,0l103 -203 0 0z"/>
  <path fill="none" stroke="black" stroke-width="21.96" stroke-linecap="round" stroke-linejoin="round" d="M16496 2266c0,-123 100,-221 221,-221"/>
  <path fill="none" stroke="black" stroke-width="21.96" stroke-linecap="round" stroke-linejoin="round" d="M16717 2045c123,0 221,98 221,221"/>
  <path fill="none" stroke="black" stroke-width="21.96" stroke-linecap="round" stroke-linejoin="round" d="M16938 2266c0,-123 100,-221 221,-221"/>
  <path fill="none" stroke="black" stroke-width="21.96" stroke-linecap="round" stroke-linejoin="round" d="M17159 2045c123,0 223,98 223,221"/>
  <path fill="none" stroke="black" stroke-width="21.96" stroke-linecap="round" stroke-linejoin="round" d="M17382 2266c0,-123 98,-221 221,-221"/>
  <path fill="none" stroke="black" stroke-width="21.96" stroke-linecap="round" stroke-linejoin="round" d="M17603 2045c121,0 221,98 221,221"/>
  <path fill="none" stroke="black" stroke-width="21.96" stroke-linecap="round" stroke-linejoin="round" d="M17824 2266c0,-123 100,-221 221,-221"/>
  <path fill="none" stroke="black" stroke-width="21.96" stroke-linecap="round" stroke-linejoin="round" d="M18045 2045c123,0 221,98 221,221"/>
  <line fill="none" stroke="black" stroke-width="21.96" stroke-linecap="round" stroke-linejoin="round" x1="17784" y1="1883" x2="16869" y2= "2797" />
  <path fill="black" stroke="black" stroke-width="7.62" stroke-linecap="round" stroke-linejoin="round" d="M17893 1775l-72 214c-22,-67 -76,-120 -143,-142l215 -72 0 0z"/>
  <line fill="none" stroke="black" stroke-width="21.96" stroke-linecap="round" stroke-linejoin="round" x1="19591" y1="2286" x2="19591" y2= "793" />
  <line fill="none" stroke="black" stroke-width="21.96" stroke-linecap="round" stroke-linejoin="round" x1="22692" y1="2286" x2="22692" y2= "793" />
  <line fill="none" stroke="black" stroke-width="21.96" stroke-linecap="round" stroke-linejoin="round" x1="19591" y1="785" x2="22695" y2= "785" />
  <path fill="black" stroke="black" stroke-width="7.62" stroke-linecap="round" stroke-linejoin="round" d="M19653 2274c0,-35 -28,-63 -62,-63 -34,0 -61,28 -61,63 0,34 27,62 61,62 34,0 62,-28 62,-62z"/>
  <path fill="none" stroke="black" stroke-width="21.96" stroke-linecap="round" stroke-linejoin="round" d="M19653 2274c0,-35 -28,-63 -62,-63 -34,0 -61,28 -61,63 0,34 27,62 61,62 34,0 62,-28 62,-62"/>
  <path fill="black" stroke="black" stroke-width="7.62" stroke-linecap="round" stroke-linejoin="round" d="M22755 2274c0,-35 -28,-63 -63,-63 -34,0 -62,28 -62,63 0,34 28,62 62,62 35,0 63,-28 63,-62z"/>
  <path fill="none" stroke="black" stroke-width="21.96" stroke-linecap="round" stroke-linejoin="round" d="M22755 2274c0,-35 -28,-63 -63,-63 -34,0 -62,28 -62,63 0,34 28,62 62,62 35,0 63,-28 63,-62"/>
  <line fill="none" stroke="#00B050" stroke-width="21.96" stroke-linecap="round" stroke-linejoin="round" x1="21142" y1="3869" x2="21142" y2= "2733" />
  <path fill="#00B050" d="M21142 2579l101 203c-63,-32 -138,-32 -202,0l101 -203 0 0z"/>
  <line fill="none" stroke="black" stroke-width="21.96" stroke-linecap="round" stroke-linejoin="round" x1="21049" y1="1976" x2="21049" y2= "2596" />
  <line fill="none" stroke="black" stroke-width="21.96" stroke-linecap="round" stroke-linejoin="round" x1="21235" y1="1976" x2="21235" y2= "2596" />
  <line fill="none" stroke="black" stroke-width="21.96" stroke-linecap="round" stroke-linejoin="round" x1="22693" y1="2274" x2="21235" y2= "2274" />
  <line fill="none" stroke="black" stroke-width="21.96" stroke-linecap="round" stroke-linejoin="round" x1="21544" y1="1883" x2="20631" y2= "2797" />
  <path fill="black" stroke="black" stroke-width="7.62" stroke-linecap="round" stroke-linejoin="round" d="M21652 1775l-70 214c-23,-67 -76,-120 -143,-142l213 -72 0 0z"/>
 </g>
</svg>
