<?xml version="1.0" encoding="UTF-8"?>
<!DOCTYPE svg PUBLIC "-//W3C//DTD SVG 1.0//EN" "http://www.w3.org/TR/2001/REC-SVG-20010904/DTD/svg10.dtd">
<!-- Creator: CorelDRAW X7 -->
<svg xmlns="http://www.w3.org/2000/svg" xml:space="preserve" width="100%" height="100%" version="1.0" shape-rendering="geometricPrecision" text-rendering="geometricPrecision" image-rendering="optimizeQuality" fill-rule="evenodd" clip-rule="evenodd"
viewBox="0 0 22832 9388"
 xmlns:xlink="http://www.w3.org/1999/xlink">
 <g id="Слой_x0020_1">
  <metadata id="CorelCorpID_0Corel-Layer"/>
  <line fill="none" stroke="#F5EFE5" stroke-width="21.93" stroke-linecap="round" stroke-linejoin="round" x1="22821" y1="300" x2="22821" y2= "3795" />
  <line fill="none" stroke="#F5EFE5" stroke-width="21.93" stroke-linecap="round" stroke-linejoin="round" x1="17546" y1="11" x2="11027" y2= "11" />
  <line fill="none" stroke="#F5EFE5" stroke-width="21.93" stroke-linecap="round" stroke-linejoin="round" x1="11" y1="325" x2="11" y2= "3819" />
  <line fill="none" stroke="#F5EFE5" stroke-width="21.93" stroke-linecap="round" stroke-linejoin="round" x1="15687" y1="9377" x2="9168" y2= "9377" />
  <line fill="none" stroke="#5D723D" stroke-width="21.93" stroke-linecap="round" stroke-linejoin="round" x1="3388" y1="4580" x2="4455" y2= "4580" />
  <path fill="#5D723D" d="M4609 4580l-203 101c32,-65 32,-139 0,-204l203 103 0 0z"/>
  <line fill="none" stroke="black" stroke-width="21.93" stroke-linecap="round" stroke-linejoin="round" x1="5374" y1="1281" x2="5374" y2= "7879" />
  <g>
   <path fill="black" fill-rule="nonzero" d="M19995 1268c8,0 14,4 14,11 0,6 -6,11 -14,11l0 -22zm-14621 0l14621 0 0 22 -14621 0 0 -22zm0 22c-8,0 -14,-5 -14,-11 0,-7 6,-11 14,-11l0 22z"/>
  </g>
  <line fill="none" stroke="black" stroke-width="21.93" stroke-linecap="round" stroke-linejoin="round" x1="5374" y1="7879" x2="19980" y2= "7879" />
  <polygon fill="#D9D9D9" points="4628,3833 4628,5325 6119,5325 6119,3833 "/>
  <polygon fill="none" stroke="black" stroke-width="21.93" stroke-linecap="round" stroke-linejoin="round" points="4628,3833 4628,5325 6119,5325 6119,3833 "/>
  <line fill="none" stroke="red" stroke-width="21.93" stroke-linecap="round" stroke-linejoin="round" x1="17166" y1="1058" x2="17720" y2= "1058" />
  <path fill="red" d="M17874 1058l-202 101c31,-65 31,-139 0,-202l202 101 0 0z"/>
  <line fill="none" stroke="black" stroke-width="21.93" stroke-linecap="round" stroke-linejoin="round" x1="15078" y1="1279" x2="15078" y2= "7894" />
  <path fill="black" stroke="black" stroke-width="7.62" stroke-linecap="round" stroke-linejoin="round" d="M15140 1279c0,-36 -28,-63 -62,-63 -33,0 -61,27 -61,63 0,33 28,61 61,61 34,0 62,-28 62,-61z"/>
  <path fill="none" stroke="black" stroke-width="21.93" stroke-linecap="round" stroke-linejoin="round" d="M15140 1279c0,-36 -28,-63 -62,-63 -33,0 -61,27 -61,63 0,33 28,61 61,61 34,0 62,-28 62,-61"/>
  <path fill="black" stroke="black" stroke-width="7.62" stroke-linecap="round" stroke-linejoin="round" d="M15140 7879c0,-33 -28,-61 -62,-61 -33,0 -61,28 -61,61 0,36 28,63 61,63 34,0 62,-27 62,-63z"/>
  <path fill="none" stroke="black" stroke-width="21.93" stroke-linecap="round" stroke-linejoin="round" d="M15140 7879c0,-33 -28,-61 -62,-61 -33,0 -61,28 -61,61 0,36 28,63 61,63 34,0 62,-27 62,-63"/>
  <line fill="none" stroke="black" stroke-width="21.93" stroke-linecap="round" stroke-linejoin="round" x1="19980" y1="1279" x2="19980" y2= "7877" />
  <path fill="yellow" stroke="black" stroke-width="7.62" stroke-linecap="round" stroke-linejoin="round" d="M19963 5260c376,0 681,-305 681,-680 0,-377 -305,-682 -681,-682 -376,0 -681,305 -681,682 0,375 305,680 681,680z"/>
  <path fill="none" stroke="black" stroke-width="21.93" stroke-linecap="round" stroke-linejoin="round" d="M19963 5260c376,0 681,-305 681,-680 0,-377 -305,-682 -681,-682 -376,0 -681,305 -681,682 0,375 305,680 681,680"/>
  <line fill="none" stroke="black" stroke-width="21.93" stroke-linecap="round" stroke-linejoin="round" x1="20444" y1="4097" x2="19480" y2= "5061" />
  <line fill="none" stroke="black" stroke-width="21.93" stroke-linecap="round" stroke-linejoin="round" x1="20444" y1="5061" x2="19480" y2= "4097" />
  <line fill="none" stroke="#00B0F0" stroke-width="21.93" stroke-linecap="round" stroke-linejoin="round" x1="18434" y1="1781" x2="18434" y2= "7224" />
  <path fill="#00B0F0" d="M18434 7377l-101 -202c63,32 137,32 202,0l-101 202 0 0z"/>
 </g>
</svg>
