<?xml version="1.0" encoding="UTF-8"?>
<!DOCTYPE svg PUBLIC "-//W3C//DTD SVG 1.0//EN" "http://www.w3.org/TR/2001/REC-SVG-20010904/DTD/svg10.dtd">
<!-- Creator: CorelDRAW X7 -->
<svg xmlns="http://www.w3.org/2000/svg" xml:space="preserve" width="100%" height="100%" version="1.0" shape-rendering="geometricPrecision" text-rendering="geometricPrecision" image-rendering="optimizeQuality" fill-rule="evenodd" clip-rule="evenodd"
viewBox="0 0 23825 10041"
 xmlns:xlink="http://www.w3.org/1999/xlink">
 <g id="Слой_x0020_1">
  <metadata id="CorelCorpID_0Corel-Layer"/>
  <line fill="none" stroke="#F5EFE5" stroke-width="21.92" stroke-linecap="round" stroke-linejoin="round" x1="23814" y1="1030" x2="23814" y2= "4523" />
  <line fill="none" stroke="#F5EFE5" stroke-width="21.92" stroke-linecap="round" stroke-linejoin="round" x1="17680" y1="11" x2="11162" y2= "11" />
  <line fill="none" stroke="#F5EFE5" stroke-width="21.92" stroke-linecap="round" stroke-linejoin="round" x1="11" y1="1053" x2="11" y2= "4548" />
  <line fill="none" stroke="#F5EFE5" stroke-width="21.92" stroke-linecap="round" stroke-linejoin="round" x1="15831" y1="10030" x2="9313" y2= "10030" />
  <line fill="none" stroke="#9E4A4C" stroke-width="21.92" stroke-linecap="round" stroke-linejoin="round" x1="9120" y1="7567" x2="9120" y2= "3332" />
  <path fill="black" stroke="black" stroke-width="7.62" stroke-linejoin="round" d="M9785 2684l-157 0c-6,0 -11,-4 -11,-11 0,-6 5,-10 11,-10l157 -2c6,0 12,6 12,12 0,6 -6,11 -12,11l0 0zm-268 0l-158 0c-6,0 -12,-4 -12,-10 0,-7 6,-11 12,-11l158 0c5,0 10,4 10,10 0,7 -5,11 -10,11l0 0zm-271 0l-156 2c-6,0 -12,-6 -12,-12 0,-6 6,-11 12,-11l156 0c7,0 12,5 12,11 0,6 -5,10 -12,10l0 0zm-269 2l-158 0c-6,0 -10,-4 -10,-12 0,-6 4,-10 10,-10l158 -1c6,0 12,5 12,11 0,6 -6,12 -12,12l0 0zm-269 0l-158 0c-6,0 -11,-4 -11,-10 0,-8 5,-12 11,-12l158 0c6,0 10,4 10,10 0,8 -4,12 -10,12l0 0zm-270 0l-157 1c-5,0 -11,-5 -11,-11 0,-6 6,-12 11,-12l157 0c7,0 11,4 11,12 0,6 -4,10 -11,10l0 0zm-269 1l-157 0c-7,0 -11,-5 -11,-11 0,-6 4,-11 10,-11l158 -1c6,0 12,6 12,12 0,6 -6,11 -12,11l0 0zm-269 0l-158 0c-6,0 -12,-4 -12,-10 0,-7 6,-12 12,-12l158 0c6,0 10,5 10,11 0,7 -4,11 -10,11l0 0zm-271 0l-156 2c-6,0 -12,-6 -12,-12 0,-6 6,-12 12,-12l156 0c8,0 12,5 12,12 0,6 -4,10 -12,10l0 0zm-269 2l-156 0c-7,0 -12,-6 -12,-12 0,-6 5,-10 12,-10l156 -2c6,0 12,6 12,12 0,6 -6,12 -12,12l0 0zm-268 0l-158 0c-6,0 -11,-5 -11,-10 0,-8 5,-12 11,-12l158 0c5,0 10,4 10,10 0,7 -5,12 -10,12l0 0zm-271 0l-156 1c-6,0 -12,-6 -12,-11 0,-6 6,-12 12,-12l156 0c7,0 12,4 12,12 0,5 -5,10 -12,10l0 0zm-269 1l-156 0c-8,0 -12,-6 -12,-11 0,-6 4,-12 12,-12l156 0c6,0 12,6 12,12 0,5 -6,11 -12,11l0 0zm-269 0l-158 0c-6,0 -10,-4 -10,-10 0,-7 4,-12 10,-12l158 0c6,0 10,5 10,11 0,7 -4,11 -10,11l0 0zm-270 0l-157 0c-5,2 -11,-4 -11,-10 0,-6 6,-12 11,-12l157 0c7,0 11,5 11,12 0,6 -4,10 -11,10l0 0zm-269 2l-157 0c-7,0 -11,-6 -11,-12 0,-6 4,-12 11,-12l157 0c6,0 12,6 12,12 0,6 -6,12 -12,12l0 0zm-269 0l-158 0c-6,0 -10,-5 -10,-12 0,-6 4,-10 10,-10l158 0c6,0 10,4 10,10 0,6 -4,12 -10,12l0 0zm-269 0l-158 0c-6,0 -12,-5 -12,-10 0,-6 6,-12 12,-12l156 0c8,0 12,4 12,12 0,5 -4,10 -10,10l0 0zm-271 1l-156 0c-7,0 -12,-6 -12,-11 0,-6 5,-12 12,-12l156 0c6,0 12,6 12,12 0,5 -6,11 -12,11l0 0zm-268 0l-158 0c-6,0 -11,-4 -11,-11 0,-6 5,-11 11,-11l158 0c5,0 11,5 11,11 0,5 -6,11 -11,11l0 0zm-269 0l-158 0c-6,0 -12,-4 -12,-10 0,-6 6,-12 12,-12l158 0c5,0 10,5 10,12 0,6 -5,10 -10,10l0 0zm-271 2l-156 0c-8,0 -12,-6 -12,-12 0,-6 4,-12 12,-12l156 0c6,0 12,6 12,12 0,6 -6,12 -12,12l0 0zm-269 0l-158 0c-6,0 -10,-5 -10,-12 0,-6 4,-10 10,-10l158 0c6,0 12,4 12,10 0,6 -6,12 -12,12l0 0zm-269 0l-158 0c-5,0 -11,-5 -11,-11 0,-7 6,-11 11,-11l158 0c6,0 10,4 10,11 0,6 -4,11 -10,11l0 0zm-270 1l-157 0c-5,0 -11,-6 -11,-12 0,-5 4,-11 11,-11l157 0c6,0 12,6 12,11 0,6 -5,12 -12,12l0 0zm-269 0l-158 0c-6,0 -10,-4 -10,-12 0,-5 4,-10 10,-10l158 -1c6,0 12,6 12,11 0,6 -6,12 -12,12l0 0zm-269 0l-67 0c-6,0 -12,-4 -12,-10 0,-7 6,-12 12,-12l67 0c6,0 10,5 10,10 0,8 -4,12 -10,12l0 0z"/>
  <path fill="#D9D9D9" stroke="black" stroke-width="7.62" stroke-linecap="round" stroke-linejoin="round" d="M11332 2674c0,-367 -298,-663 -664,-662 -367,0 -662,298 -662,664 2,367 298,662 664,662 367,0 663,-298 662,-664z"/>
  <path fill="none" stroke="black" stroke-width="21.92" stroke-linecap="round" stroke-linejoin="round" d="M11332 2674c0,-367 -298,-663 -664,-662 -367,0 -662,298 -662,664 2,367 298,662 664,662 367,0 663,-298 662,-664"/>
  <line fill="none" stroke="#9E4A4C" stroke-width="21.92" stroke-linecap="round" stroke-linejoin="round" x1="2484" y1="2899" x2="2500" y2= "4288" />
  <path fill="#9E4A4C" d="M2502 4441l-104 -201c64,30 139,30 203,-2l-99 203 0 0z"/>
  <line fill="none" stroke="#9E4A4C" stroke-width="21.92" stroke-linecap="round" stroke-linejoin="round" x1="2496" y1="4004" x2="5134" y2= "4001" />
  <line fill="none" stroke="#9E4A4C" stroke-width="21.92" stroke-linecap="round" stroke-linejoin="round" x1="5134" y1="4001" x2="5134" y2= "3712" />
  <path fill="#9E4A4C" d="M5134 3559l101 203c-63,-32 -137,-32 -202,0l101 -203 0 0z"/>
  <path fill="#9E4A4C" stroke="black" stroke-width="7.62" stroke-linecap="round" stroke-linejoin="round" d="M2493 4067c34,0 61,-28 61,-63 0,-33 -27,-61 -61,-61 -34,0 -61,28 -61,63 0,33 27,61 61,61z"/>
  <path fill="none" stroke="#9E4A4C" stroke-width="21.92" stroke-linecap="round" stroke-linejoin="round" d="M2493 4067c34,0 61,-28 61,-63 0,-33 -27,-61 -61,-61 -34,0 -61,28 -61,63 0,33 27,61 61,61"/>
  <line fill="none" stroke="black" stroke-width="21.92" stroke-linecap="round" stroke-linejoin="round" x1="6913" y1="2024" x2="10065" y2= "2024" />
  <line fill="none" stroke="black" stroke-width="21.92" stroke-linecap="round" stroke-linejoin="round" x1="9344" y1="3269" x2="10019" y2= "3269" />
  <line fill="none" stroke="black" stroke-width="21.92" stroke-linecap="round" stroke-linejoin="round" x1="10670" y1="4444" x2="10670" y2= "913" />
  <line fill="none" stroke="black" stroke-width="21.92" stroke-linecap="round" stroke-linejoin="round" x1="10661" y1="913" x2="18823" y2= "913" />
  <line fill="none" stroke="black" stroke-width="21.92" stroke-linecap="round" stroke-linejoin="round" x1="14958" y1="4443" x2="18829" y2= "4443" />
  <line fill="none" stroke="#433AB7" stroke-width="21.92" stroke-linecap="round" stroke-linejoin="round" x1="13979" y1="1128" x2="13985" y2= "4025" />
  <path fill="#433AB7" d="M13985 4178l-101 -201c63,30 139,30 202,-2l-101 203 0 0z"/>
  <line fill="none" stroke="black" stroke-width="21.92" stroke-linecap="round" stroke-linejoin="round" x1="10670" y1="4444" x2="14516" y2= "4444" />
  <path fill="none" stroke="black" stroke-width="21.92" stroke-linecap="round" stroke-linejoin="round" d="M8901 3271c0,-123 100,-221 221,-221"/>
  <path fill="none" stroke="black" stroke-width="21.92" stroke-linecap="round" stroke-linejoin="round" d="M9344 3269c-1,-121 -99,-221 -222,-219"/>
  <path fill="black" stroke="black" stroke-width="7.62" stroke-linecap="round" stroke-linejoin="round" d="M9122 3332c35,0 63,-28 63,-61 0,-35 -28,-63 -63,-63 -34,0 -62,28 -62,63 0,33 28,61 62,61z"/>
  <path fill="none" stroke="black" stroke-width="21.92" stroke-linecap="round" stroke-linejoin="round" d="M9122 3332c35,0 63,-28 63,-61 0,-35 -28,-63 -63,-63 -34,0 -62,28 -62,63 0,33 28,61 62,61"/>
  <line fill="none" stroke="black" stroke-width="21.92" stroke-linecap="round" stroke-linejoin="round" x1="7796" y1="3272" x2="8901" y2= "3271" />
  <line fill="none" stroke="black" stroke-width="21.92" stroke-linecap="round" stroke-linejoin="round" x1="12690" y1="913" x2="12691" y2= "2233" />
  <line fill="none" stroke="black" stroke-width="21.92" stroke-linecap="round" stroke-linejoin="round" x1="12691" y1="3117" x2="12690" y2= "4443" />
  <path fill="black" stroke="black" stroke-width="7.62" stroke-linecap="round" stroke-linejoin="round" d="M12691 976c34,0 62,-28 62,-63 0,-34 -28,-62 -62,-62 -35,0 -61,28 -61,62 0,35 28,63 61,63z"/>
  <path fill="none" stroke="black" stroke-width="21.92" stroke-linecap="round" stroke-linejoin="round" d="M12691 976c34,0 62,-28 62,-63 0,-34 -28,-62 -62,-62 -35,0 -61,28 -61,62 0,35 28,63 61,63"/>
  <path fill="black" stroke="black" stroke-width="7.62" stroke-linecap="round" stroke-linejoin="round" d="M12691 4507c34,0 62,-28 62,-63 0,-33 -28,-61 -62,-61 -35,0 -61,28 -61,61 0,35 28,63 61,63z"/>
  <path fill="none" stroke="black" stroke-width="21.92" stroke-linecap="round" stroke-linejoin="round" d="M12691 4507c34,0 62,-28 62,-63 0,-33 -28,-61 -62,-61 -35,0 -61,28 -61,61 0,35 28,63 61,63"/>
  <g>
   <path fill="#9E4A4C" fill-rule="nonzero" d="M13142 2687c-5,0 -9,-5 -9,-11 0,-6 4,-11 9,-11l0 22zm400 0l-400 0 0 -22 400 0 0 22zm0 -22c6,0 10,5 10,11 0,6 -4,11 -10,11l0 -22z"/>
  </g>
  <line fill="none" stroke="#9E4A4C" stroke-width="21.92" stroke-linecap="round" stroke-linejoin="round" x1="13542" y1="2676" x2="13542" y2= "6482" />
  <path fill="#9E4A4C" d="M13542 6635l-101 -201c63,30 139,30 202,0l-101 201 0 0z"/>
  <line fill="none" stroke="#9E4A4C" stroke-width="21.92" stroke-linecap="round" stroke-linejoin="round" x1="14739" y1="7565" x2="14451" y2= "7565" />
  <path fill="#9E4A4C" d="M14298 7565l202 -101c-33,65 -33,139 0,202l-202 -101 0 0z"/>
  <line fill="none" stroke="red" stroke-width="21.92" stroke-linecap="round" stroke-linejoin="round" x1="12007" y1="4222" x2="11746" y2= "4224" />
  <path fill="red" d="M11592 4224l202 -101c-31,63 -31,137 1,201l-203 -100 0 0z"/>
  <line fill="none" stroke="#9E4A4C" stroke-width="21.92" stroke-linecap="round" stroke-linejoin="round" x1="19940" y1="5321" x2="14763" y2= "5321" />
  <path fill="#9E4A4C" stroke="black" stroke-width="7.62" stroke-linecap="round" stroke-linejoin="round" d="M14735 5389c35,0 63,-28 63,-62 0,-35 -28,-61 -63,-61 -34,0 -62,28 -62,61 0,34 28,62 62,62z"/>
  <path fill="none" stroke="#9E4A4C" stroke-width="21.92" stroke-linecap="round" stroke-linejoin="round" d="M14735 5389c35,0 63,-28 63,-62 0,-35 -28,-61 -63,-61 -34,0 -62,28 -62,61 0,34 28,62 62,62"/>
  <line fill="none" stroke="#9E4A4C" stroke-width="21.92" stroke-linecap="round" stroke-linejoin="round" x1="19639" y1="3111" x2="19928" y2= "3111" />
  <path fill="#9E4A4C" d="M19487 3111l202 -101c-33,63 -33,138 0,202l-202 -101 0 0z"/>
  <line fill="none" stroke="#9E4A4C" stroke-width="21.92" stroke-linecap="round" stroke-linejoin="round" x1="19928" y1="3111" x2="19928" y2= "5321" />
  <path fill="black" stroke="black" stroke-width="7.62" stroke-linecap="round" stroke-linejoin="round" d="M16780 968c33,0 61,-27 61,-61 0,-34 -28,-61 -61,-61 -35,0 -63,27 -63,61 0,34 28,61 63,61z"/>
  <path fill="none" stroke="black" stroke-width="21.92" stroke-linecap="round" stroke-linejoin="round" d="M16780 968c33,0 61,-27 61,-61 0,-34 -28,-61 -61,-61 -35,0 -63,27 -63,61 0,34 28,61 63,61"/>
  <path fill="black" stroke="black" stroke-width="7.62" stroke-linecap="round" stroke-linejoin="round" d="M16780 4500c33,0 61,-28 61,-61 0,-34 -28,-62 -61,-62 -35,0 -63,28 -63,62 0,33 28,61 63,61z"/>
  <path fill="none" stroke="black" stroke-width="21.92" stroke-linecap="round" stroke-linejoin="round" d="M16780 4500c33,0 61,-28 61,-61 0,-34 -28,-62 -61,-62 -35,0 -63,28 -63,62 0,33 28,61 63,61"/>
  <line fill="none" stroke="black" stroke-width="21.92" stroke-linecap="round" stroke-linejoin="round" x1="16780" y1="913" x2="16780" y2= "4425" />
  <polygon fill="black" points="10581,3332 10581,3421 10758,3421 10758,3332 "/>
  <polygon fill="none" stroke="black" stroke-width="21.92" stroke-linecap="round" stroke-linejoin="round" points="10581,3332 10581,3421 10758,3421 10758,3332 "/>
  <polygon fill="black" points="10581,1917 10581,2006 10758,2006 10758,1917 "/>
  <polygon fill="none" stroke="black" stroke-width="21.92" stroke-linecap="round" stroke-linejoin="round" points="10581,1917 10581,2006 10758,2006 10758,1917 "/>
  <line fill="none" stroke="#5D723D" stroke-width="21.92" stroke-linecap="round" stroke-linejoin="round" x1="5877" y1="7565" x2="3741" y2= "7565" />
  <path fill="#5D723D" d="M6029 7565l-202 101c32,-63 32,-137 0,-202l202 101 0 0z"/>
  <line fill="none" stroke="#5D723D" stroke-width="21.92" stroke-linecap="round" stroke-linejoin="round" x1="21834" y1="2679" x2="19620" y2= "2679" />
  <path fill="#5D723D" d="M19468 2679l202 -101c-33,64 -33,139 0,201l-202 -100 0 0z"/>
  <line fill="none" stroke="#9E4A4C" stroke-width="21.92" stroke-linecap="round" stroke-linejoin="round" x1="14735" y1="7572" x2="14735" y2= "4487" />
  <line fill="none" stroke="#9E4A4C" stroke-width="21.92" stroke-linecap="round" stroke-linejoin="round" x1="9120" y1="7565" x2="11180" y2= "7565" />
  <path fill="#9E4A4C" d="M11332 7565l-202 101c32,-63 32,-137 0,-202l202 101 0 0z"/>
  <line fill="none" stroke="black" stroke-width="21.92" stroke-linecap="round" stroke-linejoin="round" x1="6913" y1="2024" x2="6913" y2= "7128" />
  <line fill="none" stroke="black" stroke-width="21.92" stroke-linecap="round" stroke-linejoin="round" x1="7796" y1="3272" x2="7796" y2= "7121" />
  <line fill="none" stroke="red" stroke-width="21.92" stroke-linecap="round" stroke-linejoin="round" x1="8528" y1="1793" x2="8239" y2= "1793" />
  <path fill="red" d="M8680 1791l-201 103c32,-65 32,-139 0,-202l201 99 0 0z"/>
  <path fill="white" stroke="black" stroke-width="7.62" stroke-linecap="round" stroke-linejoin="round" d="M10670 970c33,0 61,-28 61,-63 0,-34 -28,-61 -61,-61 -35,0 -63,27 -63,61 0,35 28,63 63,63z"/>
  <path fill="none" stroke="black" stroke-width="21.92" stroke-linecap="round" stroke-linejoin="round" d="M10670 970c33,0 61,-28 61,-63 0,-34 -28,-61 -61,-61 -35,0 -63,27 -63,61 0,35 28,63 63,63"/>
  <path fill="white" stroke="black" stroke-width="7.62" stroke-linecap="round" stroke-linejoin="round" d="M10670 4504c33,0 61,-27 61,-61 0,-34 -28,-62 -61,-62 -35,0 -63,28 -63,62 0,35 28,63 63,61z"/>
  <path fill="none" stroke="black" stroke-width="21.92" stroke-linecap="round" stroke-linejoin="round" d="M10670 4504c33,0 61,-27 61,-61 0,-34 -28,-62 -61,-62 -35,0 -63,28 -63,62 0,35 28,63 63,61"/>
  <path fill="white" stroke="black" stroke-width="7.62" stroke-linecap="round" stroke-linejoin="round" d="M9565 3338c33,0 61,-28 61,-62 0,-35 -28,-61 -61,-61 -35,0 -63,28 -63,61 0,34 28,62 63,62z"/>
  <path fill="none" stroke="black" stroke-width="21.92" stroke-linecap="round" stroke-linejoin="round" d="M9565 3338c33,0 61,-28 61,-62 0,-35 -28,-61 -61,-61 -35,0 -63,28 -63,61 0,34 28,62 63,62"/>
  <path fill="white" stroke="black" stroke-width="7.62" stroke-linecap="round" stroke-linejoin="round" d="M9565 2073c33,0 61,-27 61,-61 0,-34 -28,-61 -61,-61 -35,0 -63,27 -63,61 0,35 28,63 63,61z"/>
  <path fill="none" stroke="black" stroke-width="21.92" stroke-linecap="round" stroke-linejoin="round" d="M9565 2073c33,0 61,-27 61,-61 0,-34 -28,-61 -61,-61 -35,0 -63,27 -63,61 0,35 28,63 63,61"/>
  <line fill="none" stroke="black" stroke-width="21.92" stroke-linecap="round" stroke-linejoin="round" x1="10006" y1="2668" x2="11328" y2= "2668" />
  <line fill="none" stroke="black" stroke-width="21.92" stroke-linecap="round" stroke-linejoin="round" x1="10006" y1="2668" x2="11328" y2= "2668" />
  <line fill="none" stroke="black" stroke-width="21.92" stroke-linecap="round" stroke-linejoin="round" x1="10031" y1="2845" x2="11307" y2= "2503" />
  <line fill="none" stroke="black" stroke-width="21.92" stroke-linecap="round" stroke-linejoin="round" x1="10031" y1="2503" x2="11307" y2= "2845" />
  <line fill="none" stroke="black" stroke-width="21.92" stroke-linecap="round" stroke-linejoin="round" x1="10097" y1="2344" x2="11241" y2= "3005" />
  <line fill="none" stroke="black" stroke-width="21.92" stroke-linecap="round" stroke-linejoin="round" x1="10202" y1="2208" x2="11136" y2= "3142" />
  <line fill="none" stroke="black" stroke-width="21.92" stroke-linecap="round" stroke-linejoin="round" x1="10339" y1="2103" x2="11000" y2= "3247" />
  <line fill="none" stroke="black" stroke-width="21.92" stroke-linecap="round" stroke-linejoin="round" x1="10097" y1="3005" x2="11241" y2= "2344" />
  <line fill="none" stroke="black" stroke-width="21.92" stroke-linecap="round" stroke-linejoin="round" x1="10202" y1="3142" x2="11136" y2= "2208" />
  <line fill="none" stroke="black" stroke-width="21.92" stroke-linecap="round" stroke-linejoin="round" x1="10339" y1="3247" x2="11000" y2= "2103" />
  <line fill="none" stroke="black" stroke-width="21.92" stroke-linecap="round" stroke-linejoin="round" x1="10499" y1="3313" x2="10841" y2= "2037" />
  <line fill="none" stroke="black" stroke-width="21.92" stroke-linecap="round" stroke-linejoin="round" x1="10499" y1="2037" x2="10841" y2= "3313" />
  <path fill="none" stroke="black" stroke-width="21.92" stroke-linecap="round" stroke-linejoin="round" d="M14514 4443c0,-121 100,-221 221,-221"/>
  <path fill="none" stroke="black" stroke-width="21.92" stroke-linecap="round" stroke-linejoin="round" d="M14956 4443c0,-123 -98,-221 -221,-221"/>
  <path fill="black" stroke="black" stroke-width="7.62" stroke-linecap="round" stroke-linejoin="round" d="M14735 4504c35,0 63,-27 63,-61 0,-34 -28,-62 -63,-62 -34,0 -62,28 -62,62 0,34 28,61 62,61z"/>
  <path fill="none" stroke="black" stroke-width="21.92" stroke-linecap="round" stroke-linejoin="round" d="M14735 4504c35,0 63,-27 63,-61 0,-34 -28,-62 -63,-62 -34,0 -62,28 -62,62 0,34 28,61 62,61"/>
  <path fill="#D9D9D9" stroke="black" stroke-width="7.62" stroke-linecap="round" stroke-linejoin="round" d="M2714 2679c0,-122 -100,-221 -221,-221 -123,0 -221,99 -221,222 0,121 100,221 221,221 123,-2 221,-100 221,-222z"/>
  <path fill="none" stroke="black" stroke-width="21.92" stroke-linecap="round" stroke-linejoin="round" d="M2714 2679c0,-122 -100,-221 -221,-221 -123,0 -221,99 -221,222 0,121 100,221 221,221 123,-2 221,-100 221,-222"/>
  <polygon fill="#D9D9D9" points="18161,2016 18161,3342 19487,3342 19487,2016 "/>
  <polygon fill="none" stroke="black" stroke-width="21.92" stroke-linecap="round" stroke-linejoin="round" points="18161,2016 18161,3342 19487,3342 19487,2016 "/>
  <line fill="none" stroke="black" stroke-width="21.92" stroke-linecap="round" stroke-linejoin="round" x1="19000" y1="2227" x2="19000" y2= "3111" />
  <line fill="none" stroke="black" stroke-width="21.92" stroke-linecap="round" stroke-linejoin="round" x1="18646" y1="2227" x2="18646" y2= "3111" />
  <line fill="none" stroke="black" stroke-width="21.92" stroke-linecap="round" stroke-linejoin="round" x1="19000" y1="2227" x2="18646" y2= "2227" />
  <line fill="none" stroke="black" stroke-width="21.92" stroke-linecap="round" stroke-linejoin="round" x1="19000" y1="3111" x2="18646" y2= "3111" />
  <line fill="none" stroke="black" stroke-width="21.92" stroke-linecap="round" stroke-linejoin="round" x1="18823" y1="913" x2="18823" y2= "2227" />
  <line fill="none" stroke="black" stroke-width="21.92" stroke-linecap="round" stroke-linejoin="round" x1="18828" y1="4443" x2="18823" y2= "3111" />
  <line fill="none" stroke="black" stroke-width="21.92" stroke-linecap="round" stroke-linejoin="round" x1="19158" y1="2335" x2="18470" y2= "3022" />
  <path fill="black" stroke="black" stroke-width="7.62" stroke-linecap="round" stroke-linejoin="round" d="M19266 2227l-71 215c-24,-67 -76,-122 -144,-143l215 -72 0 0z"/>
  <polygon fill="#D9D9D9" points="6019,7127 6019,8011 8670,8011 8670,7127 "/>
  <polygon fill="none" stroke="black" stroke-width="21.92" stroke-linecap="round" stroke-linejoin="round" points="6019,8011 8670,8011 8670,7127 6019,7127 "/>
  <polygon fill="none" stroke="black" stroke-width="21.92" stroke-linecap="round" stroke-linejoin="round" points="12250,2237 12250,3121 13133,3121 13133,2237 "/>
  <path fill="none" stroke="black" stroke-width="21.92" stroke-linecap="round" stroke-linejoin="round" d="M10670 3553c488,0 883,-396 883,-885 0,-486 -395,-883 -883,-883 -488,0 -885,397 -885,883 0,489 397,885 885,885"/>
 </g>
</svg>
