<?xml version="1.0" encoding="UTF-8"?>
<!DOCTYPE svg PUBLIC "-//W3C//DTD SVG 1.0//EN" "http://www.w3.org/TR/2001/REC-SVG-20010904/DTD/svg10.dtd">
<!-- Creator: CorelDRAW X7 -->
<svg xmlns="http://www.w3.org/2000/svg" xml:space="preserve" width="100%" height="100%" version="1.0" shape-rendering="geometricPrecision" text-rendering="geometricPrecision" image-rendering="optimizeQuality" fill-rule="evenodd" clip-rule="evenodd"
viewBox="0 0 21000 5310"
 xmlns:xlink="http://www.w3.org/1999/xlink">
 <g id="Слой_x0020_1">
  <metadata id="CorelCorpID_0Corel-Layer"/>
  <line fill="none" stroke="#F5EFE5" stroke-width="19.32" stroke-linecap="round" stroke-linejoin="round" x1="20990" y1="610" x2="20990" y2= "3690" />
  <line fill="none" stroke="#F5EFE5" stroke-width="19.32" stroke-linecap="round" stroke-linejoin="round" x1="15649" y1="10" x2="9903" y2= "10" />
  <line fill="none" stroke="#F5EFE5" stroke-width="19.32" stroke-linecap="round" stroke-linejoin="round" x1="10" y1="631" x2="10" y2= "3712" />
  <line fill="none" stroke="#5D723D" stroke-width="19.32" stroke-linecap="round" stroke-linejoin="round" x1="2110" y1="2022" x2="4151" y2= "2022" />
  <path fill="#5D723D" d="M4286 2022l-178 89c29,-55 29,-121 0,-178l178 89 0 0z"/>
  <line fill="none" stroke="black" stroke-width="19.32" stroke-linecap="round" stroke-linejoin="round" x1="4675" y1="854" x2="4675" y2= "1633" />
  <line fill="none" stroke="black" stroke-width="19.32" stroke-linecap="round" stroke-linejoin="round" x1="4662" y1="2413" x2="4662" y2= "3191" />
  <g id="_2288538592432">
   <path fill="black" fill-rule="nonzero" d="M11157 844c8,0 14,5 14,10 0,5 -6,9 -14,9l0 -19 0 0zm-6482 0l6482 0 0 19 -6482 0 0 -19zm0 19c-8,0 -13,-4 -13,-9 0,-5 5,-10 13,-10l0 19 0 0z"/>
  </g>
  <line fill="none" fill-rule="nonzero" stroke="black" stroke-width="19.32" stroke-linecap="round" stroke-linejoin="round" x1="4656" y1="3191" x2="11157" y2= "3191" />
  <polygon fill="#D9D9D9" points="4286,1633 4286,2413 5066,2413 5066,1633 "/>
  <polygon fill="none" stroke="black" stroke-width="19.32" stroke-linecap="round" stroke-linejoin="round" points="4286,1633 4286,2413 5066,2413 5066,1633 "/>
  <polygon fill="black" fill-rule="nonzero" points="4492,1895 4521,1895 4521,2082 4646,1895 4677,1895 4677,2131 4649,2131 4649,1945 4523,2131 4492,2131 "/>
  <polygon id="_1" fill="black" fill-rule="nonzero" points="4788,2131 4788,1923 4711,1923 4711,1895 4898,1895 4898,1923 4820,1923 4820,2131 "/>
  <line fill="none" fill-rule="nonzero" stroke="#5D723D" stroke-width="19.32" stroke-linecap="round" stroke-linejoin="round" x1="13810" y1="2022" x2="17190" y2= "2022" />
  <path fill="#5D723D" d="M13675 2022l178 -89c-28,57 -28,123 0,178l-178 -89 0 0z"/>
  <line fill="none" stroke="red" stroke-width="19.32" stroke-linecap="round" stroke-linejoin="round" x1="10222" y1="659" x2="10477" y2= "659" />
  <path fill="red" d="M10613 659l-179 89c28,-56 28,-123 0,-178l179 89 0 0z"/>
  <line fill="none" stroke="black" stroke-width="19.32" stroke-linecap="round" stroke-linejoin="round" x1="11352" y1="464" x2="11352" y2= "3581" />
  <path fill="none" stroke="black" stroke-width="19.32" stroke-linecap="round" stroke-linejoin="round" d="M11352 464c0,-215 175,-389 390,-389"/>
  <path fill="none" stroke="black" stroke-width="19.32" stroke-linecap="round" stroke-linejoin="round" d="M11352 3581c0,216 175,390 390,390"/>
  <line fill="none" stroke="black" stroke-width="19.32" stroke-linecap="round" stroke-linejoin="round" x1="11742" y1="464" x2="11742" y2= "3581" />
  <line fill="none" stroke="black" stroke-width="19.32" stroke-linecap="round" stroke-linejoin="round" x1="11742" y1="464" x2="13284" y2= "464" />
  <line fill="none" stroke="black" stroke-width="19.32" stroke-linecap="round" stroke-linejoin="round" x1="11742" y1="3581" x2="13288" y2= "3581" />
  <line fill="none" stroke="black" stroke-width="19.32" stroke-linecap="round" stroke-linejoin="round" x1="11157" y1="854" x2="11936" y2= "1048" />
  <line fill="none" stroke="black" stroke-width="19.32" stroke-linecap="round" stroke-linejoin="round" x1="11157" y1="1244" x2="11352" y2= "1195" />
  <line fill="none" stroke="black" stroke-width="19.32" stroke-linecap="round" stroke-linejoin="round" x1="11742" y1="1097" x2="11936" y2= "1048" />
  <line fill="none" stroke="black" stroke-width="19.32" stroke-linecap="round" stroke-linejoin="round" x1="11157" y1="1244" x2="11936" y2= "1439" />
  <line fill="none" stroke="black" stroke-width="19.32" stroke-linecap="round" stroke-linejoin="round" x1="11742" y1="1487" x2="11936" y2= "1439" />
  <line fill="none" stroke="black" stroke-width="19.32" stroke-linecap="round" stroke-linejoin="round" x1="11157" y1="1643" x2="11352" y2= "1594" />
  <line fill="none" stroke="black" stroke-width="19.32" stroke-linecap="round" stroke-linejoin="round" x1="11157" y1="1643" x2="11936" y2= "1828" />
  <line fill="none" stroke="black" stroke-width="19.32" stroke-linecap="round" stroke-linejoin="round" x1="11742" y1="1877" x2="11936" y2= "1828" />
  <line fill="none" stroke="black" stroke-width="19.32" stroke-linecap="round" stroke-linejoin="round" x1="11157" y1="2032" x2="11352" y2= "1983" />
  <line fill="none" stroke="black" stroke-width="19.32" stroke-linecap="round" stroke-linejoin="round" x1="11742" y1="2272" x2="11936" y2= "2223" />
  <line fill="none" stroke="black" stroke-width="19.32" stroke-linecap="round" stroke-linejoin="round" x1="11157" y1="2421" x2="11352" y2= "2373" />
  <line fill="none" stroke="black" stroke-width="19.32" stroke-linecap="round" stroke-linejoin="round" x1="11157" y1="2032" x2="11936" y2= "2223" />
  <line fill="none" stroke="black" stroke-width="19.32" stroke-linecap="round" stroke-linejoin="round" x1="11157" y1="2421" x2="11936" y2= "2607" />
  <line fill="none" stroke="black" stroke-width="19.32" stroke-linecap="round" stroke-linejoin="round" x1="11157" y1="2801" x2="11936" y2= "2996" />
  <line fill="none" stroke="black" stroke-width="19.32" stroke-linecap="round" stroke-linejoin="round" x1="11742" y1="2656" x2="11936" y2= "2607" />
  <line fill="none" stroke="black" stroke-width="19.32" stroke-linecap="round" stroke-linejoin="round" x1="11157" y1="2801" x2="11352" y2= "2753" />
  <line fill="none" stroke="black" stroke-width="19.32" stroke-linecap="round" stroke-linejoin="round" x1="11742" y1="3045" x2="11936" y2= "2996" />
  <line fill="none" stroke="black" stroke-width="19.32" stroke-linecap="round" stroke-linejoin="round" x1="11157" y1="3191" x2="11352" y2= "3143" />
  <line fill="none" stroke="black" stroke-width="19.32" stroke-linecap="round" stroke-linejoin="round" x1="13286" y1="464" x2="13286" y2= "3581" />
  <line fill="none" stroke="black" stroke-width="19.32" stroke-linecap="round" stroke-linejoin="round" x1="13675" y1="464" x2="13675" y2= "3581" />
  <line fill="none" stroke="black" stroke-width="19.32" stroke-linecap="round" stroke-linejoin="round" x1="11742" y1="75" x2="13291" y2= "75" />
  <line fill="none" stroke="black" stroke-width="19.32" stroke-linecap="round" stroke-linejoin="round" x1="11742" y1="3971" x2="13294" y2= "3971" />
  <path fill="none" stroke="black" stroke-width="19.32" stroke-linecap="round" stroke-linejoin="round" d="M13286 75c215,0 389,174 389,389"/>
  <path fill="none" stroke="black" stroke-width="19.32" stroke-linecap="round" stroke-linejoin="round" d="M13286 3971c215,0 389,-174 389,-390"/>
  <polygon fill="#FFC000" points="11352,1999 11352,2045 11742,2045 11742,1999 "/>
  <polygon fill="none" stroke="black" stroke-width="19.32" stroke-linecap="round" stroke-linejoin="round" points="11352,1999 11352,2045 11742,2045 11742,1999 "/>
  <polygon fill="#FFC000" points="13286,1999 13286,2045 13675,2045 13675,1999 "/>
  <polygon fill="none" stroke="black" stroke-width="19.32" stroke-linecap="round" stroke-linejoin="round" points="13286,1999 13286,2045 13675,2045 13675,1999 "/>
  <line fill="none" stroke="red" stroke-width="19.32" stroke-linecap="round" stroke-linejoin="round" x1="13480" y1="1439" x2="13480" y2= "1694" />
  <path fill="red" d="M13480 1828l-88 -178c55,28 121,28 177,0l-89 178 0 0z"/>
  <path fill="none" stroke="black" stroke-width="19.32" stroke-linecap="round" stroke-linejoin="round" d="M8038 2012c0,-107 88,-195 195,-195"/>
  <path fill="none" stroke="black" stroke-width="19.32" stroke-linecap="round" stroke-linejoin="round" d="M8233 1817c107,0 196,88 196,195"/>
  <path fill="none" stroke="black" stroke-width="19.32" stroke-linecap="round" stroke-linejoin="round" d="M8038 2012c0,108 88,194 195,194"/>
  <path fill="none" stroke="black" stroke-width="19.32" stroke-linecap="round" stroke-linejoin="round" d="M8429 2012c0,108 -89,194 -196,194"/>
  <path fill="none" stroke="black" stroke-width="19.32" stroke-linecap="round" stroke-linejoin="round" d="M8311 2012c0,-107 88,-195 194,-195"/>
  <path fill="none" stroke="black" stroke-width="19.32" stroke-linecap="round" stroke-linejoin="round" d="M8505 1817c109,0 196,88 196,195"/>
  <path fill="none" stroke="black" stroke-width="19.32" stroke-linecap="round" stroke-linejoin="round" d="M8311 2012c0,108 88,194 194,194"/>
  <path fill="none" stroke="black" stroke-width="19.32" stroke-linecap="round" stroke-linejoin="round" d="M8701 2012c0,108 -87,194 -196,194"/>
  <line fill="none" stroke="black" stroke-width="19.32" stroke-linecap="round" stroke-linejoin="round" x1="8505" y1="3180" x2="8505" y2= "2206" />
  <line fill="none" stroke="black" stroke-width="19.32" stroke-linecap="round" stroke-linejoin="round" x1="8505" y1="843" x2="8505" y2= "1817" />
  <path fill="black" stroke="black" stroke-width="6.73" stroke-linecap="round" stroke-linejoin="round" d="M8505 882c22,0 40,-17 40,-39 0,-20 -18,-39 -40,-39 -20,0 -38,19 -38,39 0,22 18,39 38,39z"/>
  <path fill="none" stroke="black" stroke-width="19.32" stroke-linecap="round" stroke-linejoin="round" d="M8505 882c22,0 40,-17 40,-39 0,-20 -18,-39 -40,-39 -20,0 -38,19 -38,39 0,22 18,39 38,39"/>
  <path fill="black" stroke="black" stroke-width="6.73" stroke-linecap="round" stroke-linejoin="round" d="M8505 3221c22,0 40,-19 40,-41 0,-20 -18,-38 -40,-38 -20,0 -38,18 -38,38 0,22 18,41 38,41z"/>
  <path fill="none" stroke="black" stroke-width="19.32" stroke-linecap="round" stroke-linejoin="round" d="M8505 3221c22,0 40,-19 40,-41 0,-20 -18,-38 -40,-38 -20,0 -38,18 -38,38 0,22 18,41 38,41"/>
  <path fill="none" stroke="black" stroke-width="19.32" stroke-linecap="round" stroke-linejoin="round" d="M7376 854c0,-108 87,-195 196,-195"/>
  <path fill="none" stroke="black" stroke-width="19.32" stroke-linecap="round" stroke-linejoin="round" d="M7572 659c107,0 194,87 194,195"/>
  <path fill="none" stroke="black" stroke-width="19.32" stroke-linecap="round" stroke-linejoin="round" d="M7376 854c0,108 87,194 196,194"/>
  <path fill="none" stroke="black" stroke-width="19.32" stroke-linecap="round" stroke-linejoin="round" d="M7766 854c0,108 -87,194 -194,194"/>
  <path fill="black" stroke="black" stroke-width="6.73" stroke-linecap="round" stroke-linejoin="round" d="M7884 894c20,0 38,-19 38,-40 0,-21 -18,-39 -38,-39 -22,0 -41,18 -41,39 0,21 19,40 41,40z"/>
  <path fill="none" stroke="black" stroke-width="19.32" stroke-linecap="round" stroke-linejoin="round" d="M7884 894c20,0 38,-19 38,-40 0,-21 -18,-39 -38,-39 -22,0 -41,18 -41,39 0,21 19,40 41,40"/>
  <path fill="black" stroke="black" stroke-width="6.73" stroke-linecap="round" stroke-linejoin="round" d="M7259 894c22,0 39,-19 39,-40 0,-21 -17,-39 -39,-39 -21,0 -38,18 -38,39 0,21 17,40 38,40z"/>
  <path fill="none" stroke="black" stroke-width="19.32" stroke-linecap="round" stroke-linejoin="round" d="M7259 894c22,0 39,-19 39,-40 0,-21 -17,-39 -39,-39 -21,0 -38,18 -38,39 0,21 17,40 38,40"/>
  <line fill="none" stroke="black" stroke-width="59.27" stroke-linecap="round" stroke-linejoin="round" x1="7884" y1="854" x2="7259" y2= "854" />
  <line fill="none" stroke="#9E4A4C" stroke-width="19.32" stroke-linecap="round" stroke-linejoin="round" x1="8233" y1="2206" x2="8233" y2= "5176" />
  <path fill="#9E4A4C" d="M8233 5310l-88 -177c55,28 121,28 178,0l-90 177 0 0z"/>
  <line fill="none" stroke="#9E4A4C" stroke-width="19.32" stroke-linecap="round" stroke-linejoin="round" x1="7572" y1="1048" x2="7572" y2= "5173" />
  <path fill="#9E4A4C" d="M7572 5308l-89 -178c55,28 121,28 177,0l-88 178 0 0z"/>
  <line fill="none" stroke="#9E4A4C" stroke-width="19.32" stroke-linecap="round" stroke-linejoin="round" x1="17570" y1="4919" x2="1455" y2= "4919" />
  <line fill="none" stroke="#9E4A4C" stroke-width="19.32" stroke-linecap="round" stroke-linejoin="round" x1="1455" y1="4919" x2="1455" y2= "5173" />
  <path fill="#9E4A4C" d="M1455 5308l-90 -178c57,28 122,28 180,0l-90 178 0 0z"/>
  <line fill="none" stroke="#9E4A4C" stroke-width="19.32" stroke-linecap="round" stroke-linejoin="round" x1="17980" y1="4530" x2="1065" y2= "4530" />
  <line fill="none" stroke="#9E4A4C" stroke-width="19.32" stroke-linecap="round" stroke-linejoin="round" x1="1065" y1="4530" x2="1065" y2= "5173" />
  <path fill="#9E4A4C" d="M1065 5308l-89 -178c56,28 123,28 177,0l-88 178 0 0z"/>
  <path fill="#9E4A4C" stroke="black" stroke-width="6.73" stroke-linecap="round" stroke-linejoin="round" d="M7572 4957c20,0 38,-17 38,-38 0,-22 -18,-39 -38,-39 -22,0 -41,17 -41,39 0,21 19,38 41,38z"/>
  <path fill="none" stroke="#9E4A4C" stroke-width="19.32" stroke-linecap="round" stroke-linejoin="round" d="M7572 4957c20,0 38,-17 38,-38 0,-22 -18,-39 -38,-39 -22,0 -41,17 -41,39 0,21 19,38 41,38"/>
  <path fill="#9E4A4C" stroke="black" stroke-width="6.73" stroke-linecap="round" stroke-linejoin="round" d="M8233 4568c22,0 39,-18 39,-38 0,-23 -17,-40 -39,-40 -21,0 -39,17 -39,40 0,20 18,38 39,38z"/>
  <path fill="none" stroke="#9E4A4C" stroke-width="19.32" stroke-linecap="round" stroke-linejoin="round" d="M8233 4568c22,0 39,-18 39,-38 0,-23 -17,-40 -39,-40 -21,0 -39,17 -39,40 0,20 18,38 39,38"/>
  <line fill="none" stroke="#9E4A4C" stroke-width="19.32" stroke-linecap="round" stroke-linejoin="round" x1="17583" y1="4919" x2="17583" y2= "5173" />
  <path fill="#9E4A4C" d="M17583 5308l-89 -178c56,28 122,28 177,0l-88 178 0 0z"/>
  <line fill="none" stroke="#9E4A4C" stroke-width="19.32" stroke-linecap="round" stroke-linejoin="round" x1="17973" y1="4530" x2="17973" y2= "5173" />
  <path fill="#9E4A4C" d="M17973 5308l-89 -178c56,28 121,28 178,0l-89 178 0 0z"/>
 </g>
</svg>
