<?xml version="1.0" encoding="UTF-8"?>
<!DOCTYPE svg PUBLIC "-//W3C//DTD SVG 1.0//EN" "http://www.w3.org/TR/2001/REC-SVG-20010904/DTD/svg10.dtd">
<!-- Creator: CorelDRAW X7 -->
<svg xmlns="http://www.w3.org/2000/svg" xml:space="preserve" width="100%" height="100%" version="1.0" shape-rendering="geometricPrecision" text-rendering="geometricPrecision" image-rendering="optimizeQuality" fill-rule="evenodd" clip-rule="evenodd"
viewBox="0 0 23848 6912"
 xmlns:xlink="http://www.w3.org/1999/xlink">
 <g id="Слой_x0020_1">
  <metadata id="CorelCorpID_0Corel-Layer"/>
  <line fill="none" stroke="red" stroke-width="21.94" stroke-linecap="round" stroke-linejoin="round" x1="15308" y1="5644" x2="15308" y2= "3966" />
  <line fill="none" stroke="#F5EFE5" stroke-width="21.94" stroke-linecap="round" stroke-linejoin="round" x1="23837" y1="2273" x2="23837" y2= "5770" />
  <line fill="none" stroke="#F5EFE5" stroke-width="21.94" stroke-linecap="round" stroke-linejoin="round" x1="17771" y1="11" x2="11247" y2= "11" />
  <line fill="none" stroke="#F5EFE5" stroke-width="21.94" stroke-linecap="round" stroke-linejoin="round" x1="11" y1="2296" x2="11" y2= "5795" />
  <line fill="none" stroke="#00B050" stroke-width="21.94" stroke-linecap="round" stroke-linejoin="round" x1="3672" y1="3878" x2="4714" y2= "3878" />
  <path fill="#00B050" d="M4867 3878l-202 101c33,-64 33,-139 0,-203l202 102 0 0z"/>
  <line fill="none" stroke="black" stroke-width="21.94" stroke-linecap="round" stroke-linejoin="round" x1="5309" y1="2550" x2="5309" y2= "3435" />
  <line fill="none" stroke="black" stroke-width="21.94" stroke-linecap="round" stroke-linejoin="round" x1="5294" y1="4320" x2="5294" y2= "5205" />
  <line fill="none" stroke="black" stroke-width="21.94" stroke-linecap="round" stroke-linejoin="round" x1="12663" y1="2550" x2="7350" y2= "2550" />
  <line fill="none" stroke="black" stroke-width="21.94" stroke-linecap="round" stroke-linejoin="round" x1="5287" y1="5205" x2="12670" y2= "5205" />
  <polygon fill="#D9D9D9" points="4867,3435 4867,4320 5752,4320 5752,3435 "/>
  <polygon fill="none" stroke="black" stroke-width="21.94" stroke-linecap="round" stroke-linejoin="round" points="4867,3435 4867,4320 5752,4320 5752,3435 "/>
  <polygon fill="black" fill-rule="nonzero" points="5101,3733 5133,3733 5133,3945 5276,3733 5311,3733 5311,4001 5279,4001 5279,3789 5137,4001 5101,4001 "/>
  <polygon id="1" fill="black" fill-rule="nonzero" points="5438,4001 5438,3764 5350,3764 5350,3733 5562,3733 5562,3764 5473,3764 5473,4001 "/>
  <line fill="none" stroke="#00B050" stroke-width="21.94" stroke-linecap="round" stroke-linejoin="round" x1="15683" y1="3878" x2="19521" y2= "3878" />
  <path fill="#00B050" d="M15529 3878l202 -102c-32,64 -32,139 0,203l-202 -101 0 0z"/>
  <line fill="none" stroke="red" stroke-width="21.94" stroke-linecap="round" stroke-linejoin="round" x1="11608" y1="2329" x2="11898" y2= "2329" />
  <path fill="red" d="M12051 2329l-201 101c30,-63 30,-138 0,-202l201 101 0 0z"/>
  <line fill="none" stroke="black" stroke-width="21.94" stroke-linecap="round" stroke-linejoin="round" x1="5322" y1="2550" x2="6862" y2= "2550" />
  <line fill="none" stroke="black" stroke-width="21.94" stroke-linecap="round" stroke-linejoin="round" x1="12891" y1="2108" x2="12891" y2= "5647" />
  <path fill="none" stroke="black" stroke-width="21.94" stroke-linecap="round" stroke-linejoin="round" d="M12891 2108c0,-245 199,-442 444,-442"/>
  <path fill="none" stroke="black" stroke-width="21.94" stroke-linecap="round" stroke-linejoin="round" d="M12891 5647c0,244 199,442 444,442"/>
  <line fill="none" stroke="black" stroke-width="21.94" stroke-linecap="round" stroke-linejoin="round" x1="13335" y1="2108" x2="13335" y2= "5647" />
  <line fill="none" stroke="black" stroke-width="21.94" stroke-linecap="round" stroke-linejoin="round" x1="13335" y1="2108" x2="15086" y2= "2108" />
  <line fill="none" stroke="black" stroke-width="21.94" stroke-linecap="round" stroke-linejoin="round" x1="13335" y1="5647" x2="15090" y2= "5647" />
  <line fill="none" stroke="black" stroke-width="21.94" stroke-linecap="round" stroke-linejoin="round" x1="12670" y1="2550" x2="13556" y2= "2772" />
  <line fill="none" stroke="black" stroke-width="21.94" stroke-linecap="round" stroke-linejoin="round" x1="12670" y1="2993" x2="12891" y2= "2937" />
  <line fill="none" stroke="black" stroke-width="21.94" stroke-linecap="round" stroke-linejoin="round" x1="13335" y1="2826" x2="13556" y2= "2772" />
  <line fill="none" stroke="black" stroke-width="21.94" stroke-linecap="round" stroke-linejoin="round" x1="12670" y1="2993" x2="13556" y2= "3214" />
  <line fill="none" stroke="black" stroke-width="21.94" stroke-linecap="round" stroke-linejoin="round" x1="13335" y1="3269" x2="13556" y2= "3214" />
  <line fill="none" stroke="black" stroke-width="21.94" stroke-linecap="round" stroke-linejoin="round" x1="12670" y1="3447" x2="12891" y2= "3391" />
  <line fill="none" stroke="black" stroke-width="21.94" stroke-linecap="round" stroke-linejoin="round" x1="12670" y1="3447" x2="13556" y2= "3656" />
  <line fill="none" stroke="black" stroke-width="21.94" stroke-linecap="round" stroke-linejoin="round" x1="13335" y1="3711" x2="13556" y2= "3656" />
  <line fill="none" stroke="black" stroke-width="21.94" stroke-linecap="round" stroke-linejoin="round" x1="12670" y1="3888" x2="12891" y2= "3833" />
  <line fill="none" stroke="black" stroke-width="21.94" stroke-linecap="round" stroke-linejoin="round" x1="13335" y1="4161" x2="13556" y2= "4105" />
  <line fill="none" stroke="black" stroke-width="21.94" stroke-linecap="round" stroke-linejoin="round" x1="12670" y1="4330" x2="12891" y2= "4276" />
  <line fill="none" stroke="black" stroke-width="21.94" stroke-linecap="round" stroke-linejoin="round" x1="12670" y1="3888" x2="13556" y2= "4105" />
  <line fill="none" stroke="black" stroke-width="21.94" stroke-linecap="round" stroke-linejoin="round" x1="12670" y1="4330" x2="13556" y2= "4541" />
  <line fill="none" stroke="black" stroke-width="21.94" stroke-linecap="round" stroke-linejoin="round" x1="12670" y1="4762" x2="13556" y2= "4983" />
  <line fill="none" stroke="black" stroke-width="21.94" stroke-linecap="round" stroke-linejoin="round" x1="13335" y1="4597" x2="13556" y2= "4541" />
  <line fill="none" stroke="black" stroke-width="21.94" stroke-linecap="round" stroke-linejoin="round" x1="12670" y1="4762" x2="12891" y2= "4706" />
  <line fill="none" stroke="black" stroke-width="21.94" stroke-linecap="round" stroke-linejoin="round" x1="13335" y1="5038" x2="13556" y2= "4983" />
  <line fill="none" stroke="black" stroke-width="21.94" stroke-linecap="round" stroke-linejoin="round" x1="12670" y1="5205" x2="12891" y2= "5150" />
  <line fill="none" stroke="black" stroke-width="21.94" stroke-linecap="round" stroke-linejoin="round" x1="15088" y1="2108" x2="15088" y2= "5647" />
  <line fill="none" stroke="black" stroke-width="21.94" stroke-linecap="round" stroke-linejoin="round" x1="15529" y1="2108" x2="15529" y2= "5647" />
  <line fill="none" stroke="black" stroke-width="21.94" stroke-linecap="round" stroke-linejoin="round" x1="13335" y1="1666" x2="15093" y2= "1666" />
  <line fill="none" stroke="black" stroke-width="21.94" stroke-linecap="round" stroke-linejoin="round" x1="13335" y1="6089" x2="15096" y2= "6089" />
  <path fill="none" stroke="black" stroke-width="21.94" stroke-linecap="round" stroke-linejoin="round" d="M15088 1666c244,0 441,197 441,442"/>
  <path fill="none" stroke="black" stroke-width="21.94" stroke-linecap="round" stroke-linejoin="round" d="M15088 6089c244,0 441,-198 441,-442"/>
  <polygon fill="#FFC000" points="12891,3850 12891,3904 13335,3904 13335,3850 "/>
  <polygon fill="none" stroke="black" stroke-width="21.94" stroke-linecap="round" stroke-linejoin="round" points="12891,3850 12891,3904 13335,3904 13335,3850 "/>
  <polygon fill="#FFC000" points="15088,3850 15088,3904 15529,3904 15529,3850 "/>
  <polygon fill="none" stroke="black" stroke-width="21.94" stroke-linecap="round" stroke-linejoin="round" points="15088,3850 15088,3904 15529,3904 15529,3850 "/>
  <line fill="none" stroke="red" stroke-width="21.94" stroke-linecap="round" stroke-linejoin="round" x1="15308" y1="3214" x2="15308" y2= "3504" />
  <path fill="red" d="M15308 3656l-101 -202c63,32 138,32 202,0l-101 202 0 0z"/>
  <polygon fill="red" points="15263,3913 15263,3966 15352,3966 15352,3913 "/>
  <polygon fill="none" stroke="black" stroke-width="21.94" stroke-linecap="round" stroke-linejoin="round" points="15263,3913 15263,3966 15352,3966 15352,3913 "/>
  <line fill="none" stroke="black" stroke-width="21.94" stroke-linecap="round" stroke-linejoin="round" x1="7344" y1="2547" x2="6863" y2= "2345" />
  <line fill="none" stroke="#F5EFE5" stroke-width="21.94" stroke-linecap="round" stroke-linejoin="round" x1="17771" y1="6901" x2="11247" y2= "6901" />
  <line fill="none" stroke="red" stroke-width="21.94" stroke-linecap="round" stroke-linejoin="round" x1="18841" y1="5644" x2="15308" y2= "5644" />
  <path fill="red" d="M18994 5644l-202 101c32,-63 32,-139 0,-202l202 101 0 0z"/>
 </g>
</svg>
