<?xml version="1.0" encoding="UTF-8"?>
<!DOCTYPE svg PUBLIC "-//W3C//DTD SVG 1.0//EN" "http://www.w3.org/TR/2001/REC-SVG-20010904/DTD/svg10.dtd">
<!-- Creator: CorelDRAW X7 -->
<svg xmlns="http://www.w3.org/2000/svg" xml:space="preserve" width="100%" height="100%" version="1.0" shape-rendering="geometricPrecision" text-rendering="geometricPrecision" image-rendering="optimizeQuality" fill-rule="evenodd" clip-rule="evenodd"
viewBox="0 0 24797 5975"
 xmlns:xlink="http://www.w3.org/1999/xlink">
 <g id="Слой_x0020_1">
  <metadata id="CorelCorpID_0Corel-Layer"/>
  <line fill="none" stroke="#5D723D" stroke-width="21.96" stroke-linecap="round" stroke-linejoin="round" x1="13506" y1="2776" x2="12461" y2= "2776" />
  <path fill="#5D723D" d="M12309 2776l202 -101c-33,63 -33,138 0,203l-202 -102 0 0z"/>
  <line fill="none" stroke="#9E4A4C" stroke-width="21.96" stroke-linecap="round" stroke-linejoin="round" x1="8346" y1="2776" x2="7202" y2= "2776" />
  <line fill="none" stroke="black" stroke-width="21.96" stroke-linecap="round" stroke-linejoin="round" x1="4192" y1="709" x2="4192" y2= "4844" />
  <line fill="none" stroke="black" stroke-width="21.96" stroke-linecap="round" stroke-linejoin="round" x1="22151" y1="706" x2="4198" y2= "706" />
  <line fill="none" stroke="black" stroke-width="21.96" stroke-linecap="round" stroke-linejoin="round" x1="4192" y1="4845" x2="22153" y2= "4845" />
  <polygon fill="#D9D9D9" points="3749,2333 3749,3219 4634,3219 4634,2333 "/>
  <polygon fill="none" stroke="black" stroke-width="21.96" stroke-linecap="round" stroke-linejoin="round" points="3749,2333 3749,3219 4634,3219 4634,2333 "/>
  <line fill="none" stroke="#9E4A4C" stroke-width="21.96" stroke-linecap="round" stroke-linejoin="round" x1="8347" y1="2779" x2="8347" y2= "5356" />
  <path fill="#9E4A4C" d="M8347 5510l-101 -202c63,31 139,31 202,0l-101 202 0 0z"/>
  <line fill="none" stroke="black" stroke-width="21.96" stroke-linecap="round" stroke-linejoin="round" x1="7299" y1="706" x2="7299" y2= "4845" />
  <path fill="black" stroke="black" stroke-width="7.62" stroke-linecap="round" stroke-linejoin="round" d="M7362 706c0,-33 -28,-61 -63,-61 -34,0 -62,28 -62,61 0,34 28,62 62,62 35,0 63,-28 63,-62z"/>
  <path fill="none" stroke="black" stroke-width="21.96" stroke-linecap="round" stroke-linejoin="round" d="M7362 706c0,-33 -28,-61 -63,-61 -34,0 -62,28 -62,61 0,34 28,62 62,62 35,0 63,-28 63,-62"/>
  <path fill="black" stroke="black" stroke-width="7.62" stroke-linecap="round" stroke-linejoin="round" d="M7362 4845c0,-34 -28,-61 -63,-61 -34,0 -62,27 -62,61 0,35 28,63 62,63 35,0 63,-28 63,-63z"/>
  <path fill="none" stroke="black" stroke-width="21.96" stroke-linecap="round" stroke-linejoin="round" d="M7362 4845c0,-34 -28,-61 -63,-61 -34,0 -62,27 -62,61 0,35 28,63 62,63 35,0 63,-28 63,-63"/>
  <line fill="none" stroke="#F5EFE5" stroke-width="21.96" stroke-linecap="round" stroke-linejoin="round" x1="24786" y1="301" x2="24786" y2= "3800" />
  <line fill="none" stroke="#F5EFE5" stroke-width="21.96" stroke-linecap="round" stroke-linejoin="round" x1="18652" y1="11" x2="12126" y2= "11" />
  <line fill="none" stroke="#F5EFE5" stroke-width="21.96" stroke-linecap="round" stroke-linejoin="round" x1="11" y1="326" x2="11" y2= "3825" />
  <polygon fill="#D9D9D9" points="6819,2312 6819,3241 7747,3241 7747,2312 "/>
  <polygon fill="none" stroke="black" stroke-width="21.96" stroke-linecap="round" stroke-linejoin="round" points="6819,3241 7747,3241 7747,2312 6819,2312 "/>
  <line fill="none" stroke="#9E4A4C" stroke-width="21.96" stroke-linecap="round" stroke-linejoin="round" x1="1801" y1="5065" x2="1801" y2= "5360" />
  <path fill="#9E4A4C" d="M1801 5513l-101 -202c63,32 140,32 202,0l-101 202 0 0z"/>
  <line fill="none" stroke="black" stroke-width="21.96" stroke-linecap="round" stroke-linejoin="round" x1="18111" y1="706" x2="18111" y2= "4851" />
  <path fill="black" stroke="black" stroke-width="7.62" stroke-linecap="round" stroke-linejoin="round" d="M18172 706c0,-33 -28,-61 -61,-61 -36,0 -63,28 -63,61 0,34 27,62 63,62 33,0 61,-28 61,-62z"/>
  <path fill="none" stroke="black" stroke-width="21.96" stroke-linecap="round" stroke-linejoin="round" d="M18172 706c0,-33 -28,-61 -61,-61 -36,0 -63,28 -63,61 0,34 27,62 63,62 33,0 61,-28 61,-62"/>
  <path fill="black" stroke="black" stroke-width="7.62" stroke-linecap="round" stroke-linejoin="round" d="M18172 4845c0,-34 -28,-61 -61,-61 -36,0 -63,27 -63,61 0,35 27,63 63,63 33,0 61,-28 61,-63z"/>
  <path fill="none" stroke="black" stroke-width="21.96" stroke-linecap="round" stroke-linejoin="round" d="M18172 4845c0,-34 -28,-61 -61,-61 -36,0 -63,27 -63,61 0,35 27,63 63,63 33,0 61,-28 61,-63"/>
  <polygon fill="white" points="17825,2090 17825,3462 18395,3462 18395,2090 "/>
  <polygon fill="none" stroke="black" stroke-width="21.96" stroke-linecap="round" stroke-linejoin="round" points="17825,2090 17825,3462 18395,3462 18395,2090 "/>
  <line fill="none" stroke="#5D723D" stroke-width="21.96" stroke-linecap="round" stroke-linejoin="round" x1="11506" y1="2469" x2="11506" y2= "1630" />
  <path fill="#5D723D" d="M11506 1476l103 202c-65,-30 -139,-30 -204,0l101 -202 0 0z"/>
  <line fill="none" stroke="#5D723D" stroke-width="21.96" stroke-linecap="round" stroke-linejoin="round" x1="19359" y1="2776" x2="18556" y2= "2776" />
  <path fill="#5D723D" d="M18402 2776l203 -101c-32,63 -32,138 0,203l-203 -102 0 0z"/>
  <line fill="none" stroke="black" stroke-width="21.96" stroke-linecap="round" stroke-linejoin="round" x1="22151" y1="706" x2="22151" y2= "4845" />
  <line fill="none" stroke="#9E4A4C" stroke-width="21.96" stroke-linecap="round" stroke-linejoin="round" x1="23198" y1="2776" x2="21970" y2= "2776" />
  <line fill="none" stroke="#9E4A4C" stroke-width="21.96" stroke-linecap="round" stroke-linejoin="round" x1="23196" y1="2778" x2="23196" y2= "5356" />
  <path fill="#9E4A4C" d="M23196 5510l-101 -202c65,31 140,31 202,0l-101 202 0 0z"/>
  <polygon fill="#D9D9D9" points="21671,2312 21671,3241 22599,3241 22599,2312 "/>
  <polygon fill="none" stroke="black" stroke-width="21.96" stroke-linecap="round" stroke-linejoin="round" points="21671,3241 22599,3241 22599,2312 21671,2312 "/>
  <line fill="none" stroke="#00B0F0" stroke-width="21.96" stroke-linecap="round" stroke-linejoin="round" x1="5741" y1="1276" x2="5741" y2= "4122" />
  <path fill="#00B0F0" d="M5741 4276l-101 -202c63,32 139,32 202,0l-101 202 0 0z"/>
  <line fill="none" stroke="red" stroke-width="21.96" stroke-linecap="round" stroke-linejoin="round" x1="18431" y1="4226" x2="18431" y2= "4516" />
  <path fill="red" d="M18431 4668l-101 -202c63,32 138,32 202,0l-101 202 0 0z"/>
  <line fill="none" stroke="black" stroke-width="21.96" stroke-linecap="round" stroke-linejoin="round" x1="10672" y1="374" x2="10672" y2= "1039" />
  <line fill="none" stroke="black" stroke-width="21.96" stroke-linecap="round" stroke-linejoin="round" x1="10672" y1="374" x2="11253" y2= "705" />
  <line fill="none" stroke="black" stroke-width="21.96" stroke-linecap="round" stroke-linejoin="round" x1="10672" y1="1039" x2="11253" y2= "705" />
  <line fill="none" stroke="black" stroke-width="21.96" stroke-linecap="round" stroke-linejoin="round" x1="11275" y1="374" x2="11275" y2= "1039" />
  <line fill="none" stroke="#9E4A4C" stroke-width="21.96" stroke-linecap="round" stroke-linejoin="round" x1="1825" y1="5068" x2="5169" y2= "5068" />
  <line fill="none" stroke="#9E4A4C" stroke-width="21.96" stroke-linecap="round" stroke-linejoin="round" x1="5166" y1="5072" x2="5166" y2= "5964" />
  <line fill="none" stroke="red" stroke-width="21.96" stroke-linecap="round" stroke-linejoin="round" x1="16808" y1="1276" x2="16808" y2= "4122" />
  <path fill="red" d="M16808 4276l-101 -202c62,32 139,32 202,0l-101 202 0 0z"/>
  <line fill="none" stroke="black" stroke-width="21.96" stroke-linecap="round" stroke-linejoin="round" x1="11275" y1="1039" x2="11506" y2= "1271" />
  <polygon fill="#D9D9D9" points="10706,2312 10706,3241 12309,3241 12309,2312 "/>
  <polygon fill="none" stroke="black" stroke-width="21.96" stroke-linecap="round" stroke-linejoin="round" points="10706,3241 12309,3241 12309,2312 10706,2312 "/>
  <line fill="none" stroke="black" stroke-width="21.96" stroke-linecap="round" stroke-linejoin="round" x1="11506" y1="1271" x2="11506" y2= "1488" />
 </g>
</svg>
