<?xml version="1.0" encoding="UTF-8"?>
<!DOCTYPE svg PUBLIC "-//W3C//DTD SVG 1.0//EN" "http://www.w3.org/TR/2001/REC-SVG-20010904/DTD/svg10.dtd">
<!-- Creator: CorelDRAW X7 -->
<svg xmlns="http://www.w3.org/2000/svg" xml:space="preserve" width="100%" height="100%" version="1.0" shape-rendering="geometricPrecision" text-rendering="geometricPrecision" image-rendering="optimizeQuality" fill-rule="evenodd" clip-rule="evenodd"
viewBox="0 0 23824 9996"
 xmlns:xlink="http://www.w3.org/1999/xlink">
 <g id="Слой_x0020_1">
  <metadata id="CorelCorpID_0Corel-Layer"/>
  <line fill="none" stroke="black" stroke-width="21.92" stroke-linecap="round" stroke-linejoin="round" x1="1008" y1="3420" x2="1008" y2= "9921" />
  <line fill="none" stroke="black" stroke-width="21.92" stroke-linecap="round" stroke-linejoin="round" x1="20705" y1="3409" x2="1008" y2= "3409" />
  <line fill="none" stroke="black" stroke-width="21.92" stroke-linecap="round" stroke-linejoin="round" x1="1008" y1="9924" x2="20701" y2= "9924" />
  <line fill="none" stroke="#00B0F0" stroke-width="21.92" stroke-linecap="round" stroke-linejoin="round" x1="4520" y1="3870" x2="4520" y2= "9310" />
  <path fill="#00B0F0" d="M4520 9464l-102 -202c64,32 139,32 203,0l-101 202 0 0z"/>
  <line fill="none" stroke="#00B050" stroke-width="21.92" stroke-linecap="round" stroke-linejoin="round" x1="11" y1="1230" x2="11" y2= "6672" />
  <line fill="none" stroke="#00B050" stroke-width="21.92" stroke-linecap="round" stroke-linejoin="round" x1="884" y1="1230" x2="11" y2= "1230" />
  <line fill="none" stroke="#00B050" stroke-width="21.92" stroke-linecap="round" stroke-linejoin="round" x1="11" y1="6666" x2="428" y2= "6666" />
  <path fill="#00B050" d="M581 6666l-202 102c31,-64 31,-139 0,-203l202 101 0 0z"/>
  <polygon fill="#D9D9D9" points="581,6225 581,7109 1465,7109 1465,6225 "/>
  <polygon fill="none" stroke="black" stroke-width="21.92" stroke-linecap="round" stroke-linejoin="round" points="1465,6225 581,6225 581,7109 1465,7109 "/>
  <polygon fill="black" fill-rule="nonzero" points="1139,6833 1107,6833 1107,6621 964,6833 929,6833 929,6565 961,6565 961,6777 1103,6565 1139,6565 "/>
  <line fill="none" stroke="#F5EFE5" stroke-width="21.92" stroke-linecap="round" stroke-linejoin="round" x1="23813" y1="3409" x2="23813" y2= "9926" />
  <line fill="none" stroke="red" stroke-width="21.92" stroke-linecap="round" stroke-linejoin="round" x1="8734" y1="3671" x2="8734" y2= "3960" />
  <path fill="red" d="M8734 4114l-101 -202c63,31 138,31 202,0l-101 202 0 0z"/>
  <line fill="none" stroke="black" stroke-width="21.92" stroke-linecap="round" stroke-linejoin="round" x1="8328" y1="9940" x2="8328" y2= "3434" />
  <path fill="black" stroke="black" stroke-width="7.62" stroke-linecap="round" stroke-linejoin="round" d="M8389 3409c0,-35 -26,-62 -61,-62 -34,0 -61,27 -61,62 0,34 27,62 61,62 35,0 61,-28 61,-62z"/>
  <path fill="none" stroke="black" stroke-width="21.92" stroke-linecap="round" stroke-linejoin="round" d="M8389 3409c0,-35 -26,-62 -61,-62 -34,0 -61,27 -61,62 0,34 27,62 61,62 35,0 61,-28 61,-62"/>
  <path fill="black" stroke="black" stroke-width="7.62" stroke-linecap="round" stroke-linejoin="round" d="M8389 9924c0,-34 -26,-61 -61,-61 -34,0 -61,27 -61,61 0,35 27,61 61,61 35,0 61,-26 61,-61z"/>
  <path fill="none" stroke="black" stroke-width="21.92" stroke-linecap="round" stroke-linejoin="round" d="M8389 9924c0,-34 -26,-61 -61,-61 -34,0 -61,27 -61,61 0,35 27,61 61,61 35,0 61,-26 61,-61"/>
  <path fill="black" stroke="black" stroke-width="7.62" stroke-linecap="round" stroke-linejoin="round" d="M8324 6287c35,0 61,-27 61,-62 0,-34 -26,-62 -61,-62 -34,0 -62,28 -62,62 0,35 28,62 62,62z"/>
  <path fill="none" stroke="black" stroke-width="21.92" stroke-linecap="round" stroke-linejoin="round" d="M8324 6287c35,0 61,-27 61,-62 0,-34 -26,-62 -61,-62 -34,0 -62,28 -62,62 0,35 28,62 62,62"/>
  <path fill="black" stroke="black" stroke-width="7.62" stroke-linecap="round" stroke-linejoin="round" d="M8324 9383c35,0 61,-27 61,-61 0,-35 -26,-63 -61,-63 -34,0 -62,28 -62,63 0,34 28,61 62,61z"/>
  <path fill="none" stroke="black" stroke-width="21.92" stroke-linecap="round" stroke-linejoin="round" d="M8324 9383c35,0 61,-27 61,-61 0,-35 -26,-63 -61,-63 -34,0 -62,28 -62,63 0,34 28,61 62,61"/>
  <polygon fill="#D9D9D9" points="8031,7042 8031,8505 8616,8505 8616,7042 "/>
  <polygon fill="none" stroke="black" stroke-width="21.92" stroke-linecap="round" stroke-linejoin="round" points="8031,7042 8031,8505 8616,8505 8616,7042 "/>
  <line fill="none" stroke="#00B050" stroke-width="21.92" stroke-linecap="round" stroke-linejoin="round" x1="6743" y1="7773" x2="7878" y2= "7773" />
  <path fill="#00B050" d="M8031 7773l-201 102c30,-64 30,-139 0,-203l201 101 0 0z"/>
  <line fill="none" stroke="red" stroke-width="21.92" stroke-linecap="round" stroke-linejoin="round" x1="21109" y1="3671" x2="21109" y2= "3960" />
  <path fill="red" d="M21109 4114l-101 -202c64,31 139,31 202,0l-101 202 0 0z"/>
  <line fill="none" stroke="black" stroke-width="21.92" stroke-linecap="round" stroke-linejoin="round" x1="20704" y1="9927" x2="20704" y2= "3411" />
  <path fill="black" stroke="black" stroke-width="7.62" stroke-linecap="round" stroke-linejoin="round" d="M20700 6287c33,0 61,-27 61,-62 0,-34 -28,-62 -61,-62 -35,0 -62,28 -62,62 0,35 27,62 62,62z"/>
  <path fill="none" stroke="black" stroke-width="21.92" stroke-linecap="round" stroke-linejoin="round" d="M20700 6287c33,0 61,-27 61,-62 0,-34 -28,-62 -61,-62 -35,0 -62,28 -62,62 0,35 27,62 62,62"/>
  <path fill="black" stroke="black" stroke-width="7.62" stroke-linecap="round" stroke-linejoin="round" d="M20700 9383c33,0 61,-27 61,-61 0,-35 -28,-63 -61,-63 -35,0 -62,28 -62,63 0,34 27,61 62,61z"/>
  <path fill="none" stroke="black" stroke-width="21.92" stroke-linecap="round" stroke-linejoin="round" d="M20700 9383c33,0 61,-27 61,-61 0,-35 -28,-63 -61,-63 -35,0 -62,28 -62,63 0,34 27,61 62,61"/>
  <polygon fill="#D9D9D9" points="20407,7042 20407,8505 20992,8505 20992,7042 "/>
  <polygon fill="none" stroke="black" stroke-width="21.92" stroke-linecap="round" stroke-linejoin="round" points="20407,7042 20407,8505 20992,8505 20992,7042 "/>
  <line fill="none" stroke="#00B050" stroke-width="21.92" stroke-linecap="round" stroke-linejoin="round" x1="19120" y1="7773" x2="20254" y2= "7773" />
  <path fill="#00B050" d="M20407 7773l-203 102c32,-64 32,-139 0,-203l203 101 0 0z"/>
  <line fill="none" stroke="red" stroke-width="21.92" stroke-linecap="round" stroke-linejoin="round" x1="14922" y1="3671" x2="14922" y2= "3960" />
  <path fill="red" d="M14922 4114l-101 -202c63,31 137,31 201,0l-100 202 0 0z"/>
  <line fill="none" stroke="black" stroke-width="21.92" stroke-linecap="round" stroke-linejoin="round" x1="14515" y1="9940" x2="14515" y2= "3434" />
  <path fill="black" stroke="black" stroke-width="7.62" stroke-linecap="round" stroke-linejoin="round" d="M14578 3409c0,-35 -28,-62 -63,-62 -33,0 -61,27 -61,62 0,34 28,62 61,62 35,0 63,-28 63,-62z"/>
  <path fill="none" stroke="black" stroke-width="21.92" stroke-linecap="round" stroke-linejoin="round" d="M14578 3409c0,-35 -28,-62 -63,-62 -33,0 -61,27 -61,62 0,34 28,62 61,62 35,0 63,-28 63,-62"/>
  <path fill="black" stroke="black" stroke-width="7.62" stroke-linecap="round" stroke-linejoin="round" d="M14578 9924c0,-34 -28,-61 -63,-61 -33,0 -61,27 -61,61 0,35 28,61 61,61 35,0 63,-26 63,-61z"/>
  <path fill="none" stroke="black" stroke-width="21.92" stroke-linecap="round" stroke-linejoin="round" d="M14578 9924c0,-34 -28,-61 -63,-61 -33,0 -61,27 -61,61 0,35 28,61 61,61 35,0 63,-26 63,-61"/>
  <path fill="black" stroke="black" stroke-width="7.62" stroke-linecap="round" stroke-linejoin="round" d="M14511 6287c35,0 63,-27 63,-62 0,-34 -28,-62 -63,-62 -34,0 -62,28 -62,62 0,35 28,62 62,62z"/>
  <path fill="none" stroke="black" stroke-width="21.92" stroke-linecap="round" stroke-linejoin="round" d="M14511 6287c35,0 63,-27 63,-62 0,-34 -28,-62 -63,-62 -34,0 -62,28 -62,62 0,35 28,62 62,62"/>
  <path fill="black" stroke="black" stroke-width="7.62" stroke-linecap="round" stroke-linejoin="round" d="M14511 9383c35,0 63,-27 63,-61 0,-35 -28,-63 -63,-63 -34,0 -62,28 -62,63 0,34 28,61 62,61z"/>
  <path fill="none" stroke="black" stroke-width="21.92" stroke-linecap="round" stroke-linejoin="round" d="M14511 9383c35,0 63,-27 63,-61 0,-35 -28,-63 -63,-63 -34,0 -62,28 -62,63 0,34 28,61 62,61"/>
  <polygon fill="#D9D9D9" points="14219,7042 14219,8505 14805,8505 14805,7042 "/>
  <polygon fill="none" stroke="black" stroke-width="21.92" stroke-linecap="round" stroke-linejoin="round" points="14219,7042 14219,8505 14805,8505 14805,7042 "/>
  <line fill="none" stroke="#00B050" stroke-width="21.92" stroke-linecap="round" stroke-linejoin="round" x1="12931" y1="7773" x2="14065" y2= "7773" />
  <path fill="#00B050" d="M14219 7773l-202 102c31,-64 31,-139 0,-203l202 101 0 0z"/>
  <line fill="none" stroke="black" stroke-width="21.92" stroke-linecap="round" stroke-linejoin="round" x1="8324" y1="6225" x2="10256" y2= "6225" />
  <line fill="none" stroke="black" stroke-width="21.92" stroke-linecap="round" stroke-linejoin="round" x1="8324" y1="9322" x2="10256" y2= "9322" />
  <line fill="none" stroke="black" stroke-width="21.92" stroke-linecap="round" stroke-linejoin="round" x1="10256" y1="6225" x2="10256" y2= "9323" />
  <line fill="none" stroke="black" stroke-width="21.92" stroke-linecap="round" stroke-linejoin="round" x1="14514" y1="6225" x2="16446" y2= "6225" />
  <line fill="none" stroke="black" stroke-width="21.92" stroke-linecap="round" stroke-linejoin="round" x1="14514" y1="9322" x2="16446" y2= "9322" />
  <line fill="none" stroke="black" stroke-width="21.92" stroke-linecap="round" stroke-linejoin="round" x1="16445" y1="6225" x2="16445" y2= "9323" />
  <line fill="none" stroke="black" stroke-width="21.92" stroke-linecap="round" stroke-linejoin="round" x1="20698" y1="6225" x2="22631" y2= "6225" />
  <line fill="none" stroke="black" stroke-width="21.92" stroke-linecap="round" stroke-linejoin="round" x1="20698" y1="9322" x2="22631" y2= "9322" />
  <line fill="none" stroke="black" stroke-width="21.92" stroke-linecap="round" stroke-linejoin="round" x1="22631" y1="6225" x2="22631" y2= "9323" />
  <line fill="none" stroke="red" stroke-width="21.92" stroke-linecap="round" stroke-linejoin="round" x1="7613" y1="2990" x2="7903" y2= "2990" />
  <path fill="red" d="M8055 2990l-202 101c32,-63 32,-139 0,-202l202 101 0 0z"/>
  <line fill="none" stroke="black" stroke-width="21.92" stroke-linecap="round" stroke-linejoin="round" x1="1031" y1="5121" x2="2964" y2= "5121" />
  <line fill="none" stroke="black" stroke-width="21.92" stroke-linecap="round" stroke-linejoin="round" x1="1031" y1="8218" x2="2964" y2= "8218" />
  <line fill="none" stroke="black" stroke-width="21.92" stroke-linecap="round" stroke-linejoin="round" x1="2962" y1="5121" x2="2962" y2= "8220" />
  <path fill="black" stroke="black" stroke-width="7.62" stroke-linecap="round" stroke-linejoin="round" d="M1008 5181c35,0 61,-28 61,-61 0,-36 -26,-63 -61,-63 -34,0 -62,27 -62,63 0,33 28,61 62,61z"/>
  <path fill="none" stroke="black" stroke-width="21.92" stroke-linecap="round" stroke-linejoin="round" d="M1008 5181c35,0 61,-28 61,-61 0,-36 -26,-63 -61,-63 -34,0 -62,27 -62,63 0,33 28,61 62,61"/>
  <path fill="black" stroke="black" stroke-width="7.62" stroke-linecap="round" stroke-linejoin="round" d="M1008 8280c35,0 61,-28 61,-62 0,-35 -26,-63 -61,-63 -34,0 -62,28 -62,63 0,34 28,62 62,62z"/>
  <path fill="none" stroke="black" stroke-width="21.92" stroke-linecap="round" stroke-linejoin="round" d="M1008 8280c35,0 61,-28 61,-62 0,-35 -26,-63 -61,-63 -34,0 -62,28 -62,63 0,34 28,62 62,62"/>
  <line fill="none" stroke="#F5EFE5" stroke-width="21.92" stroke-linecap="round" stroke-linejoin="round" x1="7126" y1="11" x2="610" y2= "11" />
 </g>
</svg>
