<?xml version="1.0" encoding="UTF-8"?>
<!DOCTYPE svg PUBLIC "-//W3C//DTD SVG 1.0//EN" "http://www.w3.org/TR/2001/REC-SVG-20010904/DTD/svg10.dtd">
<!-- Creator: CorelDRAW X7 -->
<svg xmlns="http://www.w3.org/2000/svg" xml:space="preserve" width="100%" height="100%" version="1.0" shape-rendering="geometricPrecision" text-rendering="geometricPrecision" image-rendering="optimizeQuality" fill-rule="evenodd" clip-rule="evenodd"
viewBox="0 0 15135 5516"
 xmlns:xlink="http://www.w3.org/1999/xlink">
 <g id="Слой_x0020_1">
  <metadata id="CorelCorpID_0Corel-Layer"/>
  <line fill="none" stroke="black" stroke-width="27.65" stroke-linecap="round" stroke-linejoin="round" x1="2807" y1="2366" x2="2788" y2= "4665" />
  <line fill="none" stroke="black" stroke-width="27.65" stroke-linecap="round" stroke-linejoin="round" x1="2788" y1="4456" x2="2788" y2= "5502" />
  <line fill="none" stroke="black" stroke-width="27.65" stroke-linecap="round" stroke-linejoin="round" x1="13781" y1="2366" x2="13781" y2= "3412" />
  <line fill="none" stroke="black" stroke-width="27.65" stroke-linecap="round" stroke-linejoin="round" x1="13781" y1="4458" x2="13781" y2= "5502" />
  <line fill="none" stroke="black" stroke-width="27.65" stroke-linecap="round" stroke-linejoin="round" x1="13781" y1="2366" x2="8032" y2= "2366" />
  <line fill="none" stroke="black" stroke-width="27.65" stroke-linecap="round" stroke-linejoin="round" x1="5943" y1="2366" x2="4479" y2= "2366" />
  <line fill="none" stroke="black" stroke-width="27.65" stroke-linecap="round" stroke-linejoin="round" x1="2788" y1="5502" x2="13781" y2= "5502" />
  <path fill="black" stroke="black" stroke-width="7.62" stroke-linecap="round" stroke-linejoin="round" d="M12286 2366c0,-39 -33,-72 -73,-72 -39,0 -72,33 -72,72 0,40 33,73 72,73 40,0 73,-33 73,-73z"/>
  <path fill="none" stroke="black" stroke-width="27.65" stroke-linecap="round" stroke-linejoin="round" d="M12286 2366c0,-39 -33,-72 -73,-72 -39,0 -72,33 -72,72 0,40 33,73 72,73 40,0 73,-33 73,-73"/>
  <path fill="black" stroke="black" stroke-width="7.62" stroke-linecap="round" stroke-linejoin="round" d="M9674 2366c0,-39 -33,-72 -74,-72 -40,0 -73,33 -73,72 0,40 33,73 73,73 41,0 74,-33 74,-73z"/>
  <path fill="none" stroke="black" stroke-width="27.65" stroke-linecap="round" stroke-linejoin="round" d="M9674 2366c0,-39 -33,-72 -74,-72 -40,0 -73,33 -73,72 0,40 33,73 73,73 41,0 74,-33 74,-73"/>
  <polygon fill="#D9D9D9" points="2283,3412 2283,4458 3329,4458 3329,3412 "/>
  <polygon fill="none" stroke="black" stroke-width="27.65" stroke-linecap="round" stroke-linejoin="round" points="2283,3412 2283,4458 3329,4458 3329,3412 "/>
  <polygon fill="#D9D9D9" stroke="black" stroke-width="27.65" stroke-linecap="round" stroke-linejoin="round" points="13572,3412 13572,4458 13990,4458 13990,3412 "/>
  <line fill="none" stroke="red" stroke-width="27.65" stroke-linecap="round" stroke-linejoin="round" x1="8556" y1="2105" x2="8897" y2= "2105" />
  <path fill="red" d="M9078 2105l-239 120c37,-75 37,-165 0,-239l239 119 0 0z"/>
  <line fill="none" stroke="black" stroke-width="27.65" stroke-linecap="round" stroke-linejoin="round" x1="2807" y1="2366" x2="4060" y2= "2366" />
  <line fill="none" stroke="black" stroke-width="27.65" stroke-linecap="round" stroke-linejoin="round" x1="10646" y1="2105" x2="10646" y2= "2627" />
  <line fill="none" stroke="black" stroke-width="27.65" stroke-linecap="round" stroke-linejoin="round" x1="10646" y1="2105" x2="11099" y2= "2365" />
  <line fill="none" stroke="black" stroke-width="27.65" stroke-linecap="round" stroke-linejoin="round" x1="10646" y1="2627" x2="11099" y2= "2365" />
  <line fill="none" stroke="black" stroke-width="27.65" stroke-linecap="round" stroke-linejoin="round" x1="11116" y1="2105" x2="11116" y2= "2627" />
  <line fill="none" stroke="black" stroke-width="27.65" stroke-linecap="round" stroke-linejoin="round" x1="9861" y1="14" x2="9600" y2= "14" />
  <line fill="none" stroke="black" stroke-width="27.65" stroke-linecap="round" stroke-linejoin="round" x1="12213" y1="14" x2="11952" y2= "14" />
  <line fill="none" stroke="black" stroke-width="27.65" stroke-linecap="round" stroke-linejoin="round" x1="12213" y1="14" x2="12213" y2= "2366" />
  <line fill="none" stroke="black" stroke-width="27.65" stroke-linecap="round" stroke-linejoin="round" x1="9600" y1="14" x2="9600" y2= "2366" />
  <line fill="none" stroke="#00B0F0" stroke-width="27.65" stroke-linecap="round" stroke-linejoin="round" x1="9861" y1="1321" x2="11771" y2= "1321" />
  <path fill="#00B0F0" d="M11952 1321l-238 119c36,-74 36,-163 0,-239l238 120 0 0z"/>
  <line fill="none" stroke="#5D723D" stroke-width="27.65" stroke-linecap="round" stroke-linejoin="round" x1="15121" y1="3934" x2="14172" y2= "3934" />
  <path fill="#5D723D" d="M13990 3934l239 -119c-36,76 -36,164 0,238l-239 -119 0 0z"/>
  <line fill="none" stroke="#5D723D" stroke-width="27.65" stroke-linecap="round" stroke-linejoin="round" x1="14" y1="3934" x2="2102" y2= "3934" />
  <path fill="#5D723D" d="M2283 3934l-238 119c38,-74 38,-164 0,-238l238 119 0 0z"/>
  <line fill="none" stroke="black" stroke-width="27.65" stroke-linecap="round" stroke-linejoin="round" x1="4060" y1="2366" x2="4479" y2= "2366" />
 </g>
</svg>
