<?xml version="1.0" encoding="UTF-8"?>
<!DOCTYPE svg PUBLIC "-//W3C//DTD SVG 1.0//EN" "http://www.w3.org/TR/2001/REC-SVG-20010904/DTD/svg10.dtd">
<!-- Creator: CorelDRAW X7 -->
<svg xmlns="http://www.w3.org/2000/svg" xml:space="preserve" width="100%" height="100%" version="1.0" shape-rendering="geometricPrecision" text-rendering="geometricPrecision" image-rendering="optimizeQuality" fill-rule="evenodd" clip-rule="evenodd"
viewBox="0 0 23821 10565"
 xmlns:xlink="http://www.w3.org/1999/xlink">
 <g id="Слой_x0020_1">
  <metadata id="CorelCorpID_0Corel-Layer"/>
  <line fill="none" stroke="black" stroke-width="21.92" stroke-linecap="round" stroke-linejoin="round" x1="1008" y1="3419" x2="1008" y2= "9920" />
  <g>
   <path fill="black" fill-rule="nonzero" d="M20703 3398c7,0 13,5 13,11 0,6 -6,11 -13,11l0 -22zm-19695 0l19695 0 0 22 -19695 0 0 -22zm0 22c-7,0 -13,-5 -13,-11 0,-6 6,-11 13,-11l0 22z"/>
  </g>
  <line fill="none" stroke="black" stroke-width="21.92" stroke-linecap="round" stroke-linejoin="round" x1="1008" y1="9923" x2="20699" y2= "9923" />
  <line fill="none" stroke="#00B0F0" stroke-width="21.92" stroke-linecap="round" stroke-linejoin="round" x1="4520" y1="3869" x2="4520" y2= "9309" />
  <path fill="#00B0F0" d="M4520 9463l-103 -202c65,32 139,32 204,0l-101 202 0 0z"/>
  <line fill="none" stroke="#00B050" stroke-width="21.92" stroke-linecap="round" stroke-linejoin="round" x1="11" y1="1230" x2="11" y2= "6671" />
  <line fill="none" stroke="#00B050" stroke-width="21.92" stroke-linecap="round" stroke-linejoin="round" x1="883" y1="1230" x2="11" y2= "1230" />
  <line fill="none" stroke="#00B050" stroke-width="21.92" stroke-linecap="round" stroke-linejoin="round" x1="11" y1="6665" x2="427" y2= "6665" />
  <path fill="#00B050" d="M581 6665l-202 103c31,-65 31,-139 0,-204l202 101 0 0z"/>
  <polygon fill="#D9D9D9" points="581,6224 581,7108 1465,7108 1465,6224 "/>
  <polygon fill="none" stroke="black" stroke-width="21.92" stroke-linecap="round" stroke-linejoin="round" points="1465,6224 581,6224 581,7108 1465,7108 "/>
  <polygon fill="black" fill-rule="nonzero" points="1139,6832 1106,6832 1106,6620 964,6832 929,6832 929,6565 961,6565 961,6776 1103,6565 1139,6565 "/>
  <line fill="none" stroke="#F5EFE5" stroke-width="21.92" stroke-linecap="round" stroke-linejoin="round" x1="23810" y1="3409" x2="23810" y2= "9924" />
  <line fill="none" stroke="black" stroke-width="21.92" stroke-linecap="round" stroke-linejoin="round" x1="5896" y1="9939" x2="5896" y2= "2003" />
  <path fill="black" stroke="black" stroke-width="7.62" stroke-linecap="round" stroke-linejoin="round" d="M5958 3409c0,-35 -28,-63 -62,-63 -33,0 -61,28 -61,63 0,34 28,61 61,61 34,0 62,-27 62,-61z"/>
  <path fill="none" stroke="black" stroke-width="21.92" stroke-linecap="round" stroke-linejoin="round" d="M5958 3409c0,-35 -28,-63 -62,-63 -33,0 -61,28 -61,63 0,34 28,61 61,61 34,0 62,-27 62,-61"/>
  <path fill="black" stroke="black" stroke-width="7.62" stroke-linecap="round" stroke-linejoin="round" d="M5958 9923c0,-34 -28,-61 -62,-61 -33,0 -61,27 -61,61 0,35 28,61 61,61 34,0 62,-26 62,-61z"/>
  <path fill="none" stroke="black" stroke-width="21.92" stroke-linecap="round" stroke-linejoin="round" d="M5958 9923c0,-34 -28,-61 -62,-61 -33,0 -61,27 -61,61 0,35 28,61 61,61 34,0 62,-26 62,-61"/>
  <line fill="none" stroke="red" stroke-width="21.92" stroke-linecap="round" stroke-linejoin="round" x1="21106" y1="3671" x2="21106" y2= "3960" />
  <path fill="red" d="M21106 4113l-100 -201c64,30 138,30 201,0l-101 201 0 0z"/>
  <line fill="none" stroke="black" stroke-width="21.92" stroke-linecap="round" stroke-linejoin="round" x1="20702" y1="9926" x2="20702" y2= "3410" />
  <path fill="black" stroke="black" stroke-width="7.62" stroke-linecap="round" stroke-linejoin="round" d="M20697 6287c34,0 62,-28 62,-63 0,-34 -28,-62 -62,-62 -35,0 -61,28 -61,62 0,35 26,63 61,63z"/>
  <path fill="none" stroke="black" stroke-width="21.92" stroke-linecap="round" stroke-linejoin="round" d="M20697 6287c34,0 62,-28 62,-63 0,-34 -28,-62 -62,-62 -35,0 -61,28 -61,62 0,35 26,63 61,63"/>
  <path fill="black" stroke="black" stroke-width="7.62" stroke-linecap="round" stroke-linejoin="round" d="M20697 9382c34,0 62,-28 62,-61 0,-35 -28,-63 -62,-63 -35,0 -61,28 -61,63 0,33 26,61 61,61z"/>
  <path fill="none" stroke="black" stroke-width="21.92" stroke-linecap="round" stroke-linejoin="round" d="M20697 9382c34,0 62,-28 62,-61 0,-35 -28,-63 -62,-63 -35,0 -61,28 -61,63 0,33 26,61 61,61"/>
  <polygon fill="#D9D9D9" points="20405,7041 20405,8504 20989,8504 20989,7041 "/>
  <polygon fill="none" stroke="black" stroke-width="21.92" stroke-linecap="round" stroke-linejoin="round" points="20405,7041 20405,8504 20989,8504 20989,7041 "/>
  <line fill="none" stroke="#00B050" stroke-width="21.92" stroke-linecap="round" stroke-linejoin="round" x1="19873" y1="7772" x2="20251" y2= "7772" />
  <path fill="#00B050" d="M20405 7772l-203 102c32,-64 32,-139 0,-203l203 101 0 0z"/>
  <line fill="none" stroke="red" stroke-width="21.92" stroke-linecap="round" stroke-linejoin="round" x1="16440" y1="3671" x2="16440" y2= "3960" />
  <path fill="red" d="M16440 4113l-101 -201c63,30 137,30 202,0l-101 201 0 0z"/>
  <line fill="none" stroke="black" stroke-width="21.92" stroke-linecap="round" stroke-linejoin="round" x1="16033" y1="9939" x2="16033" y2= "3434" />
  <path fill="black" stroke="black" stroke-width="7.62" stroke-linecap="round" stroke-linejoin="round" d="M16095 3409c0,-35 -26,-63 -62,-63 -33,0 -61,28 -61,63 0,34 28,61 61,61 36,0 62,-27 62,-61z"/>
  <path fill="none" stroke="black" stroke-width="21.92" stroke-linecap="round" stroke-linejoin="round" d="M16095 3409c0,-35 -26,-63 -62,-63 -33,0 -61,28 -61,63 0,34 28,61 61,61 36,0 62,-27 62,-61"/>
  <path fill="black" stroke="black" stroke-width="7.62" stroke-linecap="round" stroke-linejoin="round" d="M16095 9923c0,-34 -26,-61 -62,-61 -33,0 -61,27 -61,61 0,35 28,61 61,61 36,0 62,-26 62,-61z"/>
  <path fill="none" stroke="black" stroke-width="21.92" stroke-linecap="round" stroke-linejoin="round" d="M16095 9923c0,-34 -26,-61 -62,-61 -33,0 -61,27 -61,61 0,35 28,61 61,61 36,0 62,-26 62,-61"/>
  <path fill="black" stroke="black" stroke-width="7.62" stroke-linecap="round" stroke-linejoin="round" d="M16029 6287c35,0 63,-28 63,-63 0,-34 -28,-62 -63,-62 -34,0 -61,28 -61,62 0,35 27,63 61,63z"/>
  <path fill="none" stroke="black" stroke-width="21.92" stroke-linecap="round" stroke-linejoin="round" d="M16029 6287c35,0 63,-28 63,-63 0,-34 -28,-62 -63,-62 -34,0 -61,28 -61,62 0,35 27,63 61,63"/>
  <path fill="black" stroke="black" stroke-width="7.62" stroke-linecap="round" stroke-linejoin="round" d="M16029 9382c35,0 63,-28 63,-61 0,-35 -28,-63 -63,-63 -34,0 -61,28 -61,63 0,33 27,61 61,61z"/>
  <path fill="none" stroke="black" stroke-width="21.92" stroke-linecap="round" stroke-linejoin="round" d="M16029 9382c35,0 63,-28 63,-61 0,-35 -28,-63 -63,-63 -34,0 -61,28 -61,63 0,33 27,61 61,61"/>
  <polygon fill="#D9D9D9" points="15737,7041 15737,8504 16323,8504 16323,7041 "/>
  <polygon fill="none" stroke="black" stroke-width="21.92" stroke-linecap="round" stroke-linejoin="round" points="15737,7041 15737,8504 16323,8504 16323,7041 "/>
  <line fill="none" stroke="black" stroke-width="21.92" stroke-linecap="round" stroke-linejoin="round" x1="16032" y1="6224" x2="17964" y2= "6224" />
  <line fill="none" stroke="black" stroke-width="21.92" stroke-linecap="round" stroke-linejoin="round" x1="16032" y1="9321" x2="17964" y2= "9321" />
  <line fill="none" stroke="black" stroke-width="21.92" stroke-linecap="round" stroke-linejoin="round" x1="17963" y1="6224" x2="17963" y2= "9322" />
  <line fill="none" stroke="black" stroke-width="21.92" stroke-linecap="round" stroke-linejoin="round" x1="20696" y1="6224" x2="22628" y2= "6224" />
  <line fill="none" stroke="black" stroke-width="21.92" stroke-linecap="round" stroke-linejoin="round" x1="20696" y1="9321" x2="22628" y2= "9321" />
  <line fill="none" stroke="black" stroke-width="21.92" stroke-linecap="round" stroke-linejoin="round" x1="22628" y1="6224" x2="22628" y2= "9322" />
  <line fill="none" stroke="red" stroke-width="21.92" stroke-linecap="round" stroke-linejoin="round" x1="7358" y1="2990" x2="7647" y2= "2990" />
  <path fill="red" d="M7799 2990l-201 100c32,-62 32,-138 0,-201l201 101 0 0z"/>
  <line fill="none" stroke="black" stroke-width="21.92" stroke-linecap="round" stroke-linejoin="round" x1="1031" y1="5120" x2="2963" y2= "5120" />
  <line fill="none" stroke="black" stroke-width="21.92" stroke-linecap="round" stroke-linejoin="round" x1="1031" y1="8217" x2="2963" y2= "8217" />
  <line fill="none" stroke="black" stroke-width="21.92" stroke-linecap="round" stroke-linejoin="round" x1="2962" y1="5120" x2="2962" y2= "8219" />
  <path fill="black" stroke="black" stroke-width="7.62" stroke-linecap="round" stroke-linejoin="round" d="M1008 5180c35,0 61,-27 61,-61 0,-35 -26,-63 -61,-63 -34,0 -62,28 -62,63 0,34 28,61 62,61z"/>
  <path fill="none" stroke="black" stroke-width="21.92" stroke-linecap="round" stroke-linejoin="round" d="M1008 5180c35,0 61,-27 61,-61 0,-35 -26,-63 -61,-63 -34,0 -62,28 -62,63 0,34 28,61 62,61"/>
  <path fill="black" stroke="black" stroke-width="7.62" stroke-linecap="round" stroke-linejoin="round" d="M1008 8279c35,0 61,-28 61,-62 0,-35 -26,-63 -61,-63 -34,0 -62,28 -62,63 0,34 28,62 62,62z"/>
  <path fill="none" stroke="black" stroke-width="21.92" stroke-linecap="round" stroke-linejoin="round" d="M1008 8279c35,0 61,-28 61,-62 0,-35 -26,-63 -61,-63 -34,0 -62,28 -62,63 0,34 28,62 62,62"/>
  <line fill="none" stroke="#F5EFE5" stroke-width="21.92" stroke-linecap="round" stroke-linejoin="round" x1="7126" y1="11" x2="610" y2= "11" />
  <line fill="none" stroke="#00B050" stroke-width="21.92" stroke-linecap="round" stroke-linejoin="round" x1="19873" y1="7772" x2="19873" y2= "10554" />
  <line fill="none" stroke="#00B050" stroke-width="21.92" stroke-linecap="round" stroke-linejoin="round" x1="15200" y1="7772" x2="15589" y2= "7772" />
  <path fill="#00B050" d="M15741 7772l-202 102c33,-64 33,-139 0,-203l202 101 0 0z"/>
  <line fill="none" stroke="#00B050" stroke-width="21.92" stroke-linecap="round" stroke-linejoin="round" x1="15197" y1="7772" x2="15197" y2= "10554" />
  <line fill="none" stroke="black" stroke-width="21.92" stroke-linecap="round" stroke-linejoin="round" x1="8143" y1="3421" x2="8143" y2= "1211" />
  <line fill="none" stroke="black" stroke-width="21.92" stroke-linecap="round" stroke-linejoin="round" x1="11238" y1="3421" x2="11238" y2= "1211" />
  <line fill="none" stroke="black" stroke-width="21.92" stroke-linecap="round" stroke-linejoin="round" x1="8143" y1="1211" x2="11240" y2= "1211" />
  <path fill="black" stroke="black" stroke-width="7.62" stroke-linecap="round" stroke-linejoin="round" d="M8204 3409c0,-35 -28,-63 -61,-63 -35,0 -63,28 -63,63 0,34 28,61 63,61 33,0 61,-27 61,-61z"/>
  <path fill="none" stroke="black" stroke-width="21.92" stroke-linecap="round" stroke-linejoin="round" d="M8204 3409c0,-35 -28,-63 -61,-63 -35,0 -63,28 -63,63 0,34 28,61 63,61 33,0 61,-27 61,-61"/>
  <path fill="black" stroke="black" stroke-width="7.62" stroke-linecap="round" stroke-linejoin="round" d="M11300 3409c0,-35 -28,-63 -62,-63 -35,0 -63,28 -63,63 0,34 28,61 63,61 34,0 62,-27 62,-61z"/>
  <path fill="none" stroke="black" stroke-width="21.92" stroke-linecap="round" stroke-linejoin="round" d="M11300 3409c0,-35 -28,-63 -62,-63 -35,0 -63,28 -63,63 0,34 28,61 63,61 34,0 62,-27 62,-61"/>
  <polygon fill="#D9D9D9" points="8958,3128 8958,3713 10423,3713 10423,3128 "/>
  <polygon fill="none" stroke="black" stroke-width="21.92" stroke-linecap="round" stroke-linejoin="round" points="8958,3713 10423,3713 10423,3128 8958,3128 "/>
  <line fill="none" stroke="#00B050" stroke-width="21.92" stroke-linecap="round" stroke-linejoin="round" x1="9691" y1="5001" x2="9691" y2= "3866" />
  <path fill="#00B050" d="M9691 3713l100 202c-64,-31 -138,-31 -201,0l101 -202 0 0z"/>
  <line fill="none" stroke="#00B0F0" stroke-width="21.92" stroke-linecap="round" stroke-linejoin="round" x1="9027" y1="2865" x2="10201" y2= "2865" />
  <path fill="#00B0F0" d="M10353 2865l-202 101c32,-64 32,-139 0,-203l202 102 0 0z"/>
  <line fill="none" stroke="black" stroke-width="21.92" stroke-linecap="round" stroke-linejoin="round" x1="11873" y1="3421" x2="11873" y2= "1211" />
  <line fill="none" stroke="black" stroke-width="21.92" stroke-linecap="round" stroke-linejoin="round" x1="14969" y1="3421" x2="14969" y2= "1211" />
  <line fill="none" stroke="black" stroke-width="21.92" stroke-linecap="round" stroke-linejoin="round" x1="11873" y1="1211" x2="14971" y2= "1211" />
  <path fill="black" stroke="black" stroke-width="7.62" stroke-linecap="round" stroke-linejoin="round" d="M11935 3409c0,-35 -27,-63 -62,-63 -34,0 -62,28 -62,63 0,34 28,61 62,61 35,0 62,-27 62,-61z"/>
  <path fill="none" stroke="black" stroke-width="21.92" stroke-linecap="round" stroke-linejoin="round" d="M11935 3409c0,-35 -27,-63 -62,-63 -34,0 -62,28 -62,63 0,34 28,61 62,61 35,0 62,-27 62,-61"/>
  <path fill="black" stroke="black" stroke-width="7.62" stroke-linecap="round" stroke-linejoin="round" d="M15031 3409c0,-35 -28,-63 -62,-63 -35,0 -62,28 -62,63 0,34 27,61 62,61 34,0 62,-27 62,-61z"/>
  <path fill="none" stroke="black" stroke-width="21.92" stroke-linecap="round" stroke-linejoin="round" d="M15031 3409c0,-35 -28,-63 -62,-63 -35,0 -62,28 -62,63 0,34 27,61 62,61 34,0 62,-27 62,-61"/>
  <polygon fill="#D9D9D9" points="12690,3128 12690,3713 14152,3713 14152,3128 "/>
  <polygon fill="none" stroke="black" stroke-width="21.92" stroke-linecap="round" stroke-linejoin="round" points="12690,3713 14152,3713 14152,3128 12690,3128 "/>
  <line fill="none" stroke="#00B050" stroke-width="21.92" stroke-linecap="round" stroke-linejoin="round" x1="13420" y1="5001" x2="13420" y2= "3866" />
  <path fill="#00B050" d="M13420 3713l103 202c-65,-31 -139,-31 -204,0l101 -202 0 0z"/>
  <line fill="none" stroke="#00B0F0" stroke-width="21.92" stroke-linecap="round" stroke-linejoin="round" x1="12758" y1="2865" x2="13930" y2= "2865" />
  <path fill="#00B0F0" d="M14084 2865l-202 101c32,-64 32,-139 0,-203l202 102 0 0z"/>
  <line fill="none" stroke="#00B0F0" stroke-width="21.92" stroke-linecap="round" stroke-linejoin="round" x1="14658" y1="3989" x2="14658" y2= "9430" />
  <path fill="#00B0F0" d="M14658 9582l-101 -201c63,32 139,32 202,0l-101 201 0 0z"/>
  <line fill="none" stroke="#00B0F0" stroke-width="21.92" stroke-linecap="round" stroke-linejoin="round" x1="19326" y1="3989" x2="19326" y2= "9430" />
  <path fill="#00B0F0" d="M19326 9582l-101 -201c65,32 139,32 202,0l-101 201 0 0z"/>
  <line fill="none" stroke="black" stroke-width="21.92" stroke-linecap="round" stroke-linejoin="round" x1="4274" y1="3409" x2="4274" y2= "2000" />
  <line fill="none" stroke="black" stroke-width="21.92" stroke-linecap="round" stroke-linejoin="round" x1="4274" y1="2000" x2="5895" y2= "2000" />
  <path fill="black" stroke="black" stroke-width="7.62" stroke-linecap="round" stroke-linejoin="round" d="M4337 3409c0,-35 -26,-63 -61,-63 -34,0 -62,28 -62,63 0,34 28,61 62,61 35,0 61,-27 61,-61z"/>
  <path fill="none" stroke="black" stroke-width="21.92" stroke-linecap="round" stroke-linejoin="round" d="M4337 3409c0,-35 -26,-63 -61,-63 -34,0 -62,28 -62,63 0,34 28,61 62,61 35,0 61,-27 61,-61"/>
  <line fill="none" stroke="red" stroke-width="21.92" stroke-linecap="round" stroke-linejoin="round" x1="7799" y1="9489" x2="7511" y2= "9489" />
  <path fill="red" d="M7358 9489l202 -101c-31,64 -31,139 0,202l-202 -101 0 0z"/>
 </g>
</svg>
