<?xml version="1.0" encoding="UTF-8"?>
<!DOCTYPE svg PUBLIC "-//W3C//DTD SVG 1.0//EN" "http://www.w3.org/TR/2001/REC-SVG-20010904/DTD/svg10.dtd">
<!-- Creator: CorelDRAW X7 -->
<svg xmlns="http://www.w3.org/2000/svg" xml:space="preserve" width="100%" height="100%" version="1.0" shape-rendering="geometricPrecision" text-rendering="geometricPrecision" image-rendering="optimizeQuality" fill-rule="evenodd" clip-rule="evenodd"
viewBox="0 0 13816 6722"
 xmlns:xlink="http://www.w3.org/1999/xlink">
 <g id="Слой_x0020_1">
  <metadata id="CorelCorpID_0Corel-Layer"/>
  <line fill="none" stroke="black" stroke-width="21.95" stroke-linecap="round" stroke-linejoin="round" x1="4993" y1="3993" x2="4638" y2= "3993" />
  <path fill="black" stroke="black" stroke-width="7.62" stroke-linecap="round" stroke-linejoin="round" d="M10718 6649c0,-35 -28,-63 -62,-63 -34,0 -61,28 -61,63 0,34 27,62 61,62 34,0 62,-28 62,-62z"/>
  <path fill="none" stroke="black" stroke-width="21.95" stroke-linecap="round" stroke-linejoin="round" d="M10718 6649c0,-35 -28,-63 -62,-63 -34,0 -61,28 -61,63 0,34 27,62 61,62 34,0 62,-28 62,-62"/>
  <line fill="none" stroke="#00B050" stroke-width="21.95" stroke-linecap="round" stroke-linejoin="round" x1="11" y1="5320" x2="542" y2= "5320" />
  <path fill="#00B050" d="M696 5320l-202 103c31,-65 31,-139 0,-204l202 101 0 0z"/>
  <line fill="none" stroke="black" stroke-width="21.95" stroke-linecap="round" stroke-linejoin="round" x1="3572" y1="6616" x2="3572" y2= "3993" />
  <line fill="none" stroke="black" stroke-width="21.95" stroke-linecap="round" stroke-linejoin="round" x1="1138" y1="3993" x2="1138" y2= "4878" />
  <line fill="none" stroke="black" stroke-width="21.95" stroke-linecap="round" stroke-linejoin="round" x1="1123" y1="5764" x2="1123" y2= "6649" />
  <polygon fill="#D9D9D9" points="5612,454 5612,1338 5966,1338 5966,454 "/>
  <polygon fill="none" stroke="black" stroke-width="21.95" stroke-linecap="round" stroke-linejoin="round" points="5612,454 5612,1338 5966,1338 5966,454 "/>
  <line fill="none" stroke="black" stroke-width="21.95" stroke-linecap="round" stroke-linejoin="round" x1="12869" y1="3993" x2="12869" y2= "4878" />
  <line fill="none" stroke="black" stroke-width="21.95" stroke-linecap="round" stroke-linejoin="round" x1="12869" y1="5764" x2="12869" y2= "6649" />
  <line fill="none" stroke="black" stroke-width="21.95" stroke-linecap="round" stroke-linejoin="round" x1="12867" y1="3993" x2="4994" y2= "3993" />
  <line fill="none" stroke="black" stroke-width="21.95" stroke-linecap="round" stroke-linejoin="round" x1="1125" y1="6649" x2="12869" y2= "6649" />
  <line fill="none" stroke="black" stroke-width="21.95" stroke-linecap="round" stroke-linejoin="round" x1="10665" y1="2884" x2="10665" y2= "6649" />
  <line fill="none" stroke="#00B050" stroke-width="21.95" stroke-linecap="round" stroke-linejoin="round" x1="4899" y1="896" x2="5458" y2= "896" />
  <path fill="#00B050" d="M5612 896l-202 101c32,-64 32,-139 0,-202l202 101 0 0z"/>
  <line fill="none" stroke="black" stroke-width="21.95" stroke-linecap="round" stroke-linejoin="round" x1="8443" y1="11" x2="8443" y2= "1785" />
  <line fill="none" stroke="black" stroke-width="21.95" stroke-linecap="round" stroke-linejoin="round" x1="8443" y1="1782" x2="5789" y2= "1782" />
  <line fill="none" stroke="black" stroke-width="21.95" stroke-linecap="round" stroke-linejoin="round" x1="8443" y1="11" x2="5789" y2= "11" />
  <path fill="black" stroke="black" stroke-width="7.62" stroke-linecap="round" stroke-linejoin="round" d="M3633 3993c0,-34 -26,-61 -61,-61 -34,0 -62,27 -62,61 0,35 28,63 62,63 35,0 61,-28 61,-63z"/>
  <path fill="none" stroke="black" stroke-width="21.95" stroke-linecap="round" stroke-linejoin="round" d="M3633 3993c0,-34 -26,-61 -61,-61 -34,0 -62,27 -62,61 0,35 28,63 62,63 35,0 61,-28 61,-63"/>
  <path fill="black" stroke="black" stroke-width="7.62" stroke-linecap="round" stroke-linejoin="round" d="M3633 6649c0,-35 -26,-63 -61,-63 -34,0 -62,28 -62,63 0,34 28,62 62,62 35,0 61,-28 61,-62z"/>
  <path fill="none" stroke="black" stroke-width="21.95" stroke-linecap="round" stroke-linejoin="round" d="M3633 6649c0,-35 -26,-63 -61,-63 -34,0 -62,28 -62,63 0,34 28,62 62,62 35,0 61,-28 61,-62"/>
  <polygon fill="#D9D9D9" points="696,4878 696,5764 1581,5764 1581,4878 "/>
  <polygon fill="none" stroke="black" stroke-width="21.95" stroke-linecap="round" stroke-linejoin="round" points="1581,4878 696,4878 696,5764 1581,5764 "/>
  <polygon fill="black" fill-rule="nonzero" points="1254,5488 1222,5488 1222,5276 1079,5488 1044,5488 1044,5220 1076,5220 1076,5432 1219,5220 1254,5220 "/>
  <line fill="none" stroke="black" stroke-width="21.95" stroke-linecap="round" stroke-linejoin="round" x1="5789" y1="11" x2="5789" y2= "454" />
  <line fill="none" stroke="black" stroke-width="21.95" stroke-linecap="round" stroke-linejoin="round" x1="5789" y1="1782" x2="5789" y2= "1338" />
  <polygon fill="#D9D9D9" points="12692,4878 12692,5764 13046,5764 13046,4878 "/>
  <polygon fill="none" stroke="black" stroke-width="21.95" stroke-linecap="round" stroke-linejoin="round" points="12692,4878 12692,5764 13046,5764 13046,4878 "/>
  <line fill="none" stroke="#00B050" stroke-width="21.95" stroke-linecap="round" stroke-linejoin="round" x1="13198" y1="5320" x2="13805" y2= "5320" />
  <path fill="#00B050" d="M13046 5320l202 -101c-32,65 -32,139 0,204l-202 -103 0 0z"/>
  <line fill="none" stroke="red" stroke-width="21.95" stroke-linecap="round" stroke-linejoin="round" x1="8222" y1="3772" x2="8512" y2= "3772" />
  <path fill="red" d="M8664 3772l-202 101c33,-63 33,-138 0,-202l202 101 0 0z"/>
  <line fill="none" stroke="black" stroke-width="21.95" stroke-linecap="round" stroke-linejoin="round" x1="1136" y1="3993" x2="4638" y2= "3993" />
  <line fill="none" stroke="black" stroke-width="21.95" stroke-linecap="round" stroke-linejoin="round" x1="10656" y1="2884" x2="9329" y2= "2884" />
  <line fill="none" stroke="black" stroke-width="21.95" stroke-linecap="round" stroke-linejoin="round" x1="9329" y1="2890" x2="9329" y2= "3993" />
  <path fill="black" stroke="black" stroke-width="7.62" stroke-linecap="round" stroke-linejoin="round" d="M9390 3993c0,-34 -28,-61 -61,-61 -34,0 -62,27 -62,61 0,35 28,63 62,63 33,0 61,-28 61,-63z"/>
  <path fill="none" stroke="black" stroke-width="21.95" stroke-linecap="round" stroke-linejoin="round" d="M9390 3993c0,-34 -28,-61 -61,-61 -34,0 -62,27 -62,61 0,35 28,63 62,63 33,0 61,-28 61,-63"/>
 </g>
</svg>
